<svg width="286" height="117" viewBox="0 0 286 117" fill="none" xmlns="http://www.w3.org/2000/svg">
<path d="M43.8337 102.124L16.0883 102.123C15.637 102.123 15.2957 101.722 15.3747 101.283L15.5999 100.037C15.8049 98.9005 16.8074 98.0727 17.9782 98.0727H44.5602L43.8337 102.124Z" fill="#F6F6F6"/>
<path d="M40.9629 102.124L13.2172 102.123C12.7662 102.123 12.4246 101.722 12.5036 101.283L12.7288 100.037C12.9341 98.9005 13.9363 98.0727 15.1071 98.0727H41.6894L40.9629 102.124Z" fill="#F6F6F6"/>
<path d="M0.94549 111.385H26.171C26.9671 111.385 27.1811 112.467 26.4428 112.762L17.1293 116.482C16.8415 116.597 16.5334 116.656 16.2225 116.656H0L0.94549 111.385Z" fill="#F6F6F6"/>
<path d="M42.1636 111.385C41.4567 114.467 38.6792 116.656 35.4744 116.656H15.9629V111.385H42.1636Z" fill="#F6F6F6"/>
<path d="M43.8612 101.974L42.1636 111.389L35.7383 111.474L37.4471 101.974H43.8612Z" fill="#F6F6F6"/>
<path d="M30.3998 111.409C34.3682 111.409 36.0812 109.313 36.3633 107.997L38.4316 107.517L38.2825 111.052L36.1749 112.803H28.9553C27.7836 112.338 26.4318 111.409 30.3998 111.409Z" fill="#F6F6F6"/>
<path d="M36.1416 102.123C37.3049 102.123 37.2071 103.338 37.1101 103.841L37.9968 103.569L38.6478 101.352L37.1223 101.277L34.6816 101.503C34.6852 101.707 34.9782 102.123 36.1416 102.123Z" fill="#F6F6F6"/>
<path d="M2.16996 104.744H29.9156C30.3666 104.744 30.7079 105.146 30.6289 105.584L30.404 106.83C30.1987 107.967 29.1965 108.795 28.0257 108.795H1.44336L2.16996 104.744Z" fill="#F6F6F6"/>
<path d="M5.04105 104.744H32.7865C33.2375 104.744 33.5791 105.146 33.5001 105.584L33.2749 106.83C33.0696 107.967 32.0674 108.795 30.8967 108.795H4.31445L5.04105 104.744Z" fill="#F6F6F6"/>
<path d="M45.0565 95.483H19.8311C19.035 95.483 18.821 94.4007 19.5589 94.106L28.8728 90.386C29.161 90.271 29.4687 90.2119 29.7796 90.2119H46.0021L45.0565 95.483Z" fill="#F6F6F6"/>
<path d="M3.83984 95.483C4.54687 92.4005 7.32428 90.2119 10.5291 90.2119H30.0406V95.483H3.83984Z" fill="#F6F6F6"/>
<path d="M2.14258 104.894L3.84019 95.4788L10.2657 95.3934L8.55664 104.894H2.14258Z" fill="#F6F6F6"/>
<path d="M15.604 95.4582C11.6356 95.4582 9.92303 97.5544 9.6409 98.871L7.57227 99.351L7.72162 95.8156L9.82931 94.0644H17.0486C18.2206 94.5291 19.5724 95.4582 15.604 95.4582Z" fill="#F6F6F6"/>
<path d="M9.86163 104.744C8.69824 104.744 8.79613 103.53 8.89305 103.026L8.00629 103.299L7.35547 105.516L8.88089 105.591L11.3215 105.365C11.318 105.161 11.025 104.744 9.86163 104.744Z" fill="#F6F6F6"/>
<path d="M80.2986 57.0178L52.5532 57.0175C52.1018 57.0175 51.7605 56.6157 51.8395 56.1776L52.0647 54.9315C52.2698 53.7946 53.2723 52.9669 54.443 52.9669H81.025L80.2986 57.0178Z" fill="#F6F6F6"/>
<path d="M77.4278 57.0178L49.6821 57.0175C49.2311 57.0175 48.8894 56.6157 48.9684 56.1776L49.1936 54.9315C49.399 53.7946 50.4012 52.9669 51.5719 52.9669H78.1542L77.4278 57.0178Z" fill="#F6F6F6"/>
<path d="M37.4123 66.2788H62.6377C63.4339 66.2788 63.6479 67.361 62.9096 67.6558L53.5961 71.3758C53.3083 71.4908 53.0002 71.5502 52.6893 71.5502H36.4668L37.4123 66.2788Z" fill="#F6F6F6"/>
<path d="M78.6284 66.2788C77.9215 69.3613 75.144 71.5502 71.9392 71.5502H52.4277V66.2788H78.6284Z" fill="#F6F6F6"/>
<path d="M80.326 56.8682L78.6285 66.283L72.2031 66.3684L73.9119 56.8682H80.326Z" fill="#F6F6F6"/>
<path d="M66.8666 66.3036C70.835 66.3036 72.548 64.2074 72.8301 62.8908L74.8984 62.4108L74.7493 65.9462L72.6417 67.6974H65.4221C64.2504 67.2327 62.8986 66.3036 66.8666 66.3036Z" fill="#F6F6F6"/>
<path d="M72.6064 57.0175C73.7698 57.0175 73.6719 58.2322 73.575 58.7356L74.4617 58.4628L75.1126 56.2462L73.5871 56.171L71.1465 56.3968C71.15 56.6007 71.443 57.0175 72.6064 57.0175Z" fill="#F6F6F6"/>
<path d="M38.6346 59.6384H66.3804C66.8314 59.6384 67.1727 60.0402 67.0937 60.4782L66.8688 61.7244C66.6634 62.8612 65.6613 63.689 64.4905 63.689H37.9082L38.6346 59.6384Z" fill="#F6F6F6"/>
<path d="M41.5061 59.6384H69.2514C69.7025 59.6384 70.0441 60.0402 69.9651 60.4782L69.7399 61.7244C69.5345 62.8612 68.5324 63.689 67.3616 63.689H40.7793L41.5061 59.6384Z" fill="#F6F6F6"/>
<path d="M81.5234 50.3771H56.2979C55.5018 50.3771 55.2878 49.2948 56.0257 49L65.3395 45.2801C65.6278 45.1651 65.9355 45.106 66.2464 45.106H82.4689L81.5234 50.3771Z" fill="#F6F6F6"/>
<path d="M40.3047 50.3771C41.0116 47.2946 43.7891 45.106 46.9939 45.106H66.5054V50.3771H40.3047Z" fill="#F6F6F6"/>
<path d="M38.6074 59.7878L40.305 50.373L46.7307 50.2876L45.0216 59.7878H38.6074Z" fill="#F6F6F6"/>
<path d="M52.0689 50.3523C48.1005 50.3523 46.3879 52.4484 46.1057 53.7651L44.0371 54.245L44.1865 50.7096L46.2942 48.9584H53.5134C54.6854 49.4232 56.0372 50.3523 52.0689 50.3523Z" fill="#F6F6F6"/>
<path d="M46.3265 59.6384C45.1631 59.6384 45.261 58.4237 45.358 57.9202L44.4713 58.1931L43.8203 60.4096L45.3458 60.4849L47.7865 60.2591C47.7829 60.0551 47.4899 59.6384 46.3265 59.6384Z" fill="#F6F6F6"/>
<path d="M103.65 11.9117L75.9047 11.9117C75.4534 11.9117 75.1121 11.5097 75.1911 11.0717L75.4163 9.82543C75.6213 8.68873 76.6238 7.86078 77.7946 7.86078H104.377L103.65 11.9117Z" fill="#F6F6F6"/>
<path d="M100.779 11.9117L73.0336 11.9117C72.5826 11.9117 72.241 11.5097 72.32 11.0717L72.5452 9.82543C72.7506 8.68873 73.7527 7.86078 74.9235 7.86078H101.506L100.779 11.9117Z" fill="#F6F6F6"/>
<path d="M60.7639 21.1728H85.9893C86.7855 21.1728 86.9995 22.2552 86.2612 22.55L76.9477 26.2698C76.6598 26.3848 76.3518 26.4442 76.0409 26.4442H59.8184L60.7639 21.1728Z" fill="#F6F6F6"/>
<path d="M101.98 21.1728C101.273 24.2552 98.4956 26.4441 95.2907 26.4441H75.7793V21.1728H101.98Z" fill="#F6F6F6"/>
<path d="M103.678 11.7623L101.98 21.1769L95.5547 21.2623L97.2635 11.7623H103.678Z" fill="#F6F6F6"/>
<path d="M90.2163 21.1978C94.1846 21.1978 95.8976 19.1016 96.1797 17.7851L98.248 17.3052L98.099 20.8404L95.9913 22.5916H88.7717C87.6 22.127 86.2482 21.1978 90.2163 21.1978Z" fill="#F6F6F6"/>
<path d="M95.958 11.9116C97.1214 11.9116 97.0235 13.1262 96.9266 13.6297L97.8133 13.3567L98.4642 11.1404L96.9387 11.0652L94.498 11.2908C94.5016 11.4947 94.7946 11.9116 95.958 11.9116Z" fill="#F6F6F6"/>
<path d="M61.9862 14.5324H89.7319C90.1829 14.5324 90.5242 14.9344 90.4452 15.3724L90.2204 16.6187C90.015 17.7554 89.0128 18.5833 87.8421 18.5833H61.2598L61.9862 14.5324Z" fill="#F6F6F6"/>
<path d="M64.8576 14.5324H92.603C93.054 14.5324 93.3956 14.9344 93.3166 15.3724L93.0914 16.6187C92.8861 17.7554 91.8839 18.5833 90.7132 18.5833H64.1309L64.8576 14.5324Z" fill="#F6F6F6"/>
<path d="M104.873 5.27128H79.6475C78.8514 5.27128 78.6374 4.1889 79.3753 3.89412L88.6892 0.174223C88.9774 0.0591561 89.2851 0 89.596 0L105.819 3.17605e-06L104.873 5.27128Z" fill="#F6F6F6"/>
<path d="M63.6562 5.27129C64.3632 2.18872 67.1407 0 70.3455 0H89.857V5.27129H63.6562Z" fill="#F6F6F6"/>
<path d="M61.959 14.6817L63.6566 5.26702L70.0822 5.18164L68.3731 14.6817H61.959Z" fill="#F6F6F6"/>
<path d="M75.4204 5.24647C71.4521 5.24647 69.7394 7.34268 69.4573 8.65914L67.3887 9.13907L67.5381 5.60385L69.6457 3.8526H76.865C78.037 4.31722 79.3888 5.24647 75.4204 5.24647Z" fill="#F6F6F6"/>
<path d="M69.6781 14.5326C68.5147 14.5326 68.6126 13.318 68.7095 12.8145L67.8228 13.0875L67.1719 15.3038L68.6974 15.379L71.138 15.1534C71.1345 14.9495 70.8415 14.5326 69.6781 14.5326Z" fill="#F6F6F6"/>
<path d="M103.65 102.124L75.9047 102.123C75.4534 102.123 75.1121 101.722 75.1911 101.283L75.4163 100.037C75.6213 98.9005 76.6238 98.0727 77.7946 98.0727H104.377L103.65 102.124Z" fill="#F6F6F6"/>
<path d="M100.779 102.124L73.0336 102.123C72.5826 102.123 72.241 101.722 72.32 101.283L72.5452 100.037C72.7506 98.9005 73.7527 98.0727 74.9235 98.0727H101.506L100.779 102.124Z" fill="#F6F6F6"/>
<path d="M60.7639 111.385H85.9893C86.7855 111.385 86.9995 112.467 86.2612 112.762L76.9477 116.482C76.6598 116.597 76.3518 116.656 76.0409 116.656H59.8184L60.7639 111.385Z" fill="#F6F6F6"/>
<path d="M101.98 111.385C101.273 114.467 98.4956 116.656 95.2907 116.656H75.7793V111.385H101.98Z" fill="#F6F6F6"/>
<path d="M103.678 101.974L101.98 111.389L95.5547 111.474L97.2635 101.974H103.678Z" fill="#F6F6F6"/>
<path d="M90.2163 111.409C94.1846 111.409 95.8976 109.313 96.1797 107.997L98.248 107.517L98.099 111.052L95.9913 112.803H88.7717C87.6 112.338 86.2482 111.409 90.2163 111.409Z" fill="#F6F6F6"/>
<path d="M95.958 102.123C97.1214 102.123 97.0235 103.338 96.9266 103.841L97.8133 103.569L98.4642 101.352L96.9387 101.277L94.498 101.503C94.5016 101.707 94.7946 102.123 95.958 102.123Z" fill="#F6F6F6"/>
<path d="M61.9862 104.744H89.7319C90.1829 104.744 90.5242 105.146 90.4452 105.584L90.2204 106.83C90.015 107.967 89.0128 108.795 87.8421 108.795H61.2598L61.9862 104.744Z" fill="#F6F6F6"/>
<path d="M64.8576 104.744H92.603C93.054 104.744 93.3956 105.146 93.3166 105.584L93.0914 106.83C92.8861 107.967 91.8839 108.795 90.7132 108.795H64.1309L64.8576 104.744Z" fill="#F6F6F6"/>
<path d="M104.873 95.483H79.6475C78.8514 95.483 78.6374 94.4007 79.3753 94.106L88.6892 90.386C88.9774 90.271 89.2851 90.2119 89.596 90.2119H105.819L104.873 95.483Z" fill="#F6F6F6"/>
<path d="M63.6562 95.483C64.3632 92.4005 67.1407 90.2119 70.3455 90.2119H89.857V95.483H63.6562Z" fill="#F6F6F6"/>
<path d="M61.959 104.894L63.6566 95.4788L70.0822 95.3934L68.3731 104.894H61.959Z" fill="#F6F6F6"/>
<path d="M75.4204 95.4582C71.4521 95.4582 69.7394 97.5544 69.4573 98.871L67.3887 99.351L67.5381 95.8156L69.6457 94.0644H76.865C78.037 94.5291 79.3888 95.4582 75.4204 95.4582Z" fill="#F6F6F6"/>
<path d="M69.6781 104.744C68.5147 104.744 68.6126 103.53 68.7095 103.026L67.8228 103.299L67.1719 105.516L68.6974 105.591L71.138 105.365C71.1345 105.161 70.8415 104.744 69.6781 104.744Z" fill="#F6F6F6"/>
<path d="M259.75 57.0178L232.004 57.0175C231.553 57.0175 231.212 56.6157 231.291 56.1776L231.516 54.9315C231.721 53.7946 232.723 52.9669 233.894 52.9669H260.476L259.75 57.0178Z" fill="#F6F6F6"/>
<path d="M256.879 57.0178L229.133 57.0175C228.682 57.0175 228.341 56.6157 228.42 56.1776L228.645 54.9315C228.85 53.7946 229.852 52.9669 231.023 52.9669H257.605L256.879 57.0178Z" fill="#F6F6F6"/>
<path d="M216.864 66.2788H242.089C242.885 66.2788 243.099 67.361 242.361 67.6558L233.047 71.3758C232.759 71.4908 232.451 71.5502 232.14 71.5502H215.918L216.864 66.2788Z" fill="#F6F6F6"/>
<path d="M258.08 66.2788C257.373 69.3613 254.595 71.5502 251.39 71.5502H231.879V66.2788H258.08Z" fill="#F6F6F6"/>
<path d="M259.777 56.8682L258.08 66.283L251.654 66.3684L253.363 56.8682H259.777Z" fill="#F6F6F6"/>
<path d="M246.316 66.3036C250.284 66.3036 251.997 64.2074 252.279 62.8908L254.348 62.4108L254.199 65.9462L252.091 67.6974H244.871C243.7 67.2327 242.348 66.3036 246.316 66.3036Z" fill="#F6F6F6"/>
<path d="M252.058 57.0175C253.221 57.0175 253.123 58.2322 253.026 58.7356L253.913 58.4628L254.564 56.2462L253.038 56.171L250.598 56.3968C250.601 56.6007 250.894 57.0175 252.058 57.0175Z" fill="#F6F6F6"/>
<path d="M218.086 59.6384H245.831C246.283 59.6384 246.624 60.0402 246.545 60.4782L246.32 61.7244C246.115 62.8612 245.112 63.689 243.942 63.689H217.359L218.086 59.6384Z" fill="#F6F6F6"/>
<path d="M220.957 59.6384H248.703C249.154 59.6384 249.495 60.0402 249.416 60.4782L249.191 61.7244C248.986 62.8612 247.984 63.689 246.813 63.689H220.23L220.957 59.6384Z" fill="#F6F6F6"/>
<path d="M260.973 50.3771H235.747C234.951 50.3771 234.737 49.2948 235.475 49L244.789 45.2801C245.077 45.1651 245.385 45.106 245.696 45.106H261.918L260.973 50.3771Z" fill="#F6F6F6"/>
<path d="M219.756 50.3771C220.463 47.2946 223.24 45.106 226.445 45.106H245.957V50.3771H219.756Z" fill="#F6F6F6"/>
<path d="M218.059 59.7878L219.756 50.373L226.182 50.2876L224.473 59.7878H218.059Z" fill="#F6F6F6"/>
<path d="M231.52 50.3523C227.552 50.3523 225.839 52.4484 225.557 53.7651L223.488 54.245L223.638 50.7096L225.745 48.9584H232.965C234.137 49.4232 235.488 50.3523 231.52 50.3523Z" fill="#F6F6F6"/>
<path d="M225.778 59.6384C224.614 59.6384 224.712 58.4237 224.809 57.9202L223.922 58.1931L223.271 60.4096L224.797 60.4849L227.238 60.2591C227.234 60.0551 226.941 59.6384 225.778 59.6384Z" fill="#F6F6F6"/>
<path d="M283.099 11.9117L255.354 11.9117C254.903 11.9117 254.561 11.5097 254.64 11.0717L254.866 9.82543C255.071 8.68873 256.073 7.86078 257.244 7.86078H283.826L283.099 11.9117Z" fill="#F6F6F6"/>
<path d="M280.231 11.9117L252.485 11.9117C252.034 11.9117 251.692 11.5097 251.771 11.0717L251.996 9.82543C252.202 8.68873 253.204 7.86078 254.375 7.86078H280.957L280.231 11.9117Z" fill="#F6F6F6"/>
<path d="M240.213 21.1728H265.439C266.235 21.1728 266.449 22.2552 265.71 22.55L256.397 26.2698C256.109 26.3848 255.801 26.4442 255.49 26.4442H239.268L240.213 21.1728Z" fill="#F6F6F6"/>
<path d="M281.429 21.1728C280.722 24.2552 277.945 26.4441 274.74 26.4441H255.229V21.1728H281.429Z" fill="#F6F6F6"/>
<path d="M283.127 11.7623L281.429 21.1769L275.004 21.2623L276.713 11.7623H283.127Z" fill="#F6F6F6"/>
<path d="M269.667 21.1978C273.636 21.1978 275.349 19.1016 275.631 17.7851L277.699 17.3052L277.55 20.8404L275.442 22.5916H268.223C267.051 22.127 265.699 21.1978 269.667 21.1978Z" fill="#F6F6F6"/>
<path d="M275.409 11.9116C276.573 11.9116 276.475 13.1262 276.378 13.6297L277.264 13.3567L277.915 11.1404L276.39 11.0652L273.949 11.2908C273.953 11.4947 274.246 11.9116 275.409 11.9116Z" fill="#F6F6F6"/>
<path d="M241.437 14.5324H269.183C269.634 14.5324 269.975 14.9344 269.896 15.3724L269.672 16.6187C269.466 17.7554 268.464 18.5833 267.293 18.5833H240.711L241.437 14.5324Z" fill="#F6F6F6"/>
<path d="M244.309 14.5324H272.054C272.505 14.5324 272.847 14.9344 272.768 15.3724L272.543 16.6187C272.337 17.7554 271.335 18.5833 270.164 18.5833H243.582L244.309 14.5324Z" fill="#F6F6F6"/>
<path d="M284.324 5.27128H259.099C258.303 5.27128 258.089 4.1889 258.827 3.89412L268.14 0.174223C268.429 0.0591561 268.736 0 269.047 0L285.27 3.17605e-06L284.324 5.27128Z" fill="#F6F6F6"/>
<path d="M243.107 5.27129C243.814 2.18872 246.592 0 249.797 0H269.308V5.27129H243.107Z" fill="#F6F6F6"/>
<path d="M241.41 14.6817L243.108 5.26702L249.533 5.18164L247.824 14.6817H241.41Z" fill="#F6F6F6"/>
<path d="M254.872 5.24647C250.903 5.24647 249.191 7.34268 248.908 8.65914L246.84 9.13907L246.989 5.60385L249.097 3.8526H256.316C257.488 4.31722 258.84 5.24647 254.872 5.24647Z" fill="#F6F6F6"/>
<path d="M249.129 14.5326C247.966 14.5326 248.064 13.318 248.161 12.8145L247.274 13.0875L246.623 15.3038L248.149 15.379L250.589 15.1534C250.586 14.9495 250.293 14.5326 249.129 14.5326Z" fill="#F6F6F6"/>
<path d="M283.099 102.124L255.354 102.123C254.903 102.123 254.561 101.722 254.64 101.283L254.866 100.037C255.071 98.9005 256.073 98.0727 257.244 98.0727H283.826L283.099 102.124Z" fill="#F6F6F6"/>
<path d="M280.231 102.124L252.485 102.123C252.034 102.123 251.692 101.722 251.771 101.283L251.996 100.037C252.202 98.9005 253.204 98.0727 254.375 98.0727H280.957L280.231 102.124Z" fill="#F6F6F6"/>
<path d="M240.213 111.385H265.439C266.235 111.385 266.449 112.467 265.71 112.762L256.397 116.482C256.109 116.597 255.801 116.656 255.49 116.656H239.268L240.213 111.385Z" fill="#F6F6F6"/>
<path d="M281.429 111.385C280.722 114.467 277.945 116.656 274.74 116.656H255.229V111.385H281.429Z" fill="#F6F6F6"/>
<path d="M283.127 101.974L281.429 111.389L275.004 111.474L276.713 101.974H283.127Z" fill="#F6F6F6"/>
<path d="M269.667 111.409C273.636 111.409 275.349 109.313 275.631 107.997L277.699 107.517L277.55 111.052L275.442 112.803H268.223C267.051 112.338 265.699 111.409 269.667 111.409Z" fill="#F6F6F6"/>
<path d="M275.409 102.123C276.573 102.123 276.475 103.338 276.378 103.841L277.264 103.569L277.915 101.352L276.39 101.277L273.949 101.503C273.953 101.707 274.246 102.123 275.409 102.123Z" fill="#F6F6F6"/>
<path d="M241.437 104.744H269.183C269.634 104.744 269.975 105.146 269.896 105.584L269.672 106.83C269.466 107.967 268.464 108.795 267.293 108.795H240.711L241.437 104.744Z" fill="#F6F6F6"/>
<path d="M244.309 104.744H272.054C272.505 104.744 272.847 105.146 272.768 105.584L272.543 106.83C272.337 107.967 271.335 108.795 270.164 108.795H243.582L244.309 104.744Z" fill="#F6F6F6"/>
<path d="M284.324 95.483H259.099C258.303 95.483 258.089 94.4007 258.827 94.106L268.14 90.386C268.429 90.271 268.736 90.2119 269.047 90.2119H285.27L284.324 95.483Z" fill="#F6F6F6"/>
<path d="M243.107 95.483C243.814 92.4005 246.592 90.2119 249.797 90.2119H269.308V95.483H243.107Z" fill="#F6F6F6"/>
<path d="M241.41 104.894L243.108 95.4788L249.533 95.3934L247.824 104.894H241.41Z" fill="#F6F6F6"/>
<path d="M254.872 95.4582C250.903 95.4582 249.191 97.5544 248.908 98.871L246.84 99.351L246.989 95.8156L249.097 94.0644H256.316C257.488 94.5291 258.84 95.4582 254.872 95.4582Z" fill="#F6F6F6"/>
<path d="M249.129 104.744C247.966 104.744 248.064 103.53 248.161 103.026L247.274 103.299L246.623 105.516L248.149 105.591L250.589 105.365C250.586 105.161 250.293 104.744 249.129 104.744Z" fill="#F6F6F6"/>
<path d="M140.115 57.0178L112.37 57.0175C111.918 57.0175 111.577 56.6157 111.656 56.1776L111.881 54.9315C112.086 53.7946 113.089 52.9669 114.259 52.9669H140.841L140.115 57.0178Z" fill="#F6F6F6"/>
<path d="M137.246 57.0178L109.5 57.0175C109.049 57.0175 108.708 56.6157 108.787 56.1776L109.012 54.9315C109.217 53.7946 110.22 52.9669 111.39 52.9669H137.973L137.246 57.0178Z" fill="#F6F6F6"/>
<path d="M97.2288 66.2788H122.454C123.25 66.2788 123.464 67.361 122.726 67.6558L113.413 71.3758C113.125 71.4908 112.817 71.5502 112.506 71.5502H96.2832L97.2288 66.2788Z" fill="#F6F6F6"/>
<path d="M138.445 66.2788C137.738 69.3613 134.96 71.5502 131.756 71.5502H112.244V66.2788H138.445Z" fill="#F6F6F6"/>
<path d="M140.142 56.8682L138.445 66.283L132.02 66.3684L133.728 56.8682H140.142Z" fill="#F6F6F6"/>
<path d="M126.683 66.3036C130.651 66.3036 132.364 64.2074 132.647 62.8908L134.715 62.4108L134.566 65.9462L132.458 67.6974H125.238C124.067 67.2327 122.715 66.3036 126.683 66.3036Z" fill="#F6F6F6"/>
<path d="M132.425 57.0175C133.588 57.0175 133.49 58.2322 133.393 58.7356L134.28 58.4628L134.931 56.2462L133.406 56.171L130.965 56.3968C130.968 56.6007 131.261 57.0175 132.425 57.0175Z" fill="#F6F6F6"/>
<path d="M98.453 59.6384H126.199C126.65 59.6384 126.991 60.0402 126.912 60.4782L126.687 61.7244C126.482 62.8612 125.48 63.689 124.309 63.689H97.7266L98.453 59.6384Z" fill="#F6F6F6"/>
<path d="M101.322 59.6384H129.068C129.519 59.6384 129.86 60.0402 129.781 60.4782L129.556 61.7244C129.351 62.8612 128.349 63.689 127.178 63.689H100.596L101.322 59.6384Z" fill="#F6F6F6"/>
<path d="M141.34 50.3771H116.114C115.318 50.3771 115.104 49.2948 115.842 49L125.156 45.2801C125.444 45.1651 125.752 45.106 126.063 45.106H142.285L141.34 50.3771Z" fill="#F6F6F6"/>
<path d="M100.123 50.3771C100.83 47.2946 103.607 45.106 106.812 45.106H126.324V50.3771H100.123Z" fill="#F6F6F6"/>
<path d="M98.4258 59.7878L100.123 50.373L106.549 50.2876L104.84 59.7878H98.4258Z" fill="#F6F6F6"/>
<path d="M111.887 50.3523C107.919 50.3523 106.206 52.4484 105.924 53.7651L103.855 54.245L104.005 50.7096L106.113 48.9584H113.332C114.504 49.4232 115.856 50.3523 111.887 50.3523Z" fill="#F6F6F6"/>
<path d="M106.145 59.6384C104.982 59.6384 105.079 58.4237 105.176 57.9202L104.29 58.1931L103.639 60.4096L105.164 60.4849L107.605 60.2591C107.601 60.0551 107.308 59.6384 106.145 59.6384Z" fill="#F6F6F6"/>
<path d="M163.467 11.9117L135.721 11.9117C135.27 11.9117 134.928 11.5097 135.008 11.0717L135.233 9.82543C135.438 8.68873 136.44 7.86078 137.611 7.86078H164.193L163.467 11.9117Z" fill="#F6F6F6"/>
<path d="M160.596 11.9117L132.85 11.9117C132.399 11.9117 132.057 11.5097 132.136 11.0717L132.362 9.82543C132.567 8.68873 133.569 7.86078 134.74 7.86078H161.322L160.596 11.9117Z" fill="#F6F6F6"/>
<path d="M120.58 21.1728H145.806C146.602 21.1728 146.816 22.2552 146.078 22.55L136.764 26.2698C136.476 26.3848 136.168 26.4442 135.857 26.4442H119.635L120.58 21.1728Z" fill="#F6F6F6"/>
<path d="M161.796 21.1728C161.089 24.2552 158.312 26.4441 155.107 26.4441H135.596V21.1728H161.796Z" fill="#F6F6F6"/>
<path d="M163.494 11.7623L161.796 21.1769L155.371 21.2623L157.08 11.7623H163.494Z" fill="#F6F6F6"/>
<path d="M150.035 21.1978C154.003 21.1978 155.716 19.1016 155.998 17.7851L158.066 17.3052L157.917 20.8404L155.81 22.5916H148.59C147.418 22.127 146.067 21.1978 150.035 21.1978Z" fill="#F6F6F6"/>
<path d="M155.774 11.9116C156.938 11.9116 156.84 13.1262 156.743 13.6297L157.63 13.3567L158.281 11.1404L156.755 11.0652L154.314 11.2908C154.318 11.4947 154.611 11.9116 155.774 11.9116Z" fill="#F6F6F6"/>
<path d="M121.803 14.5324H149.548C149.999 14.5324 150.341 14.9344 150.262 15.3724L150.037 16.6187C149.831 17.7554 148.829 18.5833 147.659 18.5833H121.076L121.803 14.5324Z" fill="#F6F6F6"/>
<path d="M124.674 14.5324H152.419C152.87 14.5324 153.212 14.9344 153.133 15.3724L152.908 16.6187C152.702 17.7554 151.7 18.5833 150.53 18.5833H123.947L124.674 14.5324Z" fill="#F6F6F6"/>
<path d="M164.691 5.27128H139.466C138.67 5.27128 138.456 4.1889 139.194 3.89412L148.508 0.174223C148.796 0.0591561 149.103 0 149.414 0L165.637 3.17605e-06L164.691 5.27128Z" fill="#F6F6F6"/>
<path d="M123.473 5.27129C124.18 2.18872 126.957 0 130.162 0H149.673V5.27129H123.473Z" fill="#F6F6F6"/>
<path d="M121.775 14.6817L123.473 5.26702L129.899 5.18164L128.19 14.6817H121.775Z" fill="#F6F6F6"/>
<path d="M135.237 5.24647C131.268 5.24647 129.556 7.34268 129.274 8.65914L127.205 9.13907L127.354 5.60385L129.462 3.8526H136.681C137.853 4.31722 139.205 5.24647 135.237 5.24647Z" fill="#F6F6F6"/>
<path d="M129.494 14.5326C128.331 14.5326 128.429 13.318 128.526 12.8145L127.639 13.0875L126.988 15.3038L128.514 15.379L130.954 15.1534C130.951 14.9495 130.658 14.5326 129.494 14.5326Z" fill="#F6F6F6"/>
<path d="M163.467 102.124L135.721 102.123C135.27 102.123 134.928 101.722 135.008 101.283L135.233 100.037C135.438 98.9005 136.44 98.0727 137.611 98.0727H164.193L163.467 102.124Z" fill="#F6F6F6"/>
<path d="M160.596 102.124L132.85 102.123C132.399 102.123 132.057 101.722 132.136 101.283L132.362 100.037C132.567 98.9005 133.569 98.0727 134.74 98.0727H161.322L160.596 102.124Z" fill="#F6F6F6"/>
<path d="M120.58 111.385H145.806C146.602 111.385 146.816 112.467 146.078 112.762L136.764 116.482C136.476 116.597 136.168 116.656 135.857 116.656H119.635L120.58 111.385Z" fill="#F6F6F6"/>
<path d="M161.796 111.385C161.089 114.467 158.312 116.656 155.107 116.656H135.596V111.385H161.796Z" fill="#F6F6F6"/>
<path d="M163.494 101.974L161.796 111.389L155.371 111.474L157.08 101.974H163.494Z" fill="#F6F6F6"/>
<path d="M150.035 111.409C154.003 111.409 155.716 109.313 155.998 107.997L158.066 107.517L157.917 111.052L155.81 112.803H148.59C147.418 112.338 146.067 111.409 150.035 111.409Z" fill="#F6F6F6"/>
<path d="M155.774 102.123C156.938 102.123 156.84 103.338 156.743 103.841L157.63 103.569L158.281 101.352L156.755 101.277L154.314 101.503C154.318 101.707 154.611 102.123 155.774 102.123Z" fill="#F6F6F6"/>
<path d="M121.803 104.744H149.548C149.999 104.744 150.341 105.146 150.262 105.584L150.037 106.83C149.831 107.967 148.829 108.795 147.659 108.795H121.076L121.803 104.744Z" fill="#F6F6F6"/>
<path d="M124.674 104.744H152.419C152.87 104.744 153.212 105.146 153.133 105.584L152.908 106.83C152.702 107.967 151.7 108.795 150.53 108.795H123.947L124.674 104.744Z" fill="#F6F6F6"/>
<path d="M164.691 95.483H139.466C138.67 95.483 138.456 94.4007 139.194 94.106L148.508 90.386C148.796 90.271 149.103 90.2119 149.414 90.2119H165.637L164.691 95.483Z" fill="#F6F6F6"/>
<path d="M123.473 95.483C124.18 92.4005 126.957 90.2119 130.162 90.2119H149.673V95.483H123.473Z" fill="#F6F6F6"/>
<path d="M121.775 104.894L123.473 95.4788L129.899 95.3934L128.19 104.894H121.775Z" fill="#F6F6F6"/>
<path d="M135.237 95.4582C131.268 95.4582 129.556 97.5544 129.274 98.871L127.205 99.351L127.354 95.8156L129.462 94.0644H136.681C137.853 94.5291 139.205 95.4582 135.237 95.4582Z" fill="#F6F6F6"/>
<path d="M129.494 104.744C128.331 104.744 128.429 103.53 128.526 103.026L127.639 103.299L126.988 105.516L128.514 105.591L130.954 105.365C130.951 105.161 130.658 104.744 129.494 104.744Z" fill="#F6F6F6"/>
<path d="M199.931 57.0178L172.186 57.0175C171.735 57.0175 171.393 56.6157 171.472 56.1776L171.698 54.9315C171.903 53.7946 172.905 52.9669 174.076 52.9669H200.658L199.931 57.0178Z" fill="#F6F6F6"/>
<path d="M197.063 57.0178L169.317 57.0175C168.866 57.0175 168.524 56.6157 168.603 56.1776L168.828 54.9315C169.034 53.7946 170.036 52.9669 171.207 52.9669H197.789L197.063 57.0178Z" fill="#F6F6F6"/>
<path d="M157.045 66.2788H182.271C183.067 66.2788 183.281 67.361 182.542 67.6558L173.229 71.3758C172.941 71.4908 172.633 71.5502 172.322 71.5502H156.1L157.045 66.2788Z" fill="#F6F6F6"/>
<path d="M198.261 66.2788C197.554 69.3613 194.777 71.5502 191.572 71.5502H172.061V66.2788H198.261Z" fill="#F6F6F6"/>
<path d="M199.959 56.8682L198.261 66.283L191.836 66.3684L193.545 56.8682H199.959Z" fill="#F6F6F6"/>
<path d="M186.499 66.3036C190.468 66.3036 192.181 64.2074 192.463 62.8908L194.531 62.4108L194.382 65.9462L192.275 67.6974H185.055C183.883 67.2327 182.531 66.3036 186.499 66.3036Z" fill="#F6F6F6"/>
<path d="M192.241 57.0175C193.405 57.0175 193.307 58.2322 193.21 58.7356L194.096 58.4628L194.747 56.2462L193.222 56.171L190.781 56.3968C190.785 56.6007 191.078 57.0175 192.241 57.0175Z" fill="#F6F6F6"/>
<path d="M158.269 59.6384H186.015C186.466 59.6384 186.807 60.0402 186.728 60.4782L186.504 61.7244C186.298 62.8612 185.296 63.689 184.125 63.689H157.543L158.269 59.6384Z" fill="#F6F6F6"/>
<path d="M161.141 59.6384H188.886C189.337 59.6384 189.679 60.0402 189.6 60.4782L189.375 61.7244C189.169 62.8612 188.167 63.689 186.996 63.689H160.414L161.141 59.6384Z" fill="#F6F6F6"/>
<path d="M201.156 50.3771H175.931C175.135 50.3771 174.921 49.2948 175.659 49L184.972 45.2801C185.261 45.1651 185.568 45.106 185.879 45.106H202.102L201.156 50.3771Z" fill="#F6F6F6"/>
<path d="M159.939 50.3771C160.646 47.2946 163.424 45.106 166.629 45.106H186.14V50.3771H159.939Z" fill="#F6F6F6"/>
<path d="M158.242 59.7878L159.94 50.373L166.365 50.2876L164.656 59.7878H158.242Z" fill="#F6F6F6"/>
<path d="M171.704 50.3523C167.735 50.3523 166.023 52.4484 165.741 53.7651L163.672 54.245L163.821 50.7096L165.929 48.9584H173.148C174.32 49.4232 175.672 50.3523 171.704 50.3523Z" fill="#F6F6F6"/>
<path d="M165.961 59.6384C164.798 59.6384 164.896 58.4237 164.993 57.9202L164.106 58.1931L163.455 60.4096L164.981 60.4849L167.421 60.2591C167.418 60.0551 167.125 59.6384 165.961 59.6384Z" fill="#F6F6F6"/>
<path d="M223.283 11.9117L195.538 11.9117C195.086 11.9117 194.745 11.5097 194.824 11.0717L195.049 9.82543C195.254 8.68873 196.257 7.86078 197.427 7.86078H224.009L223.283 11.9117Z" fill="#F6F6F6"/>
<path d="M220.412 11.9117L192.666 11.9117C192.215 11.9117 191.874 11.5097 191.953 11.0717L192.178 9.82543C192.383 8.68873 193.386 7.86078 194.556 7.86078H221.139L220.412 11.9117Z" fill="#F6F6F6"/>
<path d="M180.397 21.1728H205.622C206.418 21.1728 206.632 22.2552 205.894 22.55L196.581 26.2698C196.293 26.3848 195.985 26.4442 195.674 26.4442H179.451L180.397 21.1728Z" fill="#F6F6F6"/>
<path d="M221.613 21.1728C220.906 24.2552 218.128 26.4441 214.924 26.4441H195.412V21.1728H221.613Z" fill="#F6F6F6"/>
<path d="M223.31 11.7623L221.613 21.1769L215.188 21.2623L216.896 11.7623H223.31Z" fill="#F6F6F6"/>
<path d="M209.851 21.1978C213.819 21.1978 215.532 19.1016 215.814 17.7851L217.883 17.3052L217.734 20.8404L215.626 22.5916H208.406C207.235 22.127 205.883 21.1978 209.851 21.1978Z" fill="#F6F6F6"/>
<path d="M215.591 11.9116C216.754 11.9116 216.656 13.1262 216.559 13.6297L217.446 13.3567L218.097 11.1404L216.571 11.0652L214.131 11.2908C214.134 11.4947 214.427 11.9116 215.591 11.9116Z" fill="#F6F6F6"/>
<path d="M181.619 14.5324H209.365C209.816 14.5324 210.157 14.9344 210.078 15.3724L209.853 16.6187C209.648 17.7554 208.646 18.5833 207.475 18.5833H180.893L181.619 14.5324Z" fill="#F6F6F6"/>
<path d="M184.49 14.5324H212.236C212.687 14.5324 213.028 14.9344 212.949 15.3724L212.724 16.6187C212.519 17.7554 211.517 18.5833 210.346 18.5833H183.764L184.49 14.5324Z" fill="#F6F6F6"/>
<path d="M224.508 5.27128H199.282C198.486 5.27128 198.272 4.1889 199.01 3.89412L208.324 0.174223C208.612 0.0591561 208.92 0 209.231 0L225.453 3.17605e-06L224.508 5.27128Z" fill="#F6F6F6"/>
<path d="M183.289 5.27129C183.996 2.18872 186.773 0 189.978 0H209.49V5.27129H183.289Z" fill="#F6F6F6"/>
<path d="M181.594 14.6817L183.291 5.26702L189.717 5.18164L188.008 14.6817H181.594Z" fill="#F6F6F6"/>
<path d="M195.053 5.24647C191.085 5.24647 189.372 7.34268 189.09 8.65914L187.021 9.13907L187.171 5.60385L189.279 3.8526H196.498C197.67 4.31722 199.022 5.24647 195.053 5.24647Z" fill="#F6F6F6"/>
<path d="M189.313 14.5326C188.149 14.5326 188.247 13.318 188.344 12.8145L187.458 13.0875L186.807 15.3038L188.332 15.379L190.773 15.1534C190.769 14.9495 190.476 14.5326 189.313 14.5326Z" fill="#F6F6F6"/>
<path d="M223.283 102.124L195.538 102.123C195.086 102.123 194.745 101.722 194.824 101.283L195.049 100.037C195.254 98.9005 196.257 98.0727 197.427 98.0727H224.009L223.283 102.124Z" fill="#F6F6F6"/>
<path d="M220.412 102.124L192.666 102.123C192.215 102.123 191.874 101.722 191.953 101.283L192.178 100.037C192.383 98.9005 193.386 98.0727 194.556 98.0727H221.139L220.412 102.124Z" fill="#F6F6F6"/>
<path d="M180.397 111.385H205.622C206.418 111.385 206.632 112.467 205.894 112.762L196.581 116.482C196.293 116.597 195.985 116.656 195.674 116.656H179.451L180.397 111.385Z" fill="#F6F6F6"/>
<path d="M221.613 111.385C220.906 114.467 218.128 116.656 214.924 116.656H195.412V111.385H221.613Z" fill="#F6F6F6"/>
<path d="M223.31 101.974L221.613 111.389L215.188 111.474L216.896 101.974H223.31Z" fill="#F6F6F6"/>
<path d="M209.851 111.409C213.819 111.409 215.532 109.313 215.814 107.997L217.883 107.517L217.734 111.052L215.626 112.803H208.406C207.235 112.338 205.883 111.409 209.851 111.409Z" fill="#F6F6F6"/>
<path d="M215.591 102.123C216.754 102.123 216.656 103.338 216.559 103.841L217.446 103.569L218.097 101.352L216.571 101.277L214.131 101.503C214.134 101.707 214.427 102.123 215.591 102.123Z" fill="#F6F6F6"/>
<path d="M181.619 104.744H209.365C209.816 104.744 210.157 105.146 210.078 105.584L209.853 106.83C209.648 107.967 208.646 108.795 207.475 108.795H180.893L181.619 104.744Z" fill="#F6F6F6"/>
<path d="M184.49 104.744H212.236C212.687 104.744 213.028 105.146 212.949 105.584L212.724 106.83C212.519 107.967 211.517 108.795 210.346 108.795H183.764L184.49 104.744Z" fill="#F6F6F6"/>
<path d="M224.508 95.483H199.282C198.486 95.483 198.272 94.4007 199.01 94.106L208.324 90.386C208.612 90.271 208.92 90.2119 209.231 90.2119H225.453L224.508 95.483Z" fill="#F6F6F6"/>
<path d="M183.289 95.483C183.996 92.4005 186.773 90.2119 189.978 90.2119H209.49V95.483H183.289Z" fill="#F6F6F6"/>
<path d="M181.594 104.894L183.291 95.4788L189.717 95.3934L188.008 104.894H181.594Z" fill="#F6F6F6"/>
<path d="M195.053 95.4582C191.085 95.4582 189.372 97.5544 189.09 98.871L187.021 99.351L187.171 95.8156L189.279 94.0644H196.498C197.67 94.5291 199.022 95.4582 195.053 95.4582Z" fill="#F6F6F6"/>
<path d="M189.313 104.744C188.149 104.744 188.247 103.53 188.344 103.026L187.458 103.299L186.807 105.516L188.332 105.591L190.773 105.365C190.769 105.161 190.476 104.744 189.313 104.744Z" fill="#F6F6F6"/>
</svg>
