<svg width="214" height="112" viewBox="0 0 214 112" fill="none" xmlns="http://www.w3.org/2000/svg">
<mask id="mask0_1001_3171" style="mask-type:alpha" maskUnits="userSpaceOnUse" x="0" y="0" width="214" height="112">
<path d="M30.5222 101.822L11.3069 101.822C10.9945 101.822 10.758 101.544 10.8128 101.241L10.9686 100.38C11.1108 99.5938 11.8049 99.0215 12.6157 99.0215H31.0253L30.5222 101.822Z" fill="white"/>
<path d="M28.5347 101.822L9.31926 101.822C9.00686 101.822 8.77035 101.544 8.82511 101.241L8.98098 100.38C9.12314 99.5938 9.81726 99.0215 10.6281 99.0215H29.0378L28.5347 101.822Z" fill="white"/>
<path d="M0.821008 108.225H18.2911C18.8425 108.225 18.9906 108.973 18.4795 109.177L12.0293 111.748C11.8298 111.828 11.6165 111.869 11.4013 111.869H0.166199L0.821008 108.225Z" fill="white"/>
<path d="M29.3657 108.225C28.8761 110.356 26.9525 111.869 24.733 111.869H11.2203V108.225H29.3657Z" fill="white"/>
<path d="M30.5412 101.719L29.3655 108.228L24.9156 108.287L26.099 101.719H30.5412Z" fill="white"/>
<path d="M21.2193 108.242C23.9675 108.242 25.1538 106.793 25.3492 105.883L26.7817 105.551L26.6784 107.995L25.2188 109.206H20.2188C19.4072 108.884 18.4711 108.242 21.2193 108.242Z" fill="white"/>
<path d="M25.1953 101.822C26.001 101.822 25.9332 102.661 25.8661 103.009L26.4802 102.821L26.931 101.288L25.8745 101.236L24.1842 101.392C24.1866 101.533 24.3896 101.822 25.1953 101.822Z" fill="white"/>
<path d="M1.66795 103.634H20.8832C21.1958 103.634 21.4321 103.912 21.3775 104.214L21.2215 105.076C21.0795 105.862 20.3853 106.434 19.5744 106.434H1.16473L1.66795 103.634Z" fill="white"/>
<path d="M3.65659 103.634H22.8719C23.1842 103.634 23.4208 103.912 23.3661 104.214L23.2101 105.076C23.0679 105.862 22.3739 106.434 21.5631 106.434H3.15338L3.65659 103.634Z" fill="white"/>
<path d="M31.37 97.2311H13.9C13.3486 97.2311 13.2005 96.4829 13.7116 96.2791L20.1617 93.7073C20.3613 93.6278 20.5745 93.5869 20.7898 93.5869H32.0249L31.37 97.2311Z" fill="white"/>
<path d="M2.82458 97.2311C3.31424 95.1 5.23776 93.5869 7.4572 93.5869H20.9701V97.2311H2.82458Z" fill="white"/>
<path d="M1.64941 103.737L2.8251 97.228L7.27515 97.1689L6.09155 103.737H1.64941Z" fill="white"/>
<path d="M10.9719 97.2136C8.22366 97.2136 7.0374 98.6628 6.84203 99.5731L5.40942 99.9049L5.51286 97.4607L6.97255 96.25H11.9723C12.7839 96.5713 13.7201 97.2136 10.9719 97.2136Z" fill="white"/>
<path d="M6.99528 103.634C6.18959 103.634 6.25736 102.794 6.32455 102.446L5.71037 102.634L5.25964 104.167L6.31604 104.219L8.00629 104.063C8.00394 103.922 7.80093 103.634 6.99528 103.634Z" fill="white"/>
<path d="M46.6941 70.6376L27.4788 70.6374C27.1662 70.6374 26.9299 70.3596 26.9846 70.0567L27.1405 69.1952C27.2825 68.4092 27.9768 67.8369 28.7876 67.8369H47.1972L46.6941 70.6376Z" fill="white"/>
<path d="M44.7064 70.6376L25.4909 70.6374C25.1785 70.6374 24.9419 70.3596 24.9967 70.0567L25.1526 69.1952C25.2948 68.4092 25.9889 67.8369 26.7997 67.8369H45.2095L44.7064 70.6376Z" fill="white"/>
<path d="M16.9928 77.0405H34.4628C35.0142 77.0405 35.1624 77.7887 34.6511 77.9925L28.201 80.5644C28.0016 80.6439 27.7883 80.6849 27.573 80.6849H16.338L16.9928 77.0405Z" fill="white"/>
<path d="M45.5373 77.0405C45.0477 79.1716 43.1242 80.6849 40.9046 80.6849H27.3918V77.0405H45.5373Z" fill="white"/>
<path d="M46.713 70.5342L45.5374 77.0431L41.0875 77.1022L42.2709 70.5342H46.713Z" fill="white"/>
<path d="M37.3911 77.0575C40.1395 77.0575 41.3258 75.6083 41.5212 74.698L42.9536 74.3662L42.8504 76.8104L41.3907 78.0211H36.3907C35.5792 77.6999 34.643 77.0575 37.3911 77.0575Z" fill="white"/>
<path d="M41.3672 70.6375C42.1729 70.6375 42.1051 71.4773 42.0379 71.8254L42.652 71.6367L43.1029 70.1043L42.0464 70.0522L40.3561 70.2084C40.3585 70.3494 40.5614 70.6375 41.3672 70.6375Z" fill="white"/>
<path d="M17.8398 72.4497H37.0552C37.3676 72.4497 37.604 72.7275 37.5492 73.0304L37.3935 73.8919C37.2513 74.6779 36.5572 75.2502 35.7464 75.2502H17.3366L17.8398 72.4497Z" fill="white"/>
<path d="M19.8285 72.4497H39.0437C39.3561 72.4497 39.5927 72.7275 39.538 73.0304L39.382 73.8919C39.2398 74.6779 38.5457 75.2502 37.7349 75.2502H19.3253L19.8285 72.4497Z" fill="white"/>
<path d="M47.5418 66.0465H30.0718C29.5204 66.0465 29.3722 65.2983 29.8833 65.0945L36.3336 62.5227C36.5332 62.4432 36.7463 62.4023 36.9617 62.4023H48.1967L47.5418 66.0465Z" fill="white"/>
<path d="M18.9963 66.0465C19.486 63.9154 21.4095 62.4023 23.629 62.4023H37.1418V66.0465H18.9963Z" fill="white"/>
<path d="M17.8212 72.5529L18.9969 66.0439L23.4469 65.9849L22.2633 72.5529H17.8212Z" fill="white"/>
<path d="M27.1436 66.0296C24.3953 66.0296 23.2092 67.4787 23.0138 68.389L21.5812 68.7208L21.6846 66.2766L23.1443 65.0659H28.1441C28.9558 65.3872 29.892 66.0296 27.1436 66.0296Z" fill="white"/>
<path d="M23.1672 72.4496C22.3615 72.4496 22.4293 71.6098 22.4964 71.2617L21.8822 71.4504L21.4315 72.9828L22.488 73.0348L24.1782 72.8787C24.1758 72.7377 23.9729 72.4496 23.1672 72.4496Z" fill="white"/>
<path d="M71.9487 101.822L52.7335 101.822C52.4209 101.822 52.1845 101.544 52.2392 101.241L52.3952 100.38C52.5372 99.5938 53.2315 99.0215 54.0423 99.0215H72.4518L71.9487 101.822Z" fill="white"/>
<path d="M69.961 101.822L50.7455 101.822C50.4332 101.822 50.1966 101.544 50.2513 101.241L50.4073 100.38C50.5495 99.5938 51.2435 99.0215 52.0544 99.0215H70.4641L69.961 101.822Z" fill="white"/>
<path d="M42.2476 108.225H59.7176C60.269 108.225 60.4172 108.973 59.9059 109.177L53.4558 111.748C53.2564 111.828 53.043 111.869 52.8277 111.869H41.5927L42.2476 108.225Z" fill="white"/>
<path d="M70.7919 108.225C70.3024 110.356 68.3788 111.869 66.1593 111.869H52.6465V108.225H70.7919Z" fill="white"/>
<path d="M71.9677 101.719L70.792 108.228L66.3421 108.287L67.5255 101.719H71.9677Z" fill="white"/>
<path d="M62.6457 108.242C65.394 108.242 66.5803 106.793 66.7757 105.883L68.2082 105.551L68.1049 107.995L66.6453 109.206H61.6453C60.8338 108.884 59.8976 108.242 62.6457 108.242Z" fill="white"/>
<path d="M66.6218 101.822C67.4275 101.822 67.3597 102.661 67.2926 103.009L67.9067 102.821L68.3575 101.288L67.301 101.236L65.6107 101.392C65.6132 101.533 65.8161 101.822 66.6218 101.822Z" fill="white"/>
<path d="M43.0945 103.634H62.31C62.6223 103.634 62.8587 103.912 62.804 104.214L62.6482 105.076C62.506 105.862 61.8119 106.434 61.0011 106.434H42.5914L43.0945 103.634Z" fill="white"/>
<path d="M45.0829 103.634H64.2982C64.6105 103.634 64.8471 103.912 64.7924 104.214L64.6364 105.076C64.4942 105.862 63.8002 106.434 62.9894 106.434H44.5796L45.0829 103.634Z" fill="white"/>
<path d="M72.7965 97.2311H55.3264C54.775 97.2311 54.6268 96.4829 55.1379 96.2791L61.5883 93.7073C61.7879 93.6278 62.001 93.5869 62.2163 93.5869H73.4513L72.7965 97.2311Z" fill="white"/>
<path d="M44.251 97.2311C44.7406 95.1 46.6642 93.5869 48.8837 93.5869H62.3965V97.2311H44.251Z" fill="white"/>
<path d="M43.0757 103.737L44.2514 97.228L48.7015 97.1689L47.5178 103.737H43.0757Z" fill="white"/>
<path d="M52.3984 97.2136C49.6501 97.2136 48.464 98.6628 48.2686 99.5731L46.8359 99.9049L46.9394 97.4607L48.3991 96.25H53.3988C54.2105 96.5713 55.1467 97.2136 52.3984 97.2136Z" fill="white"/>
<path d="M48.4217 103.634C47.616 103.634 47.6838 102.794 47.7509 102.446L47.1369 102.634L46.686 104.167L47.7425 104.219L49.4328 104.063C49.4304 103.922 49.2275 103.634 48.4217 103.634Z" fill="white"/>
<path d="M71.9487 39.4535L52.7335 39.4533C52.4209 39.4533 52.1845 39.1755 52.2392 38.8726L52.3952 38.0111C52.5372 37.2251 53.2315 36.6528 54.0423 36.6528H72.4518L71.9487 39.4535Z" fill="white"/>
<path d="M69.961 39.4535L50.7455 39.4533C50.4332 39.4533 50.1966 39.1755 50.2513 38.8726L50.4073 38.0111C50.5495 37.2251 51.2435 36.6528 52.0544 36.6528H70.4641L69.961 39.4535Z" fill="white"/>
<path d="M42.2476 45.856H59.7176C60.269 45.856 60.4172 46.6042 59.9059 46.808L53.4558 49.3798C53.2564 49.4593 53.043 49.5004 52.8277 49.5004H41.5927L42.2476 45.856Z" fill="white"/>
<path d="M70.7919 45.856C70.3024 47.987 68.3788 49.5004 66.1593 49.5004H52.6465V45.856H70.7919Z" fill="white"/>
<path d="M71.9677 39.3501L70.792 45.8591L66.3421 45.9181L67.5255 39.3501H71.9677Z" fill="white"/>
<path d="M62.6457 45.8734C65.394 45.8734 66.5803 44.4242 66.7757 43.514L68.2082 43.1821L68.1049 45.6264L66.6453 46.8371H61.6453C60.8338 46.5158 59.8976 45.8734 62.6457 45.8734Z" fill="white"/>
<path d="M66.6218 39.4534C67.4275 39.4534 67.3597 40.2932 67.2926 40.6413L67.9067 40.4526L68.3575 38.9202L67.301 38.8682L65.6107 39.0243C65.6132 39.1653 65.8161 39.4534 66.6218 39.4534Z" fill="white"/>
<path d="M43.0945 41.2651H62.31C62.6223 41.2651 62.8587 41.5429 62.804 41.8458L62.6482 42.7073C62.506 43.4933 61.8119 44.0656 61.0011 44.0656H42.5914L43.0945 41.2651Z" fill="white"/>
<path d="M45.0829 41.2651H64.2982C64.6105 41.2651 64.8471 41.5429 64.7924 41.8458L64.6364 42.7073C64.4942 43.4933 63.8002 44.0656 62.9894 44.0656H44.5796L45.0829 41.2651Z" fill="white"/>
<path d="M72.7965 34.8624H55.3264C54.775 34.8624 54.6268 34.1142 55.1379 33.9104L61.5883 31.3386C61.7879 31.2591 62.001 31.2183 62.2163 31.2183H73.4513L72.7965 34.8624Z" fill="white"/>
<path d="M44.251 34.8624C44.7406 32.7314 46.6642 31.2183 48.8837 31.2183H62.3965V34.8624H44.251Z" fill="white"/>
<path d="M43.0757 41.3683L44.2514 34.8594L48.7015 34.8003L47.5178 41.3683H43.0757Z" fill="white"/>
<path d="M52.3984 34.845C49.6501 34.845 48.464 36.2942 48.2686 37.2045L46.8359 37.5363L46.9394 35.092L48.3991 33.8813H53.3988C54.2105 34.2026 55.1467 34.845 52.3984 34.845Z" fill="white"/>
<path d="M48.4217 41.265C47.616 41.265 47.6838 40.4252 47.7509 40.0771L47.1369 40.2658L46.686 41.7982L47.7425 41.8503L49.4328 41.6941C49.4304 41.5531 49.2275 41.265 48.4217 41.265Z" fill="white"/>
<path d="M88.1206 8.26892L68.9053 8.2689C68.5928 8.2689 68.3564 7.99094 68.4111 7.68817L68.5671 6.82654C68.7091 6.04067 69.4033 5.46826 70.2142 5.46826H88.6237L88.1206 8.26892Z" fill="white"/>
<path d="M86.1329 8.26892L66.9174 8.2689C66.6051 8.2689 66.3685 7.99094 66.4232 7.68817L66.5791 6.82654C66.7214 6.04067 67.4154 5.46826 68.2262 5.46826H86.636L86.1329 8.26892Z" fill="white"/>
<path d="M58.4193 14.6719H75.8893C76.4407 14.6719 76.5889 15.4202 76.0776 15.624L69.6275 18.1957C69.4281 18.2753 69.2148 18.3163 68.9995 18.3163H57.7645L58.4193 14.6719Z" fill="white"/>
<path d="M86.9638 14.6719C86.4742 16.8029 84.5507 18.3163 82.3311 18.3163H68.8184V14.6719H86.9638Z" fill="white"/>
<path d="M88.1396 8.16553L86.9639 14.6744L82.514 14.7335L83.6974 8.16553H88.1396Z" fill="white"/>
<path d="M78.8176 14.6887C81.5659 14.6887 82.7522 13.2395 82.9476 12.3294L84.3801 11.9976L84.2768 14.4417L82.8171 15.6524H77.8172C77.0057 15.3312 76.0695 14.6887 78.8176 14.6887Z" fill="white"/>
<path d="M82.7937 8.26876C83.5994 8.26876 83.5316 9.10852 83.4645 9.45662L84.0786 9.26786L84.5294 7.7356L83.4729 7.68359L81.7826 7.83958C81.785 7.98057 81.988 8.26876 82.7937 8.26876Z" fill="white"/>
<path d="M59.2663 10.0806H78.4818C78.7942 10.0806 79.0305 10.3585 78.9758 10.6613L78.8201 11.5229C78.6779 12.3088 77.9838 12.8812 77.173 12.8812H58.7632L59.2663 10.0806Z" fill="white"/>
<path d="M61.2548 10.0806H80.47C80.7824 10.0806 81.019 10.3585 80.9643 10.6613L80.8083 11.5229C80.6661 12.3088 79.972 12.8812 79.1612 12.8812H60.7515L61.2548 10.0806Z" fill="white"/>
<path d="M88.9683 3.67803H71.4983C70.9469 3.67803 70.7987 2.92972 71.3098 2.72592L77.7601 0.154142C77.9597 0.0745894 78.1728 0.0336914 78.3882 0.0336914L89.6232 0.0336936L88.9683 3.67803Z" fill="white"/>
<path d="M60.4229 3.67804C60.9124 1.54688 62.836 0.0336914 65.0555 0.0336914H78.5683V3.67804H60.4229Z" fill="white"/>
<path d="M59.2476 10.1842L60.4232 3.67524L64.8734 3.61621L63.6897 10.1842H59.2476Z" fill="white"/>
<path d="M68.5701 3.66093C65.8218 3.66093 64.6357 5.11016 64.4403 6.02031L63.0077 6.35211L63.1111 3.90801L64.5708 2.69727H69.5706C70.3823 3.01849 71.3185 3.66093 68.5701 3.66093Z" fill="white"/>
<path d="M64.5936 10.0809C63.7879 10.0809 63.8557 9.24119 63.9228 8.89307L63.3087 9.08182L62.8579 10.6141L63.9144 10.6661L65.6047 10.5101C65.6022 10.3691 65.3993 10.0809 64.5936 10.0809Z" fill="white"/>
<path d="M88.1206 70.6376L68.9053 70.6374C68.5928 70.6374 68.3564 70.3596 68.4111 70.0567L68.5671 69.1952C68.7091 68.4092 69.4033 67.8369 70.2142 67.8369H88.6237L88.1206 70.6376Z" fill="white"/>
<path d="M86.1329 70.6376L66.9174 70.6374C66.6051 70.6374 66.3685 70.3596 66.4232 70.0567L66.5791 69.1952C66.7214 68.4092 67.4154 67.8369 68.2262 67.8369H86.636L86.1329 70.6376Z" fill="white"/>
<path d="M58.4193 77.0405H75.8893C76.4407 77.0405 76.5889 77.7887 76.0776 77.9925L69.6275 80.5644C69.4281 80.6439 69.2148 80.6849 68.9995 80.6849H57.7645L58.4193 77.0405Z" fill="white"/>
<path d="M86.9638 77.0405C86.4742 79.1716 84.5507 80.6849 82.3311 80.6849H68.8184V77.0405H86.9638Z" fill="white"/>
<path d="M88.1396 70.5342L86.9639 77.0431L82.514 77.1022L83.6974 70.5342H88.1396Z" fill="white"/>
<path d="M78.8176 77.0575C81.5659 77.0575 82.7522 75.6083 82.9476 74.698L84.3801 74.3662L84.2768 76.8104L82.8171 78.0211H77.8172C77.0057 77.6999 76.0695 77.0575 78.8176 77.0575Z" fill="white"/>
<path d="M82.7937 70.6375C83.5994 70.6375 83.5316 71.4773 83.4645 71.8254L84.0786 71.6367L84.5294 70.1043L83.4729 70.0522L81.7826 70.2084C81.785 70.3494 81.988 70.6375 82.7937 70.6375Z" fill="white"/>
<path d="M59.2663 72.4497H78.4818C78.7942 72.4497 79.0305 72.7275 78.9758 73.0304L78.8201 73.8919C78.6779 74.6779 77.9838 75.2502 77.173 75.2502H58.7632L59.2663 72.4497Z" fill="white"/>
<path d="M61.2548 72.4497H80.47C80.7824 72.4497 81.019 72.7275 80.9643 73.0304L80.8083 73.8919C80.6661 74.6779 79.972 75.2502 79.1612 75.2502H60.7515L61.2548 72.4497Z" fill="white"/>
<path d="M88.9683 66.0465H71.4983C70.9469 66.0465 70.7987 65.2983 71.3098 65.0945L77.7601 62.5227C77.9597 62.4432 78.1728 62.4023 78.3882 62.4023H89.6232L88.9683 66.0465Z" fill="white"/>
<path d="M60.4229 66.0465C60.9124 63.9154 62.836 62.4023 65.0555 62.4023H78.5683V66.0465H60.4229Z" fill="white"/>
<path d="M59.2476 72.5529L60.4232 66.0439L64.8734 65.9849L63.6897 72.5529H59.2476Z" fill="white"/>
<path d="M68.5701 66.0296C65.8218 66.0296 64.6357 67.4787 64.4403 68.389L63.0077 68.7208L63.1111 66.2766L64.5708 65.0659H69.5706C70.3823 65.3872 71.3185 66.0296 68.5701 66.0296Z" fill="white"/>
<path d="M64.5936 72.4496C63.7879 72.4496 63.8557 71.6098 63.9228 71.2617L63.3087 71.4504L62.8579 72.9828L63.9144 73.0348L65.6047 72.8787C65.6022 72.7377 65.3993 72.4496 64.5936 72.4496Z" fill="white"/>
<path d="M196.228 101.822L177.013 101.822C176.7 101.822 176.464 101.544 176.519 101.241L176.675 100.38C176.817 99.5938 177.511 99.0215 178.322 99.0215H196.731L196.228 101.822Z" fill="white"/>
<path d="M194.241 101.822L175.025 101.822C174.713 101.822 174.476 101.544 174.531 101.241L174.687 100.38C174.829 99.5938 175.523 99.0215 176.334 99.0215H194.744L194.241 101.822Z" fill="white"/>
<path d="M166.527 108.225H183.997C184.548 108.225 184.697 108.973 184.185 109.177L177.735 111.748C177.536 111.828 177.322 111.869 177.107 111.869H165.872L166.527 108.225Z" fill="white"/>
<path d="M195.071 108.225C194.582 110.356 192.658 111.869 190.439 111.869H176.926V108.225H195.071Z" fill="white"/>
<path d="M196.247 101.719L195.071 108.228L190.622 108.287L191.805 101.719H196.247Z" fill="white"/>
<path d="M186.925 108.242C189.674 108.242 190.86 106.793 191.055 105.883L192.488 105.551L192.384 107.995L190.925 109.206H185.925C185.113 108.884 184.177 108.242 186.925 108.242Z" fill="white"/>
<path d="M190.901 101.822C191.707 101.822 191.639 102.661 191.572 103.009L192.186 102.821L192.637 101.288L191.581 101.236L189.89 101.392C189.893 101.533 190.096 101.822 190.901 101.822Z" fill="white"/>
<path d="M167.374 103.634H186.589C186.902 103.634 187.138 103.912 187.083 104.214L186.928 105.076C186.785 105.862 186.091 106.434 185.281 106.434H166.871L167.374 103.634Z" fill="white"/>
<path d="M169.362 103.634H188.578C188.89 103.634 189.127 103.912 189.072 104.214L188.916 105.076C188.774 105.862 188.08 106.434 187.269 106.434H168.859L169.362 103.634Z" fill="white"/>
<path d="M197.076 97.2311H179.606C179.055 97.2311 178.906 96.4829 179.417 96.2791L185.868 93.7073C186.067 93.6278 186.28 93.5869 186.496 93.5869H197.731L197.076 97.2311Z" fill="white"/>
<path d="M168.531 97.2311C169.02 95.1 170.944 93.5869 173.163 93.5869H186.676V97.2311H168.531Z" fill="white"/>
<path d="M167.355 103.737L168.531 97.228L172.981 97.1689L171.797 103.737H167.355Z" fill="white"/>
<path d="M176.678 97.2136C173.93 97.2136 172.744 98.6628 172.548 99.5731L171.115 99.9049L171.219 97.4607L172.679 96.25H177.678C178.49 96.5713 179.426 97.2136 176.678 97.2136Z" fill="white"/>
<path d="M172.701 103.634C171.896 103.634 171.963 102.794 172.03 102.446L171.416 102.634L170.966 104.167L172.022 104.219L173.712 104.063C173.71 103.922 173.507 103.634 172.701 103.634Z" fill="white"/>
<path d="M196.228 39.4535L177.013 39.4533C176.7 39.4533 176.464 39.1755 176.519 38.8726L176.675 38.0111C176.817 37.2251 177.511 36.6528 178.322 36.6528H196.731L196.228 39.4535Z" fill="white"/>
<path d="M194.241 39.4535L175.025 39.4533C174.713 39.4533 174.476 39.1755 174.531 38.8726L174.687 38.0111C174.829 37.2251 175.523 36.6528 176.334 36.6528H194.744L194.241 39.4535Z" fill="white"/>
<path d="M166.527 45.856H183.997C184.548 45.856 184.697 46.6042 184.185 46.808L177.735 49.3798C177.536 49.4593 177.322 49.5004 177.107 49.5004H165.872L166.527 45.856Z" fill="white"/>
<path d="M195.071 45.856C194.582 47.987 192.658 49.5004 190.439 49.5004H176.926V45.856H195.071Z" fill="white"/>
<path d="M196.247 39.3501L195.071 45.8591L190.622 45.9181L191.805 39.3501H196.247Z" fill="white"/>
<path d="M186.925 45.8734C189.674 45.8734 190.86 44.4242 191.055 43.514L192.488 43.1821L192.384 45.6264L190.925 46.8371H185.925C185.113 46.5158 184.177 45.8734 186.925 45.8734Z" fill="white"/>
<path d="M190.901 39.4534C191.707 39.4534 191.639 40.2932 191.572 40.6413L192.186 40.4526L192.637 38.9202L191.581 38.8682L189.89 39.0243C189.893 39.1653 190.096 39.4534 190.901 39.4534Z" fill="white"/>
<path d="M167.374 41.2651H186.589C186.902 41.2651 187.138 41.5429 187.083 41.8458L186.928 42.7073C186.785 43.4933 186.091 44.0656 185.281 44.0656H166.871L167.374 41.2651Z" fill="white"/>
<path d="M169.362 41.2651H188.578C188.89 41.2651 189.127 41.5429 189.072 41.8458L188.916 42.7073C188.774 43.4933 188.08 44.0656 187.269 44.0656H168.859L169.362 41.2651Z" fill="white"/>
<path d="M197.076 34.8624H179.606C179.055 34.8624 178.906 34.1142 179.417 33.9104L185.868 31.3386C186.067 31.2591 186.28 31.2183 186.496 31.2183H197.731L197.076 34.8624Z" fill="white"/>
<path d="M168.531 34.8624C169.02 32.7314 170.944 31.2183 173.163 31.2183H186.676V34.8624H168.531Z" fill="white"/>
<path d="M167.355 41.3683L168.531 34.8594L172.981 34.8003L171.797 41.3683H167.355Z" fill="white"/>
<path d="M176.678 34.845C173.93 34.845 172.744 36.2942 172.548 37.2045L171.115 37.5363L171.219 35.092L172.679 33.8813H177.678C178.49 34.2026 179.426 34.845 176.678 34.845Z" fill="white"/>
<path d="M172.701 41.265C171.896 41.265 171.963 40.4252 172.03 40.0771L171.416 40.2658L170.966 41.7982L172.022 41.8503L173.712 41.6941C173.71 41.5531 173.507 41.265 172.701 41.265Z" fill="white"/>
<path d="M212.4 8.26892L193.185 8.2689C192.872 8.2689 192.636 7.99094 192.691 7.68817L192.847 6.82654C192.989 6.04067 193.683 5.46826 194.494 5.46826H212.903L212.4 8.26892Z" fill="white"/>
<path d="M210.412 8.26892L191.197 8.2689C190.885 8.2689 190.648 7.99094 190.703 7.68817L190.859 6.82654C191.001 6.04067 191.695 5.46826 192.506 5.46826H210.916L210.412 8.26892Z" fill="white"/>
<path d="M182.699 14.6719H200.169C200.72 14.6719 200.868 15.4202 200.357 15.624L193.907 18.1957C193.708 18.2753 193.494 18.3163 193.279 18.3163H182.044L182.699 14.6719Z" fill="white"/>
<path d="M211.243 14.6719C210.754 16.8029 208.83 18.3163 206.611 18.3163H193.098V14.6719H211.243Z" fill="white"/>
<path d="M212.419 8.16553L211.243 14.6744L206.793 14.7335L207.977 8.16553H212.419Z" fill="white"/>
<path d="M203.097 14.6887C205.845 14.6887 207.032 13.2395 207.227 12.3294L208.659 11.9976L208.556 14.4417L207.097 15.6524H202.097C201.285 15.3312 200.349 14.6887 203.097 14.6887Z" fill="white"/>
<path d="M207.073 8.26876C207.879 8.26876 207.811 9.10852 207.744 9.45662L208.358 9.26786L208.809 7.7356L207.752 7.68359L206.062 7.83958C206.065 7.98057 206.267 8.26876 207.073 8.26876Z" fill="white"/>
<path d="M183.546 10.0806H202.761C203.074 10.0806 203.31 10.3585 203.255 10.6613L203.1 11.5229C202.957 12.3088 202.263 12.8812 201.452 12.8812H183.043L183.546 10.0806Z" fill="white"/>
<path d="M185.534 10.0806H204.75C205.062 10.0806 205.299 10.3585 205.244 10.6613L205.088 11.5229C204.946 12.3088 204.252 12.8812 203.441 12.8812H185.031L185.534 10.0806Z" fill="white"/>
<path d="M213.248 3.67803H195.778C195.226 3.67803 195.078 2.92972 195.589 2.72592L202.04 0.154142C202.239 0.0745894 202.452 0.0336914 202.668 0.0336914L213.903 0.0336936L213.248 3.67803Z" fill="white"/>
<path d="M184.702 3.67804C185.192 1.54688 187.115 0.0336914 189.335 0.0336914H202.848V3.67804H184.702Z" fill="white"/>
<path d="M183.527 10.1842L184.703 3.67524L189.153 3.61621L187.969 10.1842H183.527Z" fill="white"/>
<path d="M192.85 3.66093C190.101 3.66093 188.915 5.11016 188.72 6.02031L187.287 6.35211L187.391 3.90801L188.85 2.69727H193.85C194.662 3.01849 195.598 3.66093 192.85 3.66093Z" fill="white"/>
<path d="M188.873 10.0809C188.067 10.0809 188.135 9.24119 188.202 8.89307L187.588 9.08182L187.137 10.6141L188.194 10.6661L189.884 10.5101C189.882 10.3691 189.679 10.0809 188.873 10.0809Z" fill="white"/>
<path d="M212.4 70.6376L193.185 70.6374C192.872 70.6374 192.636 70.3596 192.691 70.0567L192.847 69.1952C192.989 68.4092 193.683 67.8369 194.494 67.8369H212.903L212.4 70.6376Z" fill="white"/>
<path d="M210.412 70.6376L191.197 70.6374C190.885 70.6374 190.648 70.3596 190.703 70.0567L190.859 69.1952C191.001 68.4092 191.695 67.8369 192.506 67.8369H210.916L210.412 70.6376Z" fill="white"/>
<path d="M182.699 77.0405H200.169C200.72 77.0405 200.868 77.7887 200.357 77.9925L193.907 80.5644C193.708 80.6439 193.494 80.6849 193.279 80.6849H182.044L182.699 77.0405Z" fill="white"/>
<path d="M211.243 77.0405C210.754 79.1716 208.83 80.6849 206.611 80.6849H193.098V77.0405H211.243Z" fill="white"/>
<path d="M212.419 70.5342L211.243 77.0431L206.793 77.1022L207.977 70.5342H212.419Z" fill="white"/>
<path d="M203.097 77.0575C205.845 77.0575 207.032 75.6083 207.227 74.698L208.659 74.3662L208.556 76.8104L207.097 78.0211H202.097C201.285 77.6999 200.349 77.0575 203.097 77.0575Z" fill="white"/>
<path d="M207.073 70.6375C207.879 70.6375 207.811 71.4773 207.744 71.8254L208.358 71.6367L208.809 70.1043L207.752 70.0522L206.062 70.2084C206.065 70.3494 206.267 70.6375 207.073 70.6375Z" fill="white"/>
<path d="M183.546 72.4497H202.761C203.074 72.4497 203.31 72.7275 203.255 73.0304L203.1 73.8919C202.957 74.6779 202.263 75.2502 201.452 75.2502H183.043L183.546 72.4497Z" fill="white"/>
<path d="M185.534 72.4497H204.75C205.062 72.4497 205.299 72.7275 205.244 73.0304L205.088 73.8919C204.946 74.6779 204.252 75.2502 203.441 75.2502H185.031L185.534 72.4497Z" fill="white"/>
<path d="M213.248 66.0465H195.778C195.226 66.0465 195.078 65.2983 195.589 65.0945L202.04 62.5227C202.239 62.4432 202.452 62.4023 202.668 62.4023H213.903L213.248 66.0465Z" fill="white"/>
<path d="M184.702 66.0465C185.192 63.9154 187.115 62.4023 189.335 62.4023H202.848V66.0465H184.702Z" fill="white"/>
<path d="M183.527 72.5529L184.703 66.0439L189.153 65.9849L187.969 72.5529H183.527Z" fill="white"/>
<path d="M192.85 66.0296C190.101 66.0296 188.915 67.4787 188.72 68.389L187.287 68.7208L187.391 66.2766L188.85 65.0659H193.85C194.662 65.3872 195.598 66.0296 192.85 66.0296Z" fill="white"/>
<path d="M188.873 72.4496C188.067 72.4496 188.135 71.6098 188.202 71.2617L187.588 71.4504L187.137 72.9828L188.194 73.0348L189.884 72.8787C189.882 72.7377 189.679 72.4496 188.873 72.4496Z" fill="white"/>
<path d="M113.375 101.822L94.16 101.822C93.8474 101.822 93.611 101.544 93.6657 101.241L93.8217 100.38C93.9637 99.5938 94.658 99.0215 95.4688 99.0215H113.878L113.375 101.822Z" fill="white"/>
<path d="M111.388 101.822L92.1721 101.822C91.8597 101.822 91.6231 101.544 91.6778 101.241L91.8338 100.38C91.976 99.5938 92.6701 99.0215 93.4809 99.0215H111.891L111.388 101.822Z" fill="white"/>
<path d="M83.674 108.225H101.144C101.695 108.225 101.844 108.973 101.332 109.177L94.8822 111.748C94.6828 111.828 94.4695 111.869 94.2542 111.869H83.0192L83.674 108.225Z" fill="white"/>
<path d="M112.218 108.225C111.729 110.356 109.805 111.869 107.586 111.869H94.073V108.225H112.218Z" fill="white"/>
<path d="M113.394 101.719L112.219 108.228L107.769 108.287L108.952 101.719H113.394Z" fill="white"/>
<path d="M104.072 108.242C106.821 108.242 108.007 106.793 108.202 105.883L109.635 105.551L109.531 107.995L108.072 109.206H103.072C102.26 108.884 101.324 108.242 104.072 108.242Z" fill="white"/>
<path d="M108.048 101.822C108.854 101.822 108.786 102.661 108.719 103.009L109.333 102.821L109.784 101.288L108.728 101.236L107.037 101.392C107.04 101.533 107.243 101.822 108.048 101.822Z" fill="white"/>
<path d="M84.521 103.634H103.736C104.049 103.634 104.285 103.912 104.23 104.214L104.075 105.076C103.933 105.862 103.238 106.434 102.428 106.434H84.0179L84.521 103.634Z" fill="white"/>
<path d="M86.5094 103.634H105.725C106.037 103.634 106.274 103.912 106.219 104.214L106.063 105.076C105.921 105.862 105.227 106.434 104.416 106.434H86.0061L86.5094 103.634Z" fill="white"/>
<path d="M114.223 97.2311H96.7529C96.2015 97.2311 96.0533 96.4829 96.5644 96.2791L103.015 93.7073C103.214 93.6278 103.427 93.5869 103.643 93.5869H114.878L114.223 97.2311Z" fill="white"/>
<path d="M85.6776 97.2311C86.1671 95.1 88.0907 93.5869 90.3102 93.5869H103.823V97.2311H85.6776Z" fill="white"/>
<path d="M84.5022 103.737L85.6779 97.228L90.128 97.1689L88.9443 103.737H84.5022Z" fill="white"/>
<path d="M93.8249 97.2136C91.0766 97.2136 89.8905 98.6628 89.6951 99.5731L88.2625 99.9049L88.3659 97.4607L89.8256 96.25H94.8253C95.637 96.5713 96.5732 97.2136 93.8249 97.2136Z" fill="white"/>
<path d="M89.8483 103.634C89.0425 103.634 89.1103 102.794 89.1775 102.446L88.5634 102.634L88.1125 104.167L89.169 104.219L90.8593 104.063C90.8569 103.922 90.654 103.634 89.8483 103.634Z" fill="white"/>
<path d="M113.375 39.4535L94.16 39.4533C93.8474 39.4533 93.611 39.1755 93.6657 38.8726L93.8217 38.0111C93.9637 37.2251 94.658 36.6528 95.4688 36.6528H113.878L113.375 39.4535Z" fill="white"/>
<path d="M111.388 39.4535L92.1721 39.4533C91.8597 39.4533 91.6231 39.1755 91.6778 38.8726L91.8338 38.0111C91.976 37.2251 92.6701 36.6528 93.4809 36.6528H111.891L111.388 39.4535Z" fill="white"/>
<path d="M83.674 45.856H101.144C101.695 45.856 101.844 46.6042 101.332 46.808L94.8822 49.3798C94.6828 49.4593 94.4695 49.5004 94.2542 49.5004H83.0192L83.674 45.856Z" fill="white"/>
<path d="M112.218 45.856C111.729 47.987 109.805 49.5004 107.586 49.5004H94.073V45.856H112.218Z" fill="white"/>
<path d="M113.394 39.3501L112.219 45.8591L107.769 45.9181L108.952 39.3501H113.394Z" fill="white"/>
<path d="M104.072 45.8734C106.821 45.8734 108.007 44.4242 108.202 43.514L109.635 43.1821L109.531 45.6264L108.072 46.8371H103.072C102.26 46.5158 101.324 45.8734 104.072 45.8734Z" fill="white"/>
<path d="M108.048 39.4534C108.854 39.4534 108.786 40.2932 108.719 40.6413L109.333 40.4526L109.784 38.9202L108.728 38.8682L107.037 39.0243C107.04 39.1653 107.243 39.4534 108.048 39.4534Z" fill="white"/>
<path d="M84.521 41.2651H103.736C104.049 41.2651 104.285 41.5429 104.23 41.8458L104.075 42.7073C103.933 43.4933 103.238 44.0656 102.428 44.0656H84.0179L84.521 41.2651Z" fill="white"/>
<path d="M86.5094 41.2651H105.725C106.037 41.2651 106.274 41.5429 106.219 41.8458L106.063 42.7073C105.921 43.4933 105.227 44.0656 104.416 44.0656H86.0061L86.5094 41.2651Z" fill="white"/>
<path d="M114.223 34.8624H96.7529C96.2015 34.8624 96.0533 34.1142 96.5644 33.9104L103.015 31.3386C103.214 31.2591 103.427 31.2183 103.643 31.2183H114.878L114.223 34.8624Z" fill="white"/>
<path d="M85.6776 34.8624C86.1671 32.7314 88.0907 31.2183 90.3102 31.2183H103.823V34.8624H85.6776Z" fill="white"/>
<path d="M84.5022 41.3683L85.6779 34.8594L90.128 34.8003L88.9443 41.3683H84.5022Z" fill="white"/>
<path d="M93.8249 34.845C91.0766 34.845 89.8905 36.2942 89.6951 37.2045L88.2625 37.5363L88.3659 35.092L89.8256 33.8813H94.8253C95.637 34.2026 96.5732 34.845 93.8249 34.845Z" fill="white"/>
<path d="M89.8483 41.265C89.0425 41.265 89.1103 40.4252 89.1775 40.0771L88.5634 40.2658L88.1125 41.7982L89.169 41.8503L90.8593 41.6941C90.8569 41.5531 90.654 41.265 89.8483 41.265Z" fill="white"/>
<path d="M129.547 8.26892L110.332 8.2689C110.019 8.2689 109.783 7.99094 109.838 7.68817L109.994 6.82654C110.136 6.04067 110.83 5.46826 111.641 5.46826H130.05L129.547 8.26892Z" fill="white"/>
<path d="M127.559 8.26892L108.344 8.2689C108.032 8.2689 107.795 7.99094 107.85 7.68817L108.006 6.82654C108.148 6.04067 108.842 5.46826 109.653 5.46826H128.062L127.559 8.26892Z" fill="white"/>
<path d="M99.8458 14.6719H117.316C117.867 14.6719 118.015 15.4202 117.504 15.624L111.054 18.1957C110.855 18.2753 110.641 18.3163 110.426 18.3163H99.191L99.8458 14.6719Z" fill="white"/>
<path d="M128.39 14.6719C127.901 16.8029 125.977 18.3163 123.758 18.3163H110.245V14.6719H128.39Z" fill="white"/>
<path d="M129.566 8.16553L128.39 14.6744L123.94 14.7335L125.124 8.16553H129.566Z" fill="white"/>
<path d="M120.244 14.6887C122.992 14.6887 124.179 13.2395 124.374 12.3294L125.807 11.9976L125.703 14.4417L124.244 15.6524H119.244C118.432 15.3312 117.496 14.6887 120.244 14.6887Z" fill="white"/>
<path d="M124.22 8.26876C125.026 8.26876 124.958 9.10852 124.891 9.45662L125.505 9.26786L125.956 7.7356L124.899 7.68359L123.209 7.83958C123.212 7.98057 123.414 8.26876 124.22 8.26876Z" fill="white"/>
<path d="M100.693 10.0806H119.908C120.221 10.0806 120.457 10.3585 120.402 10.6613L120.247 11.5229C120.104 12.3088 119.41 12.8812 118.6 12.8812H100.19L100.693 10.0806Z" fill="white"/>
<path d="M102.681 10.0806H121.897C122.209 10.0806 122.445 10.3585 122.391 10.6613L122.235 11.5229C122.093 12.3088 121.399 12.8812 120.588 12.8812H102.178L102.681 10.0806Z" fill="white"/>
<path d="M130.395 3.67803H112.925C112.373 3.67803 112.225 2.92972 112.736 2.72592L119.187 0.154142C119.386 0.0745894 119.599 0.0336914 119.815 0.0336914L131.05 0.0336936L130.395 3.67803Z" fill="white"/>
<path d="M101.849 3.67804C102.339 1.54688 104.263 0.0336914 106.482 0.0336914H119.995V3.67804H101.849Z" fill="white"/>
<path d="M100.674 10.1842L101.85 3.67524L106.3 3.61621L105.116 10.1842H100.674Z" fill="white"/>
<path d="M109.997 3.66093C107.248 3.66093 106.062 5.11016 105.867 6.02031L104.434 6.35211L104.538 3.90801L105.997 2.69727H110.997C111.809 3.01849 112.745 3.66093 109.997 3.66093Z" fill="white"/>
<path d="M106.02 10.0809C105.214 10.0809 105.282 9.24119 105.349 8.89307L104.735 9.08182L104.284 10.6141L105.341 10.6661L107.031 10.5101C107.029 10.3691 106.826 10.0809 106.02 10.0809Z" fill="white"/>
<path d="M129.547 70.6376L110.332 70.6374C110.019 70.6374 109.783 70.3596 109.838 70.0567L109.994 69.1952C110.136 68.4092 110.83 67.8369 111.641 67.8369H130.05L129.547 70.6376Z" fill="white"/>
<path d="M127.559 70.6376L108.344 70.6374C108.032 70.6374 107.795 70.3596 107.85 70.0567L108.006 69.1952C108.148 68.4092 108.842 67.8369 109.653 67.8369H128.062L127.559 70.6376Z" fill="white"/>
<path d="M99.8458 77.0405H117.316C117.867 77.0405 118.015 77.7887 117.504 77.9925L111.054 80.5644C110.855 80.6439 110.641 80.6849 110.426 80.6849H99.191L99.8458 77.0405Z" fill="white"/>
<path d="M128.39 77.0405C127.901 79.1716 125.977 80.6849 123.758 80.6849H110.245V77.0405H128.39Z" fill="white"/>
<path d="M129.566 70.5342L128.39 77.0431L123.94 77.1022L125.124 70.5342H129.566Z" fill="white"/>
<path d="M120.244 77.0575C122.992 77.0575 124.179 75.6083 124.374 74.698L125.807 74.3662L125.703 76.8104L124.244 78.0211H119.244C118.432 77.6999 117.496 77.0575 120.244 77.0575Z" fill="white"/>
<path d="M124.22 70.6375C125.026 70.6375 124.958 71.4773 124.891 71.8254L125.505 71.6367L125.956 70.1043L124.899 70.0522L123.209 70.2084C123.212 70.3494 123.414 70.6375 124.22 70.6375Z" fill="white"/>
<path d="M100.693 72.4497H119.908C120.221 72.4497 120.457 72.7275 120.402 73.0304L120.247 73.8919C120.104 74.6779 119.41 75.2502 118.6 75.2502H100.19L100.693 72.4497Z" fill="white"/>
<path d="M102.681 72.4497H121.897C122.209 72.4497 122.445 72.7275 122.391 73.0304L122.235 73.8919C122.093 74.6779 121.399 75.2502 120.588 75.2502H102.178L102.681 72.4497Z" fill="white"/>
<path d="M130.395 66.0465H112.925C112.373 66.0465 112.225 65.2983 112.736 65.0945L119.187 62.5227C119.386 62.4432 119.599 62.4023 119.815 62.4023H131.05L130.395 66.0465Z" fill="white"/>
<path d="M101.849 66.0465C102.339 63.9154 104.263 62.4023 106.482 62.4023H119.995V66.0465H101.849Z" fill="white"/>
<path d="M100.674 72.5529L101.85 66.0439L106.3 65.9849L105.116 72.5529H100.674Z" fill="white"/>
<path d="M109.997 66.0296C107.248 66.0296 106.062 67.4787 105.867 68.389L104.434 68.7208L104.538 66.2766L105.997 65.0659H110.997C111.809 65.3872 112.745 66.0296 109.997 66.0296Z" fill="white"/>
<path d="M106.02 72.4496C105.214 72.4496 105.282 71.6098 105.349 71.2617L104.735 71.4504L104.284 72.9828L105.341 73.0348L107.031 72.8787C107.029 72.7377 106.826 72.4496 106.02 72.4496Z" fill="white"/>
<path d="M154.802 101.822L135.586 101.822C135.274 101.822 135.038 101.544 135.092 101.241L135.248 100.38C135.39 99.5938 136.084 99.0215 136.895 99.0215H155.305L154.802 101.822Z" fill="white"/>
<path d="M152.814 101.822L133.599 101.822C133.286 101.822 133.05 101.544 133.104 101.241L133.26 100.38C133.403 99.5938 134.097 99.0215 134.907 99.0215H153.317L152.814 101.822Z" fill="white"/>
<path d="M125.101 108.225H142.571C143.122 108.225 143.27 108.973 142.759 109.177L136.309 111.748C136.109 111.828 135.896 111.869 135.681 111.869H124.446L125.101 108.225Z" fill="white"/>
<path d="M153.645 108.225C153.155 110.356 151.232 111.869 149.012 111.869H135.5V108.225H153.645Z" fill="white"/>
<path d="M154.821 101.719L153.645 108.228L149.195 108.287L150.378 101.719H154.821Z" fill="white"/>
<path d="M145.499 108.242C148.247 108.242 149.433 106.793 149.629 105.883L151.061 105.551L150.958 107.995L149.498 109.206H144.498C143.687 108.884 142.751 108.242 145.499 108.242Z" fill="white"/>
<path d="M149.475 101.822C150.281 101.822 150.213 102.661 150.146 103.009L150.76 102.821L151.211 101.288L150.154 101.236L148.464 101.392C148.466 101.533 148.669 101.822 149.475 101.822Z" fill="white"/>
<path d="M125.947 103.634H145.163C145.475 103.634 145.712 103.912 145.657 104.214L145.501 105.076C145.359 105.862 144.665 106.434 143.854 106.434H125.444L125.947 103.634Z" fill="white"/>
<path d="M127.936 103.634H147.151C147.464 103.634 147.7 103.912 147.645 104.214L147.489 105.076C147.347 105.862 146.653 106.434 145.842 106.434H127.433L127.936 103.634Z" fill="white"/>
<path d="M155.649 97.2311H138.179C137.628 97.2311 137.48 96.4829 137.991 96.2791L144.441 93.7073C144.641 93.6278 144.854 93.5869 145.069 93.5869H156.304L155.649 97.2311Z" fill="white"/>
<path d="M127.104 97.2311C127.594 95.1 129.517 93.5869 131.737 93.5869H145.25V97.2311H127.104Z" fill="white"/>
<path d="M125.929 103.737L127.104 97.228L131.555 97.1689L130.371 103.737H125.929Z" fill="white"/>
<path d="M135.251 97.2136C132.503 97.2136 131.317 98.6628 131.122 99.5731L129.689 99.9049L129.792 97.4607L131.252 96.25H136.252C137.064 96.5713 138 97.2136 135.251 97.2136Z" fill="white"/>
<path d="M131.275 103.634C130.469 103.634 130.537 102.794 130.604 102.446L129.99 102.634L129.539 104.167L130.596 104.219L132.286 104.063C132.283 103.922 132.08 103.634 131.275 103.634Z" fill="white"/>
<path d="M154.802 39.4535L135.586 39.4533C135.274 39.4533 135.038 39.1755 135.092 38.8726L135.248 38.0111C135.39 37.2251 136.084 36.6528 136.895 36.6528H155.305L154.802 39.4535Z" fill="white"/>
<path d="M152.814 39.4535L133.599 39.4533C133.286 39.4533 133.05 39.1755 133.104 38.8726L133.26 38.0111C133.403 37.2251 134.097 36.6528 134.907 36.6528H153.317L152.814 39.4535Z" fill="white"/>
<path d="M125.101 45.856H142.571C143.122 45.856 143.27 46.6042 142.759 46.808L136.309 49.3798C136.109 49.4593 135.896 49.5004 135.681 49.5004H124.446L125.101 45.856Z" fill="white"/>
<path d="M153.645 45.856C153.155 47.987 151.232 49.5004 149.012 49.5004H135.5V45.856H153.645Z" fill="white"/>
<path d="M154.821 39.3501L153.645 45.8591L149.195 45.9181L150.378 39.3501H154.821Z" fill="white"/>
<path d="M145.499 45.8734C148.247 45.8734 149.433 44.4242 149.629 43.514L151.061 43.1821L150.958 45.6264L149.498 46.8371H144.498C143.687 46.5158 142.751 45.8734 145.499 45.8734Z" fill="white"/>
<path d="M149.475 39.4534C150.281 39.4534 150.213 40.2932 150.146 40.6413L150.76 40.4526L151.211 38.9202L150.154 38.8682L148.464 39.0243C148.466 39.1653 148.669 39.4534 149.475 39.4534Z" fill="white"/>
<path d="M125.947 41.2651H145.163C145.475 41.2651 145.712 41.5429 145.657 41.8458L145.501 42.7073C145.359 43.4933 144.665 44.0656 143.854 44.0656H125.444L125.947 41.2651Z" fill="white"/>
<path d="M127.936 41.2651H147.151C147.464 41.2651 147.7 41.5429 147.645 41.8458L147.489 42.7073C147.347 43.4933 146.653 44.0656 145.842 44.0656H127.433L127.936 41.2651Z" fill="white"/>
<path d="M155.649 34.8624H138.179C137.628 34.8624 137.48 34.1142 137.991 33.9104L144.441 31.3386C144.641 31.2591 144.854 31.2183 145.069 31.2183H156.304L155.649 34.8624Z" fill="white"/>
<path d="M127.104 34.8624C127.594 32.7314 129.517 31.2183 131.737 31.2183H145.25V34.8624H127.104Z" fill="white"/>
<path d="M125.929 41.3683L127.104 34.8594L131.555 34.8003L130.371 41.3683H125.929Z" fill="white"/>
<path d="M135.251 34.845C132.503 34.845 131.317 36.2942 131.122 37.2045L129.689 37.5363L129.792 35.092L131.252 33.8813H136.252C137.064 34.2026 138 34.845 135.251 34.845Z" fill="white"/>
<path d="M131.275 41.265C130.469 41.265 130.537 40.4252 130.604 40.0771L129.99 40.2658L129.539 41.7982L130.596 41.8503L132.286 41.6941C132.283 41.5531 132.08 41.265 131.275 41.265Z" fill="white"/>
<path d="M170.974 8.26892L151.758 8.2689C151.446 8.2689 151.209 7.99094 151.264 7.68817L151.42 6.82654C151.562 6.04067 152.256 5.46826 153.067 5.46826H171.477L170.974 8.26892Z" fill="white"/>
<path d="M168.986 8.26892L149.77 8.2689C149.458 8.2689 149.221 7.99094 149.276 7.68817L149.432 6.82654C149.574 6.04067 150.268 5.46826 151.079 5.46826H169.489L168.986 8.26892Z" fill="white"/>
<path d="M141.272 14.6719H158.742C159.294 14.6719 159.442 15.4202 158.931 15.624L152.48 18.1957C152.281 18.2753 152.068 18.3163 151.852 18.3163H140.617L141.272 14.6719Z" fill="white"/>
<path d="M169.817 14.6719C169.327 16.8029 167.404 18.3163 165.184 18.3163H151.671V14.6719H169.817Z" fill="white"/>
<path d="M170.993 8.16553L169.817 14.6744L165.367 14.7335L166.55 8.16553H170.993Z" fill="white"/>
<path d="M161.67 14.6887C164.419 14.6887 165.605 13.2395 165.801 12.3294L167.233 11.9976L167.13 14.4417L165.67 15.6524H160.67C159.859 15.3312 158.922 14.6887 161.67 14.6887Z" fill="white"/>
<path d="M165.647 8.26876C166.452 8.26876 166.385 9.10852 166.317 9.45662L166.932 9.26786L167.382 7.7356L166.326 7.68359L164.636 7.83958C164.638 7.98057 164.841 8.26876 165.647 8.26876Z" fill="white"/>
<path d="M142.119 10.0806H161.335C161.647 10.0806 161.884 10.3585 161.829 10.6613L161.673 11.5229C161.531 12.3088 160.837 12.8812 160.026 12.8812H141.616L142.119 10.0806Z" fill="white"/>
<path d="M144.108 10.0806H163.323C163.635 10.0806 163.872 10.3585 163.817 10.6613L163.661 11.5229C163.519 12.3088 162.825 12.8812 162.014 12.8812H143.604L144.108 10.0806Z" fill="white"/>
<path d="M171.821 3.67803H154.351C153.8 3.67803 153.652 2.92972 154.163 2.72592L160.613 0.154142C160.813 0.0745894 161.026 0.0336914 161.241 0.0336914L172.476 0.0336936L171.821 3.67803Z" fill="white"/>
<path d="M143.276 3.67804C143.765 1.54688 145.689 0.0336914 147.908 0.0336914H161.421V3.67804H143.276Z" fill="white"/>
<path d="M142.101 10.1842L143.276 3.67524L147.726 3.61621L146.543 10.1842H142.101Z" fill="white"/>
<path d="M151.423 3.66093C148.675 3.66093 147.489 5.11016 147.293 6.02031L145.861 6.35211L145.964 3.90801L147.424 2.69727H152.424C153.235 3.01849 154.171 3.66093 151.423 3.66093Z" fill="white"/>
<path d="M147.447 10.0809C146.641 10.0809 146.709 9.24119 146.776 8.89307L146.162 9.08182L145.711 10.6141L146.767 10.6661L148.458 10.5101C148.455 10.3691 148.252 10.0809 147.447 10.0809Z" fill="white"/>
<path d="M170.974 70.6376L151.758 70.6374C151.446 70.6374 151.209 70.3596 151.264 70.0567L151.42 69.1952C151.562 68.4092 152.256 67.8369 153.067 67.8369H171.477L170.974 70.6376Z" fill="white"/>
<path d="M168.986 70.6376L149.77 70.6374C149.458 70.6374 149.221 70.3596 149.276 70.0567L149.432 69.1952C149.574 68.4092 150.268 67.8369 151.079 67.8369H169.489L168.986 70.6376Z" fill="white"/>
<path d="M141.272 77.0405H158.742C159.294 77.0405 159.442 77.7887 158.931 77.9925L152.48 80.5644C152.281 80.6439 152.068 80.6849 151.852 80.6849H140.617L141.272 77.0405Z" fill="white"/>
<path d="M169.817 77.0405C169.327 79.1716 167.404 80.6849 165.184 80.6849H151.671V77.0405H169.817Z" fill="white"/>
<path d="M170.993 70.5342L169.817 77.0431L165.367 77.1022L166.55 70.5342H170.993Z" fill="white"/>
<path d="M161.67 77.0575C164.419 77.0575 165.605 75.6083 165.801 74.698L167.233 74.3662L167.13 76.8104L165.67 78.0211H160.67C159.859 77.6999 158.922 77.0575 161.67 77.0575Z" fill="white"/>
<path d="M165.647 70.6375C166.452 70.6375 166.385 71.4773 166.317 71.8254L166.932 71.6367L167.382 70.1043L166.326 70.0522L164.636 70.2084C164.638 70.3494 164.841 70.6375 165.647 70.6375Z" fill="white"/>
<path d="M142.119 72.4497H161.335C161.647 72.4497 161.884 72.7275 161.829 73.0304L161.673 73.8919C161.531 74.6779 160.837 75.2502 160.026 75.2502H141.616L142.119 72.4497Z" fill="white"/>
<path d="M144.108 72.4497H163.323C163.635 72.4497 163.872 72.7275 163.817 73.0304L163.661 73.8919C163.519 74.6779 162.825 75.2502 162.014 75.2502H143.604L144.108 72.4497Z" fill="white"/>
<path d="M171.821 66.0465H154.351C153.8 66.0465 153.652 65.2983 154.163 65.0945L160.613 62.5227C160.813 62.4432 161.026 62.4023 161.241 62.4023H172.476L171.821 66.0465Z" fill="white"/>
<path d="M143.276 66.0465C143.765 63.9154 145.689 62.4023 147.908 62.4023H161.421V66.0465H143.276Z" fill="white"/>
<path d="M142.101 72.5529L143.276 66.0439L147.726 65.9849L146.543 72.5529H142.101Z" fill="white"/>
<path d="M151.423 66.0296C148.675 66.0296 147.489 67.4787 147.293 68.389L145.861 68.7208L145.964 66.2766L147.424 65.0659H152.424C153.235 65.3872 154.171 66.0296 151.423 66.0296Z" fill="white"/>
<path d="M147.447 72.4496C146.641 72.4496 146.709 71.6098 146.776 71.2617L146.162 71.4504L145.711 72.9828L146.767 73.0348L148.458 72.8787C148.455 72.7377 148.252 72.4496 147.447 72.4496Z" fill="white"/>
</mask>
<g mask="url(#mask0_1001_3171)">
<rect x="-137" y="-62" width="206" height="187" fill="white"/>
</g>
</svg>
