<svg width="351" height="187" viewBox="0 0 351 187" fill="none" xmlns="http://www.w3.org/2000/svg">
<rect width="206" height="187" fill="#ECEBEE"/>
<mask id="mask0_1_260" style="mask-type:alpha" maskUnits="userSpaceOnUse" x="137" y="50" width="214" height="112">
<path d="M167.522 151.822L148.307 151.822C147.995 151.822 147.758 151.544 147.813 151.241L147.969 150.38C148.111 149.594 148.805 149.021 149.616 149.021H168.025L167.522 151.822Z" fill="white"/>
<path d="M165.535 151.822L146.319 151.822C146.007 151.822 145.77 151.544 145.825 151.241L145.981 150.38C146.123 149.594 146.817 149.021 147.628 149.021H166.038L165.535 151.822Z" fill="white"/>
<path d="M137.821 158.225H155.291C155.842 158.225 155.991 158.973 155.479 159.177L149.029 161.749C148.83 161.828 148.617 161.869 148.401 161.869H137.166L137.821 158.225Z" fill="white"/>
<path d="M166.366 158.225C165.876 160.356 163.952 161.869 161.733 161.869H148.22V158.225H166.366Z" fill="white"/>
<path d="M167.541 151.719L166.366 158.228L161.916 158.287L163.099 151.719H167.541Z" fill="white"/>
<path d="M158.219 158.242C160.968 158.242 162.154 156.793 162.349 155.882L163.782 155.551L163.678 157.995L162.219 159.206H157.219C156.407 158.884 155.471 158.242 158.219 158.242Z" fill="white"/>
<path d="M162.195 151.822C163.001 151.822 162.933 152.662 162.866 153.01L163.48 152.821L163.931 151.289L162.874 151.237L161.184 151.393C161.187 151.534 161.39 151.822 162.195 151.822Z" fill="white"/>
<path d="M138.668 153.634H157.883C158.196 153.634 158.432 153.912 158.377 154.214L158.222 155.076C158.079 155.862 157.385 156.434 156.574 156.434H138.165L138.668 153.634Z" fill="white"/>
<path d="M140.657 153.634H159.872C160.184 153.634 160.421 153.912 160.366 154.214L160.21 155.076C160.068 155.862 159.374 156.434 158.563 156.434H140.153L140.657 153.634Z" fill="white"/>
<path d="M168.37 147.231H150.9C150.349 147.231 150.201 146.483 150.712 146.279L157.162 143.707C157.361 143.628 157.575 143.587 157.79 143.587H169.025L168.37 147.231Z" fill="white"/>
<path d="M139.825 147.231C140.314 145.1 142.238 143.587 144.457 143.587H157.97V147.231H139.825Z" fill="white"/>
<path d="M138.649 153.737L139.825 147.228L144.275 147.169L143.092 153.737H138.649Z" fill="white"/>
<path d="M147.972 147.214C145.224 147.214 144.037 148.663 143.842 149.573L142.409 149.905L142.513 147.461L143.973 146.25H148.972C149.784 146.571 150.72 147.214 147.972 147.214Z" fill="white"/>
<path d="M143.995 153.634C143.19 153.634 143.257 152.794 143.325 152.446L142.71 152.635L142.26 154.167L143.316 154.219L145.006 154.063C145.004 153.922 144.801 153.634 143.995 153.634Z" fill="white"/>
<path d="M183.694 120.638L164.479 120.638C164.166 120.638 163.93 120.36 163.985 120.057L164.141 119.195C164.283 118.409 164.977 117.837 165.788 117.837H184.197L183.694 120.638Z" fill="white"/>
<path d="M181.706 120.638L162.491 120.638C162.179 120.638 161.942 120.36 161.997 120.057L162.153 119.195C162.295 118.409 162.989 117.837 163.8 117.837H182.209L181.706 120.638Z" fill="white"/>
<path d="M153.993 127.04H171.463C172.014 127.04 172.162 127.789 171.651 127.992L165.201 130.564C165.002 130.644 164.788 130.685 164.573 130.685H153.338L153.993 127.04Z" fill="white"/>
<path d="M182.537 127.04C182.048 129.171 180.124 130.685 177.905 130.685H164.392V127.04H182.537Z" fill="white"/>
<path d="M183.713 120.534L182.537 127.043L178.087 127.102L179.271 120.534H183.713Z" fill="white"/>
<path d="M174.391 127.058C177.139 127.058 178.326 125.608 178.521 124.698L179.954 124.366L179.85 126.81L178.391 128.021H173.391C172.579 127.7 171.643 127.058 174.391 127.058Z" fill="white"/>
<path d="M178.367 120.638C179.173 120.638 179.105 121.477 179.038 121.825L179.652 121.637L180.103 120.104L179.046 120.052L177.356 120.208C177.359 120.349 177.561 120.638 178.367 120.638Z" fill="white"/>
<path d="M154.84 122.45H174.055C174.368 122.45 174.604 122.727 174.549 123.03L174.393 123.892C174.251 124.678 173.557 125.25 172.746 125.25H154.337L154.84 122.45Z" fill="white"/>
<path d="M156.828 122.45H176.044C176.356 122.45 176.593 122.727 176.538 123.03L176.382 123.892C176.24 124.678 175.546 125.25 174.735 125.25H156.325L156.828 122.45Z" fill="white"/>
<path d="M184.542 116.047H167.072C166.52 116.047 166.372 115.298 166.883 115.095L173.334 112.523C173.533 112.443 173.746 112.402 173.962 112.402H185.197L184.542 116.047Z" fill="white"/>
<path d="M155.996 116.047C156.486 113.916 158.41 112.402 160.629 112.402H174.142V116.047H155.996Z" fill="white"/>
<path d="M154.821 122.553L155.997 116.044L160.447 115.985L159.263 122.553H154.821Z" fill="white"/>
<path d="M164.144 116.03C161.395 116.03 160.209 117.479 160.014 118.389L158.581 118.721L158.685 116.277L160.144 115.066H165.144C165.956 115.387 166.892 116.03 164.144 116.03Z" fill="white"/>
<path d="M160.167 122.45C159.361 122.45 159.429 121.61 159.496 121.262L158.882 121.45L158.432 122.983L159.488 123.035L161.178 122.879C161.176 122.738 160.973 122.45 160.167 122.45Z" fill="white"/>
<path d="M208.949 151.822L189.733 151.822C189.421 151.822 189.184 151.544 189.239 151.241L189.395 150.38C189.537 149.594 190.231 149.021 191.042 149.021H209.452L208.949 151.822Z" fill="white"/>
<path d="M206.961 151.822L187.746 151.822C187.433 151.822 187.197 151.544 187.251 151.241L187.407 150.38C187.549 149.594 188.244 149.021 189.054 149.021H207.464L206.961 151.822Z" fill="white"/>
<path d="M179.248 158.225H196.718C197.269 158.225 197.417 158.973 196.906 159.177L190.456 161.749C190.256 161.828 190.043 161.869 189.828 161.869H178.593L179.248 158.225Z" fill="white"/>
<path d="M207.792 158.225C207.302 160.356 205.379 161.869 203.159 161.869H189.646V158.225H207.792Z" fill="white"/>
<path d="M208.968 151.719L207.792 158.228L203.342 158.287L204.526 151.719H208.968Z" fill="white"/>
<path d="M199.646 158.242C202.394 158.242 203.58 156.793 203.776 155.882L205.208 155.551L205.105 157.995L203.645 159.206H198.645C197.834 158.884 196.898 158.242 199.646 158.242Z" fill="white"/>
<path d="M203.622 151.822C204.427 151.822 204.36 152.662 204.293 153.01L204.907 152.821L205.357 151.289L204.301 151.237L202.611 151.393C202.613 151.534 202.816 151.822 203.622 151.822Z" fill="white"/>
<path d="M180.094 153.634H199.31C199.622 153.634 199.859 153.912 199.804 154.214L199.648 155.076C199.506 155.862 198.812 156.434 198.001 156.434H179.591L180.094 153.634Z" fill="white"/>
<path d="M182.083 153.634H201.298C201.611 153.634 201.847 153.912 201.792 154.214L201.636 155.076C201.494 155.862 200.8 156.434 199.989 156.434H181.58L182.083 153.634Z" fill="white"/>
<path d="M209.796 147.231H192.326C191.775 147.231 191.627 146.483 192.138 146.279L198.588 143.707C198.788 143.628 199.001 143.587 199.216 143.587H210.451L209.796 147.231Z" fill="white"/>
<path d="M181.251 147.231C181.741 145.1 183.664 143.587 185.884 143.587H199.397V147.231H181.251Z" fill="white"/>
<path d="M180.076 153.737L181.251 147.228L185.701 147.169L184.518 153.737H180.076Z" fill="white"/>
<path d="M189.398 147.214C186.65 147.214 185.464 148.663 185.269 149.573L183.836 149.905L183.939 147.461L185.399 146.25H190.399C191.21 146.571 192.147 147.214 189.398 147.214Z" fill="white"/>
<path d="M185.422 153.634C184.616 153.634 184.684 152.794 184.751 152.446L184.137 152.635L183.686 154.167L184.743 154.219L186.433 154.063C186.43 153.922 186.227 153.634 185.422 153.634Z" fill="white"/>
<path d="M208.949 89.4534L189.733 89.4532C189.421 89.4532 189.184 89.1754 189.239 88.8726L189.395 88.011C189.537 87.2251 190.231 86.6528 191.042 86.6528H209.452L208.949 89.4534Z" fill="white"/>
<path d="M206.961 89.4534L187.746 89.4532C187.433 89.4532 187.197 89.1754 187.251 88.8726L187.407 88.011C187.549 87.2251 188.244 86.6528 189.054 86.6528H207.464L206.961 89.4534Z" fill="white"/>
<path d="M179.248 95.8561H196.718C197.269 95.8561 197.417 96.6043 196.906 96.8081L190.456 99.3799C190.256 99.4594 190.043 99.5005 189.828 99.5005H178.593L179.248 95.8561Z" fill="white"/>
<path d="M207.792 95.8561C207.302 97.9872 205.379 99.5005 203.159 99.5005H189.646V95.8561H207.792Z" fill="white"/>
<path d="M208.968 89.35L207.792 95.859L203.342 95.918L204.526 89.35H208.968Z" fill="white"/>
<path d="M199.646 95.8732C202.394 95.8732 203.58 94.424 203.776 93.5138L205.208 93.1819L205.105 95.6262L203.645 96.8369H198.645C197.834 96.5156 196.898 95.8732 199.646 95.8732Z" fill="white"/>
<path d="M203.622 89.4532C204.427 89.4532 204.36 90.293 204.293 90.6411L204.907 90.4524L205.357 88.92L204.301 88.868L202.611 89.0241C202.613 89.1651 202.816 89.4532 203.622 89.4532Z" fill="white"/>
<path d="M180.094 91.2652H199.31C199.622 91.2652 199.859 91.543 199.804 91.8458L199.648 92.7074C199.506 93.4933 198.812 94.0656 198.001 94.0656H179.591L180.094 91.2652Z" fill="white"/>
<path d="M182.083 91.2652H201.298C201.611 91.2652 201.847 91.543 201.792 91.8458L201.636 92.7074C201.494 93.4933 200.8 94.0656 199.989 94.0656H181.58L182.083 91.2652Z" fill="white"/>
<path d="M209.796 84.8623H192.326C191.775 84.8623 191.627 84.1141 192.138 83.9103L198.588 81.3385C198.788 81.259 199.001 81.2181 199.216 81.2181H210.451L209.796 84.8623Z" fill="white"/>
<path d="M181.251 84.8623C181.741 82.7312 183.664 81.2181 185.884 81.2181H199.397V84.8623H181.251Z" fill="white"/>
<path d="M180.076 91.3684L181.251 84.8595L185.701 84.8004L184.518 91.3684H180.076Z" fill="white"/>
<path d="M189.398 84.8452C186.65 84.8452 185.464 86.2944 185.269 87.2046L183.836 87.5365L183.939 85.0922L185.399 83.8815H190.399C191.21 84.2028 192.147 84.8452 189.398 84.8452Z" fill="white"/>
<path d="M185.422 91.2652C184.616 91.2652 184.684 90.4254 184.751 90.0773L184.137 90.266L183.686 91.7984L184.743 91.8504L186.433 91.6943C186.43 91.5533 186.227 91.2652 185.422 91.2652Z" fill="white"/>
<path d="M225.121 58.269L205.905 58.269C205.593 58.269 205.356 57.991 205.411 57.6882L205.567 56.8266C205.709 56.0407 206.403 55.4683 207.214 55.4683H225.624L225.121 58.269Z" fill="white"/>
<path d="M223.133 58.269L203.917 58.269C203.605 58.269 203.368 57.991 203.423 57.6882L203.579 56.8266C203.721 56.0407 204.415 55.4683 205.226 55.4683H223.636L223.133 58.269Z" fill="white"/>
<path d="M195.419 64.6717H212.889C213.441 64.6717 213.589 65.42 213.078 65.6238L206.628 68.1956C206.428 68.2751 206.215 68.3161 205.999 68.3161H194.764L195.419 64.6717Z" fill="white"/>
<path d="M223.964 64.6717C223.474 66.8028 221.551 68.3161 219.331 68.3161H205.818V64.6717H223.964Z" fill="white"/>
<path d="M225.14 58.1657L223.964 64.6746L219.514 64.7336L220.697 58.1657H225.14Z" fill="white"/>
<path d="M215.818 64.6888C218.566 64.6888 219.752 63.2396 219.948 62.3295L221.38 61.9977L221.277 64.4418L219.817 65.6525H214.817C214.006 65.3313 213.07 64.6888 215.818 64.6888Z" fill="white"/>
<path d="M219.794 58.2689C220.599 58.2689 220.532 59.1086 220.464 59.4567L221.079 59.268L221.529 57.7357L220.473 57.6837L218.783 57.8397C218.785 57.9807 218.988 58.2689 219.794 58.2689Z" fill="white"/>
<path d="M196.266 60.0808H215.482C215.794 60.0808 216.031 60.3587 215.976 60.6615L215.82 61.5232C215.678 62.309 214.984 62.8814 214.173 62.8814H195.763L196.266 60.0808Z" fill="white"/>
<path d="M198.255 60.0808H217.47C217.782 60.0808 218.019 60.3587 217.964 60.6615L217.808 61.5232C217.666 62.309 216.972 62.8814 216.161 62.8814H197.751L198.255 60.0808Z" fill="white"/>
<path d="M225.968 53.6781H208.498C207.947 53.6781 207.799 52.9297 208.31 52.7259L214.76 50.1542C214.96 50.0746 215.173 50.0337 215.388 50.0337L226.623 50.0337L225.968 53.6781Z" fill="white"/>
<path d="M197.423 53.6781C197.912 51.5469 199.836 50.0337 202.056 50.0337H215.568V53.6781H197.423Z" fill="white"/>
<path d="M196.248 60.1841L197.423 53.6752L201.873 53.6162L200.69 60.1841H196.248Z" fill="white"/>
<path d="M205.57 53.6609C202.822 53.6609 201.636 55.1101 201.44 56.0203L200.008 56.3521L200.111 53.908L201.571 52.6972H206.571C207.382 53.0185 208.318 53.6609 205.57 53.6609Z" fill="white"/>
<path d="M201.594 60.0809C200.788 60.0809 200.856 59.2411 200.923 58.893L200.309 59.0818L199.858 60.614L200.914 60.666L202.605 60.51C202.602 60.369 202.399 60.0809 201.594 60.0809Z" fill="white"/>
<path d="M225.121 120.638L205.905 120.638C205.593 120.638 205.356 120.36 205.411 120.057L205.567 119.195C205.709 118.409 206.403 117.837 207.214 117.837H225.624L225.121 120.638Z" fill="white"/>
<path d="M223.133 120.638L203.917 120.638C203.605 120.638 203.368 120.36 203.423 120.057L203.579 119.195C203.721 118.409 204.415 117.837 205.226 117.837H223.636L223.133 120.638Z" fill="white"/>
<path d="M195.419 127.04H212.889C213.441 127.04 213.589 127.789 213.078 127.992L206.628 130.564C206.428 130.644 206.215 130.685 205.999 130.685H194.764L195.419 127.04Z" fill="white"/>
<path d="M223.964 127.04C223.474 129.171 221.551 130.685 219.331 130.685H205.818V127.04H223.964Z" fill="white"/>
<path d="M225.14 120.534L223.964 127.043L219.514 127.102L220.697 120.534H225.14Z" fill="white"/>
<path d="M215.818 127.058C218.566 127.058 219.752 125.608 219.948 124.698L221.38 124.366L221.277 126.81L219.817 128.021H214.817C214.006 127.7 213.07 127.058 215.818 127.058Z" fill="white"/>
<path d="M219.794 120.638C220.599 120.638 220.532 121.477 220.464 121.825L221.079 121.637L221.529 120.104L220.473 120.052L218.783 120.208C218.785 120.349 218.988 120.638 219.794 120.638Z" fill="white"/>
<path d="M196.266 122.45H215.482C215.794 122.45 216.031 122.727 215.976 123.03L215.82 123.892C215.678 124.678 214.984 125.25 214.173 125.25H195.763L196.266 122.45Z" fill="white"/>
<path d="M198.255 122.45H217.47C217.782 122.45 218.019 122.727 217.964 123.03L217.808 123.892C217.666 124.678 216.972 125.25 216.161 125.25H197.751L198.255 122.45Z" fill="white"/>
<path d="M225.968 116.047H208.498C207.947 116.047 207.799 115.298 208.31 115.095L214.76 112.523C214.96 112.443 215.173 112.402 215.388 112.402H226.623L225.968 116.047Z" fill="white"/>
<path d="M197.423 116.047C197.912 113.916 199.836 112.402 202.056 112.402H215.568V116.047H197.423Z" fill="white"/>
<path d="M196.248 122.553L197.423 116.044L201.873 115.985L200.69 122.553H196.248Z" fill="white"/>
<path d="M205.57 116.03C202.822 116.03 201.636 117.479 201.44 118.389L200.008 118.721L200.111 116.277L201.571 115.066H206.571C207.382 115.387 208.318 116.03 205.57 116.03Z" fill="white"/>
<path d="M201.594 122.45C200.788 122.45 200.856 121.61 200.923 121.262L200.309 121.45L199.858 122.983L200.914 123.035L202.605 122.879C202.602 122.738 202.399 122.45 201.594 122.45Z" fill="white"/>
<path d="M333.228 151.822L314.013 151.822C313.7 151.822 313.464 151.544 313.519 151.241L313.675 150.38C313.817 149.594 314.511 149.021 315.322 149.021H333.731L333.228 151.822Z" fill="white"/>
<path d="M331.241 151.822L312.025 151.822C311.713 151.822 311.476 151.544 311.531 151.241L311.687 150.38C311.829 149.594 312.523 149.021 313.334 149.021H331.744L331.241 151.822Z" fill="white"/>
<path d="M303.527 158.225H320.997C321.548 158.225 321.697 158.973 321.185 159.177L314.735 161.749C314.536 161.828 314.322 161.869 314.107 161.869H302.872L303.527 158.225Z" fill="white"/>
<path d="M332.072 158.225C331.582 160.356 329.658 161.869 327.439 161.869H313.926V158.225H332.072Z" fill="white"/>
<path d="M333.247 151.719L332.072 158.228L327.622 158.287L328.805 151.719H333.247Z" fill="white"/>
<path d="M323.925 158.242C326.674 158.242 327.86 156.793 328.055 155.882L329.488 155.551L329.384 157.995L327.925 159.206H322.925C322.113 158.884 321.177 158.242 323.925 158.242Z" fill="white"/>
<path d="M327.901 151.822C328.707 151.822 328.639 152.662 328.572 153.01L329.186 152.821L329.637 151.289L328.581 151.237L326.89 151.393C326.893 151.534 327.096 151.822 327.901 151.822Z" fill="white"/>
<path d="M304.374 153.634H323.589C323.902 153.634 324.138 153.912 324.083 154.214L323.928 155.076C323.785 155.862 323.091 156.434 322.281 156.434H303.871L304.374 153.634Z" fill="white"/>
<path d="M306.362 153.634H325.578C325.89 153.634 326.127 153.912 326.072 154.214L325.916 155.076C325.774 155.862 325.08 156.434 324.269 156.434H305.859L306.362 153.634Z" fill="white"/>
<path d="M334.076 147.231H316.606C316.055 147.231 315.906 146.483 316.417 146.279L322.868 143.707C323.067 143.628 323.28 143.587 323.496 143.587H334.731L334.076 147.231Z" fill="white"/>
<path d="M305.531 147.231C306.02 145.1 307.944 143.587 310.163 143.587H323.676V147.231H305.531Z" fill="white"/>
<path d="M304.355 153.737L305.531 147.228L309.981 147.169L308.797 153.737H304.355Z" fill="white"/>
<path d="M313.678 147.214C310.93 147.214 309.744 148.663 309.548 149.573L308.115 149.905L308.219 147.461L309.679 146.25H314.678C315.49 146.571 316.426 147.214 313.678 147.214Z" fill="white"/>
<path d="M309.701 153.634C308.896 153.634 308.963 152.794 309.03 152.446L308.416 152.635L307.966 154.167L309.022 154.219L310.712 154.063C310.71 153.922 310.507 153.634 309.701 153.634Z" fill="white"/>
<path d="M333.228 89.4534L314.013 89.4532C313.7 89.4532 313.464 89.1754 313.519 88.8726L313.675 88.011C313.817 87.2251 314.511 86.6528 315.322 86.6528H333.731L333.228 89.4534Z" fill="white"/>
<path d="M331.241 89.4534L312.025 89.4532C311.713 89.4532 311.476 89.1754 311.531 88.8726L311.687 88.011C311.829 87.2251 312.523 86.6528 313.334 86.6528H331.744L331.241 89.4534Z" fill="white"/>
<path d="M303.527 95.8561H320.997C321.548 95.8561 321.697 96.6043 321.185 96.8081L314.735 99.3799C314.536 99.4594 314.322 99.5005 314.107 99.5005H302.872L303.527 95.8561Z" fill="white"/>
<path d="M332.072 95.8561C331.582 97.9872 329.658 99.5005 327.439 99.5005H313.926V95.8561H332.072Z" fill="white"/>
<path d="M333.247 89.35L332.072 95.859L327.622 95.918L328.805 89.35H333.247Z" fill="white"/>
<path d="M323.925 95.8732C326.674 95.8732 327.86 94.424 328.055 93.5138L329.488 93.1819L329.384 95.6262L327.925 96.8369H322.925C322.113 96.5156 321.177 95.8732 323.925 95.8732Z" fill="white"/>
<path d="M327.901 89.4532C328.707 89.4532 328.639 90.293 328.572 90.6411L329.186 90.4524L329.637 88.92L328.581 88.868L326.89 89.0241C326.893 89.1651 327.096 89.4532 327.901 89.4532Z" fill="white"/>
<path d="M304.374 91.2652H323.589C323.902 91.2652 324.138 91.543 324.083 91.8458L323.928 92.7074C323.785 93.4933 323.091 94.0656 322.281 94.0656H303.871L304.374 91.2652Z" fill="white"/>
<path d="M306.362 91.2652H325.578C325.89 91.2652 326.127 91.543 326.072 91.8458L325.916 92.7074C325.774 93.4933 325.08 94.0656 324.269 94.0656H305.859L306.362 91.2652Z" fill="white"/>
<path d="M334.076 84.8623H316.606C316.055 84.8623 315.906 84.1141 316.417 83.9103L322.868 81.3385C323.067 81.259 323.28 81.2181 323.496 81.2181H334.731L334.076 84.8623Z" fill="white"/>
<path d="M305.531 84.8623C306.02 82.7312 307.944 81.2181 310.163 81.2181H323.676V84.8623H305.531Z" fill="white"/>
<path d="M304.355 91.3684L305.531 84.8595L309.981 84.8004L308.797 91.3684H304.355Z" fill="white"/>
<path d="M313.678 84.8452C310.93 84.8452 309.744 86.2944 309.548 87.2046L308.115 87.5365L308.219 85.0922L309.679 83.8815H314.678C315.49 84.2028 316.426 84.8452 313.678 84.8452Z" fill="white"/>
<path d="M309.701 91.2652C308.896 91.2652 308.963 90.4254 309.03 90.0773L308.416 90.266L307.966 91.7984L309.022 91.8504L310.712 91.6943C310.71 91.5533 310.507 91.2652 309.701 91.2652Z" fill="white"/>
<path d="M349.4 58.269L330.185 58.269C329.872 58.269 329.636 57.991 329.691 57.6882L329.847 56.8266C329.989 56.0407 330.683 55.4683 331.494 55.4683H349.903L349.4 58.269Z" fill="white"/>
<path d="M347.412 58.269L328.197 58.269C327.885 58.269 327.648 57.991 327.703 57.6882L327.859 56.8266C328.001 56.0407 328.695 55.4683 329.506 55.4683H347.916L347.412 58.269Z" fill="white"/>
<path d="M319.699 64.6717H337.169C337.72 64.6717 337.868 65.42 337.357 65.6238L330.907 68.1956C330.708 68.2751 330.494 68.3161 330.279 68.3161H319.044L319.699 64.6717Z" fill="white"/>
<path d="M348.243 64.6717C347.754 66.8028 345.83 68.3161 343.611 68.3161H330.098V64.6717H348.243Z" fill="white"/>
<path d="M349.419 58.1657L348.243 64.6746L343.793 64.7336L344.977 58.1657H349.419Z" fill="white"/>
<path d="M340.097 64.6888C342.845 64.6888 344.032 63.2396 344.227 62.3295L345.659 61.9977L345.556 64.4418L344.097 65.6525H339.097C338.285 65.3313 337.349 64.6888 340.097 64.6888Z" fill="white"/>
<path d="M344.073 58.2689C344.879 58.2689 344.811 59.1086 344.744 59.4567L345.358 59.268L345.809 57.7357L344.752 57.6837L343.062 57.8397C343.065 57.9807 343.267 58.2689 344.073 58.2689Z" fill="white"/>
<path d="M320.546 60.0808H339.761C340.074 60.0808 340.31 60.3587 340.255 60.6615L340.1 61.5232C339.957 62.309 339.263 62.8814 338.453 62.8814H320.043L320.546 60.0808Z" fill="white"/>
<path d="M322.534 60.0808H341.75C342.062 60.0808 342.299 60.3587 342.244 60.6615L342.088 61.5232C341.946 62.309 341.252 62.8814 340.441 62.8814H322.031L322.534 60.0808Z" fill="white"/>
<path d="M350.248 53.6781H332.778C332.226 53.6781 332.078 52.9297 332.589 52.7259L339.04 50.1542C339.239 50.0746 339.452 50.0337 339.668 50.0337L350.903 50.0337L350.248 53.6781Z" fill="white"/>
<path d="M321.702 53.6781C322.192 51.5469 324.115 50.0337 326.335 50.0337H339.848V53.6781H321.702Z" fill="white"/>
<path d="M320.527 60.1841L321.703 53.6752L326.153 53.6162L324.969 60.1841H320.527Z" fill="white"/>
<path d="M329.85 53.6609C327.101 53.6609 325.915 55.1101 325.72 56.0203L324.287 56.3521L324.391 53.908L325.85 52.6972H330.85C331.662 53.0185 332.598 53.6609 329.85 53.6609Z" fill="white"/>
<path d="M325.873 60.0809C325.067 60.0809 325.135 59.2411 325.202 58.893L324.588 59.0818L324.137 60.614L325.194 60.666L326.884 60.51C326.882 60.369 326.679 60.0809 325.873 60.0809Z" fill="white"/>
<path d="M349.4 120.638L330.185 120.638C329.872 120.638 329.636 120.36 329.691 120.057L329.847 119.195C329.989 118.409 330.683 117.837 331.494 117.837H349.903L349.4 120.638Z" fill="white"/>
<path d="M347.412 120.638L328.197 120.638C327.885 120.638 327.648 120.36 327.703 120.057L327.859 119.195C328.001 118.409 328.695 117.837 329.506 117.837H347.916L347.412 120.638Z" fill="white"/>
<path d="M319.699 127.04H337.169C337.72 127.04 337.868 127.789 337.357 127.992L330.907 130.564C330.708 130.644 330.494 130.685 330.279 130.685H319.044L319.699 127.04Z" fill="white"/>
<path d="M348.243 127.04C347.754 129.171 345.83 130.685 343.611 130.685H330.098V127.04H348.243Z" fill="white"/>
<path d="M349.419 120.534L348.243 127.043L343.793 127.102L344.977 120.534H349.419Z" fill="white"/>
<path d="M340.097 127.058C342.845 127.058 344.032 125.608 344.227 124.698L345.659 124.366L345.556 126.81L344.097 128.021H339.097C338.285 127.7 337.349 127.058 340.097 127.058Z" fill="white"/>
<path d="M344.073 120.638C344.879 120.638 344.811 121.477 344.744 121.825L345.358 121.637L345.809 120.104L344.752 120.052L343.062 120.208C343.065 120.349 343.267 120.638 344.073 120.638Z" fill="white"/>
<path d="M320.546 122.45H339.761C340.074 122.45 340.31 122.727 340.255 123.03L340.1 123.892C339.957 124.678 339.263 125.25 338.453 125.25H320.043L320.546 122.45Z" fill="white"/>
<path d="M322.534 122.45H341.75C342.062 122.45 342.299 122.727 342.244 123.03L342.088 123.892C341.946 124.678 341.252 125.25 340.441 125.25H322.031L322.534 122.45Z" fill="white"/>
<path d="M350.248 116.047H332.778C332.226 116.047 332.078 115.298 332.589 115.095L339.04 112.523C339.239 112.443 339.452 112.402 339.668 112.402H350.903L350.248 116.047Z" fill="white"/>
<path d="M321.702 116.047C322.192 113.916 324.115 112.402 326.335 112.402H339.848V116.047H321.702Z" fill="white"/>
<path d="M320.527 122.553L321.703 116.044L326.153 115.985L324.969 122.553H320.527Z" fill="white"/>
<path d="M329.85 116.03C327.101 116.03 325.915 117.479 325.72 118.389L324.287 118.721L324.391 116.277L325.85 115.066H330.85C331.662 115.387 332.598 116.03 329.85 116.03Z" fill="white"/>
<path d="M325.873 122.45C325.067 122.45 325.135 121.61 325.202 121.262L324.588 121.45L324.137 122.983L325.194 123.035L326.884 122.879C326.882 122.738 326.679 122.45 325.873 122.45Z" fill="white"/>
<path d="M250.375 151.822L231.16 151.822C230.847 151.822 230.611 151.544 230.666 151.241L230.822 150.38C230.964 149.594 231.658 149.021 232.469 149.021H250.878L250.375 151.822Z" fill="white"/>
<path d="M248.388 151.822L229.172 151.822C228.86 151.822 228.623 151.544 228.678 151.241L228.834 150.38C228.976 149.594 229.67 149.021 230.481 149.021H248.891L248.388 151.822Z" fill="white"/>
<path d="M220.674 158.225H238.144C238.695 158.225 238.844 158.973 238.332 159.177L231.882 161.749C231.683 161.828 231.47 161.869 231.254 161.869H220.019L220.674 158.225Z" fill="white"/>
<path d="M249.218 158.225C248.729 160.356 246.805 161.869 244.586 161.869H231.073V158.225H249.218Z" fill="white"/>
<path d="M250.394 151.719L249.219 158.228L244.769 158.287L245.952 151.719H250.394Z" fill="white"/>
<path d="M241.072 158.242C243.821 158.242 245.007 156.793 245.202 155.882L246.635 155.551L246.531 157.995L245.072 159.206H240.072C239.26 158.884 238.324 158.242 241.072 158.242Z" fill="white"/>
<path d="M245.048 151.822C245.854 151.822 245.786 152.662 245.719 153.01L246.333 152.821L246.784 151.289L245.728 151.237L244.037 151.393C244.04 151.534 244.243 151.822 245.048 151.822Z" fill="white"/>
<path d="M221.521 153.634H240.736C241.049 153.634 241.285 153.912 241.23 154.214L241.075 155.076C240.933 155.862 240.238 156.434 239.428 156.434H221.018L221.521 153.634Z" fill="white"/>
<path d="M223.509 153.634H242.725C243.037 153.634 243.274 153.912 243.219 154.214L243.063 155.076C242.921 155.862 242.227 156.434 241.416 156.434H223.006L223.509 153.634Z" fill="white"/>
<path d="M251.223 147.231H233.753C233.202 147.231 233.053 146.483 233.564 146.279L240.015 143.707C240.214 143.628 240.427 143.587 240.643 143.587H251.878L251.223 147.231Z" fill="white"/>
<path d="M222.678 147.231C223.167 145.1 225.091 143.587 227.31 143.587H240.823V147.231H222.678Z" fill="white"/>
<path d="M221.502 153.737L222.678 147.228L227.128 147.169L225.944 153.737H221.502Z" fill="white"/>
<path d="M230.825 147.214C228.077 147.214 226.89 148.663 226.695 149.573L225.262 149.905L225.366 147.461L226.826 146.25H231.825C232.637 146.571 233.573 147.214 230.825 147.214Z" fill="white"/>
<path d="M226.848 153.634C226.043 153.634 226.11 152.794 226.177 152.446L225.563 152.635L225.113 154.167L226.169 154.219L227.859 154.063C227.857 153.922 227.654 153.634 226.848 153.634Z" fill="white"/>
<path d="M250.375 89.4534L231.16 89.4532C230.847 89.4532 230.611 89.1754 230.666 88.8726L230.822 88.011C230.964 87.2251 231.658 86.6528 232.469 86.6528H250.878L250.375 89.4534Z" fill="white"/>
<path d="M248.388 89.4534L229.172 89.4532C228.86 89.4532 228.623 89.1754 228.678 88.8726L228.834 88.011C228.976 87.2251 229.67 86.6528 230.481 86.6528H248.891L248.388 89.4534Z" fill="white"/>
<path d="M220.674 95.8561H238.144C238.695 95.8561 238.844 96.6043 238.332 96.8081L231.882 99.3799C231.683 99.4594 231.47 99.5005 231.254 99.5005H220.019L220.674 95.8561Z" fill="white"/>
<path d="M249.218 95.8561C248.729 97.9872 246.805 99.5005 244.586 99.5005H231.073V95.8561H249.218Z" fill="white"/>
<path d="M250.394 89.35L249.219 95.859L244.769 95.918L245.952 89.35H250.394Z" fill="white"/>
<path d="M241.072 95.8732C243.821 95.8732 245.007 94.424 245.202 93.5138L246.635 93.1819L246.531 95.6262L245.072 96.8369H240.072C239.26 96.5156 238.324 95.8732 241.072 95.8732Z" fill="white"/>
<path d="M245.048 89.4532C245.854 89.4532 245.786 90.293 245.719 90.6411L246.333 90.4524L246.784 88.92L245.728 88.868L244.037 89.0241C244.04 89.1651 244.243 89.4532 245.048 89.4532Z" fill="white"/>
<path d="M221.521 91.2652H240.736C241.049 91.2652 241.285 91.543 241.23 91.8458L241.075 92.7074C240.933 93.4933 240.238 94.0656 239.428 94.0656H221.018L221.521 91.2652Z" fill="white"/>
<path d="M223.509 91.2652H242.725C243.037 91.2652 243.274 91.543 243.219 91.8458L243.063 92.7074C242.921 93.4933 242.227 94.0656 241.416 94.0656H223.006L223.509 91.2652Z" fill="white"/>
<path d="M251.223 84.8623H233.753C233.202 84.8623 233.053 84.1141 233.564 83.9103L240.015 81.3385C240.214 81.259 240.427 81.2181 240.643 81.2181H251.878L251.223 84.8623Z" fill="white"/>
<path d="M222.678 84.8623C223.167 82.7312 225.091 81.2181 227.31 81.2181H240.823V84.8623H222.678Z" fill="white"/>
<path d="M221.502 91.3684L222.678 84.8595L227.128 84.8004L225.944 91.3684H221.502Z" fill="white"/>
<path d="M230.825 84.8452C228.077 84.8452 226.89 86.2944 226.695 87.2046L225.262 87.5365L225.366 85.0922L226.826 83.8815H231.825C232.637 84.2028 233.573 84.8452 230.825 84.8452Z" fill="white"/>
<path d="M226.848 91.2652C226.043 91.2652 226.11 90.4254 226.177 90.0773L225.563 90.266L225.113 91.7984L226.169 91.8504L227.859 91.6943C227.857 91.5533 227.654 91.2652 226.848 91.2652Z" fill="white"/>
<path d="M266.547 58.269L247.332 58.269C247.019 58.269 246.783 57.991 246.838 57.6882L246.994 56.8266C247.136 56.0407 247.83 55.4683 248.641 55.4683H267.05L266.547 58.269Z" fill="white"/>
<path d="M264.559 58.269L245.344 58.269C245.032 58.269 244.795 57.991 244.85 57.6882L245.006 56.8266C245.148 56.0407 245.842 55.4683 246.653 55.4683H265.062L264.559 58.269Z" fill="white"/>
<path d="M236.846 64.6717H254.316C254.867 64.6717 255.015 65.42 254.504 65.6238L248.054 68.1956C247.855 68.2751 247.641 68.3161 247.426 68.3161H236.191L236.846 64.6717Z" fill="white"/>
<path d="M265.39 64.6717C264.901 66.8028 262.977 68.3161 260.758 68.3161H247.245V64.6717H265.39Z" fill="white"/>
<path d="M266.566 58.1657L265.39 64.6746L260.94 64.7336L262.124 58.1657H266.566Z" fill="white"/>
<path d="M257.244 64.6888C259.992 64.6888 261.179 63.2396 261.374 62.3295L262.807 61.9977L262.703 64.4418L261.244 65.6525H256.244C255.432 65.3313 254.496 64.6888 257.244 64.6888Z" fill="white"/>
<path d="M261.22 58.2689C262.026 58.2689 261.958 59.1086 261.891 59.4567L262.505 59.268L262.956 57.7357L261.899 57.6837L260.209 57.8397C260.212 57.9807 260.414 58.2689 261.22 58.2689Z" fill="white"/>
<path d="M237.693 60.0808H256.908C257.221 60.0808 257.457 60.3587 257.402 60.6615L257.247 61.5232C257.104 62.309 256.41 62.8814 255.6 62.8814H237.19L237.693 60.0808Z" fill="white"/>
<path d="M239.681 60.0808H258.897C259.209 60.0808 259.446 60.3587 259.391 60.6615L259.235 61.5232C259.093 62.309 258.399 62.8814 257.588 62.8814H239.178L239.681 60.0808Z" fill="white"/>
<path d="M267.395 53.6781H249.925C249.373 53.6781 249.225 52.9297 249.736 52.7259L256.187 50.1542C256.386 50.0746 256.599 50.0337 256.815 50.0337L268.05 50.0337L267.395 53.6781Z" fill="white"/>
<path d="M238.849 53.6781C239.339 51.5469 241.262 50.0337 243.482 50.0337H256.995V53.6781H238.849Z" fill="white"/>
<path d="M237.674 60.1841L238.85 53.6752L243.3 53.6162L242.116 60.1841H237.674Z" fill="white"/>
<path d="M246.997 53.6609C244.248 53.6609 243.062 55.1101 242.867 56.0203L241.434 56.3521L241.538 53.908L242.997 52.6972H247.997C248.809 53.0185 249.745 53.6609 246.997 53.6609Z" fill="white"/>
<path d="M243.02 60.0809C242.214 60.0809 242.282 59.2411 242.349 58.893L241.735 59.0818L241.284 60.614L242.341 60.666L244.031 60.51C244.029 60.369 243.826 60.0809 243.02 60.0809Z" fill="white"/>
<path d="M266.547 120.638L247.332 120.638C247.019 120.638 246.783 120.36 246.838 120.057L246.994 119.195C247.136 118.409 247.83 117.837 248.641 117.837H267.05L266.547 120.638Z" fill="white"/>
<path d="M264.559 120.638L245.344 120.638C245.032 120.638 244.795 120.36 244.85 120.057L245.006 119.195C245.148 118.409 245.842 117.837 246.653 117.837H265.062L264.559 120.638Z" fill="white"/>
<path d="M236.846 127.04H254.316C254.867 127.04 255.015 127.789 254.504 127.992L248.054 130.564C247.855 130.644 247.641 130.685 247.426 130.685H236.191L236.846 127.04Z" fill="white"/>
<path d="M265.39 127.04C264.901 129.171 262.977 130.685 260.758 130.685H247.245V127.04H265.39Z" fill="white"/>
<path d="M266.566 120.534L265.39 127.043L260.94 127.102L262.124 120.534H266.566Z" fill="white"/>
<path d="M257.244 127.058C259.992 127.058 261.179 125.608 261.374 124.698L262.807 124.366L262.703 126.81L261.244 128.021H256.244C255.432 127.7 254.496 127.058 257.244 127.058Z" fill="white"/>
<path d="M261.22 120.638C262.026 120.638 261.958 121.477 261.891 121.825L262.505 121.637L262.956 120.104L261.899 120.052L260.209 120.208C260.212 120.349 260.414 120.638 261.22 120.638Z" fill="white"/>
<path d="M237.693 122.45H256.908C257.221 122.45 257.457 122.727 257.402 123.03L257.247 123.892C257.104 124.678 256.41 125.25 255.6 125.25H237.19L237.693 122.45Z" fill="white"/>
<path d="M239.681 122.45H258.897C259.209 122.45 259.446 122.727 259.391 123.03L259.235 123.892C259.093 124.678 258.399 125.25 257.588 125.25H239.178L239.681 122.45Z" fill="white"/>
<path d="M267.395 116.047H249.925C249.373 116.047 249.225 115.298 249.736 115.095L256.187 112.523C256.386 112.443 256.599 112.402 256.815 112.402H268.05L267.395 116.047Z" fill="white"/>
<path d="M238.849 116.047C239.339 113.916 241.262 112.402 243.482 112.402H256.995V116.047H238.849Z" fill="white"/>
<path d="M237.674 122.553L238.85 116.044L243.3 115.985L242.116 122.553H237.674Z" fill="white"/>
<path d="M246.997 116.03C244.248 116.03 243.062 117.479 242.867 118.389L241.434 118.721L241.538 116.277L242.997 115.066H247.997C248.809 115.387 249.745 116.03 246.997 116.03Z" fill="white"/>
<path d="M243.02 122.45C242.214 122.45 242.282 121.61 242.349 121.262L241.735 121.45L241.284 122.983L242.341 123.035L244.031 122.879C244.029 122.738 243.826 122.45 243.02 122.45Z" fill="white"/>
<path d="M291.802 151.822L272.586 151.822C272.274 151.822 272.038 151.544 272.092 151.241L272.248 150.38C272.39 149.594 273.084 149.021 273.895 149.021H292.305L291.802 151.822Z" fill="white"/>
<path d="M289.814 151.822L270.599 151.822C270.286 151.822 270.05 151.544 270.104 151.241L270.26 150.38C270.402 149.594 271.097 149.021 271.907 149.021H290.317L289.814 151.822Z" fill="white"/>
<path d="M262.101 158.225H279.571C280.122 158.225 280.27 158.973 279.759 159.177L273.309 161.749C273.109 161.828 272.896 161.869 272.681 161.869H261.446L262.101 158.225Z" fill="white"/>
<path d="M290.645 158.225C290.155 160.356 288.232 161.869 286.012 161.869H272.5V158.225H290.645Z" fill="white"/>
<path d="M291.821 151.719L290.645 158.228L286.195 158.287L287.379 151.719H291.821Z" fill="white"/>
<path d="M282.499 158.242C285.247 158.242 286.433 156.793 286.629 155.882L288.061 155.551L287.958 157.995L286.498 159.206H281.498C280.687 158.884 279.751 158.242 282.499 158.242Z" fill="white"/>
<path d="M286.475 151.822C287.281 151.822 287.213 152.662 287.146 153.01L287.76 152.821L288.211 151.289L287.154 151.237L285.464 151.393C285.466 151.534 285.669 151.822 286.475 151.822Z" fill="white"/>
<path d="M262.947 153.634H282.163C282.475 153.634 282.712 153.912 282.657 154.214L282.501 155.076C282.359 155.862 281.665 156.434 280.854 156.434H262.444L262.947 153.634Z" fill="white"/>
<path d="M264.936 153.634H284.151C284.464 153.634 284.7 153.912 284.645 154.214L284.489 155.076C284.347 155.862 283.653 156.434 282.842 156.434H264.433L264.936 153.634Z" fill="white"/>
<path d="M292.649 147.231H275.179C274.628 147.231 274.48 146.483 274.991 146.279L281.441 143.707C281.641 143.628 281.854 143.587 282.069 143.587H293.304L292.649 147.231Z" fill="white"/>
<path d="M264.104 147.231C264.594 145.1 266.517 143.587 268.737 143.587H282.25V147.231H264.104Z" fill="white"/>
<path d="M262.929 153.737L264.104 147.228L268.555 147.169L267.371 153.737H262.929Z" fill="white"/>
<path d="M272.251 147.214C269.503 147.214 268.317 148.663 268.122 149.573L266.689 149.905L266.792 147.461L268.252 146.25H273.252C274.064 146.571 275 147.214 272.251 147.214Z" fill="white"/>
<path d="M268.275 153.634C267.469 153.634 267.537 152.794 267.604 152.446L266.99 152.635L266.539 154.167L267.596 154.219L269.286 154.063C269.283 153.922 269.08 153.634 268.275 153.634Z" fill="white"/>
<path d="M291.802 89.4534L272.586 89.4532C272.274 89.4532 272.038 89.1754 272.092 88.8726L272.248 88.011C272.39 87.2251 273.084 86.6528 273.895 86.6528H292.305L291.802 89.4534Z" fill="white"/>
<path d="M289.814 89.4534L270.599 89.4532C270.286 89.4532 270.05 89.1754 270.104 88.8726L270.26 88.011C270.402 87.2251 271.097 86.6528 271.907 86.6528H290.317L289.814 89.4534Z" fill="white"/>
<path d="M262.101 95.8561H279.571C280.122 95.8561 280.27 96.6043 279.759 96.8081L273.309 99.3799C273.109 99.4594 272.896 99.5005 272.681 99.5005H261.446L262.101 95.8561Z" fill="white"/>
<path d="M290.645 95.8561C290.155 97.9872 288.232 99.5005 286.012 99.5005H272.5V95.8561H290.645Z" fill="white"/>
<path d="M291.821 89.35L290.645 95.859L286.195 95.918L287.379 89.35H291.821Z" fill="white"/>
<path d="M282.499 95.8732C285.247 95.8732 286.433 94.424 286.629 93.5138L288.061 93.1819L287.958 95.6262L286.498 96.8369H281.498C280.687 96.5156 279.751 95.8732 282.499 95.8732Z" fill="white"/>
<path d="M286.475 89.4532C287.281 89.4532 287.213 90.293 287.146 90.6411L287.76 90.4524L288.211 88.92L287.154 88.868L285.464 89.0241C285.466 89.1651 285.669 89.4532 286.475 89.4532Z" fill="white"/>
<path d="M262.947 91.2652H282.163C282.475 91.2652 282.712 91.543 282.657 91.8458L282.501 92.7074C282.359 93.4933 281.665 94.0656 280.854 94.0656H262.444L262.947 91.2652Z" fill="white"/>
<path d="M264.936 91.2652H284.151C284.464 91.2652 284.7 91.543 284.645 91.8458L284.489 92.7074C284.347 93.4933 283.653 94.0656 282.842 94.0656H264.433L264.936 91.2652Z" fill="white"/>
<path d="M292.649 84.8623H275.179C274.628 84.8623 274.48 84.1141 274.991 83.9103L281.441 81.3385C281.641 81.259 281.854 81.2181 282.069 81.2181H293.304L292.649 84.8623Z" fill="white"/>
<path d="M264.104 84.8623C264.594 82.7312 266.517 81.2181 268.737 81.2181H282.25V84.8623H264.104Z" fill="white"/>
<path d="M262.929 91.3684L264.104 84.8595L268.555 84.8004L267.371 91.3684H262.929Z" fill="white"/>
<path d="M272.251 84.8452C269.503 84.8452 268.317 86.2944 268.122 87.2046L266.689 87.5365L266.792 85.0922L268.252 83.8815H273.252C274.064 84.2028 275 84.8452 272.251 84.8452Z" fill="white"/>
<path d="M268.275 91.2652C267.469 91.2652 267.537 90.4254 267.604 90.0773L266.99 90.266L266.539 91.7984L267.596 91.8504L269.286 91.6943C269.283 91.5533 269.08 91.2652 268.275 91.2652Z" fill="white"/>
<path d="M307.974 58.269L288.758 58.269C288.446 58.269 288.209 57.991 288.264 57.6882L288.42 56.8266C288.562 56.0407 289.256 55.4683 290.067 55.4683H308.477L307.974 58.269Z" fill="white"/>
<path d="M305.986 58.269L286.77 58.269C286.458 58.269 286.221 57.991 286.276 57.6882L286.432 56.8266C286.574 56.0407 287.268 55.4683 288.079 55.4683H306.489L305.986 58.269Z" fill="white"/>
<path d="M278.272 64.6717H295.742C296.294 64.6717 296.442 65.42 295.931 65.6238L289.481 68.1956C289.281 68.2751 289.068 68.3161 288.852 68.3161H277.617L278.272 64.6717Z" fill="white"/>
<path d="M306.817 64.6717C306.327 66.8028 304.404 68.3161 302.184 68.3161H288.671V64.6717H306.817Z" fill="white"/>
<path d="M307.993 58.1657L306.817 64.6746L302.367 64.7336L303.55 58.1657H307.993Z" fill="white"/>
<path d="M298.671 64.6888C301.419 64.6888 302.605 63.2396 302.801 62.3295L304.233 61.9977L304.13 64.4418L302.67 65.6525H297.67C296.859 65.3313 295.922 64.6888 298.671 64.6888Z" fill="white"/>
<path d="M302.647 58.2689C303.452 58.2689 303.385 59.1086 303.317 59.4567L303.932 59.268L304.382 57.7357L303.326 57.6837L301.636 57.8397C301.638 57.9807 301.841 58.2689 302.647 58.2689Z" fill="white"/>
<path d="M279.119 60.0808H298.335C298.647 60.0808 298.884 60.3587 298.829 60.6615L298.673 61.5232C298.531 62.309 297.837 62.8814 297.026 62.8814H278.616L279.119 60.0808Z" fill="white"/>
<path d="M281.108 60.0808H300.323C300.635 60.0808 300.872 60.3587 300.817 60.6615L300.661 61.5232C300.519 62.309 299.825 62.8814 299.014 62.8814H280.604L281.108 60.0808Z" fill="white"/>
<path d="M308.821 53.6781H291.351C290.8 53.6781 290.652 52.9297 291.163 52.7259L297.613 50.1542C297.813 50.0746 298.026 50.0337 298.241 50.0337L309.476 50.0337L308.821 53.6781Z" fill="white"/>
<path d="M280.276 53.6781C280.765 51.5469 282.689 50.0337 284.909 50.0337H298.421V53.6781H280.276Z" fill="white"/>
<path d="M279.101 60.1841L280.276 53.6752L284.726 53.6162L283.543 60.1841H279.101Z" fill="white"/>
<path d="M288.423 53.6609C285.675 53.6609 284.489 55.1101 284.293 56.0203L282.861 56.3521L282.964 53.908L284.424 52.6972H289.424C290.235 53.0185 291.171 53.6609 288.423 53.6609Z" fill="white"/>
<path d="M284.447 60.0809C283.641 60.0809 283.709 59.2411 283.776 58.893L283.162 59.0818L282.711 60.614L283.767 60.666L285.458 60.51C285.455 60.369 285.252 60.0809 284.447 60.0809Z" fill="white"/>
<path d="M307.974 120.638L288.758 120.638C288.446 120.638 288.209 120.36 288.264 120.057L288.42 119.195C288.562 118.409 289.256 117.837 290.067 117.837H308.477L307.974 120.638Z" fill="white"/>
<path d="M305.986 120.638L286.77 120.638C286.458 120.638 286.221 120.36 286.276 120.057L286.432 119.195C286.574 118.409 287.268 117.837 288.079 117.837H306.489L305.986 120.638Z" fill="white"/>
<path d="M278.272 127.04H295.742C296.294 127.04 296.442 127.789 295.931 127.992L289.481 130.564C289.281 130.644 289.068 130.685 288.852 130.685H277.617L278.272 127.04Z" fill="white"/>
<path d="M306.817 127.04C306.327 129.171 304.404 130.685 302.184 130.685H288.671V127.04H306.817Z" fill="white"/>
<path d="M307.993 120.534L306.817 127.043L302.367 127.102L303.55 120.534H307.993Z" fill="white"/>
<path d="M298.671 127.058C301.419 127.058 302.605 125.608 302.801 124.698L304.233 124.366L304.13 126.81L302.67 128.021H297.67C296.859 127.7 295.922 127.058 298.671 127.058Z" fill="white"/>
<path d="M302.647 120.638C303.452 120.638 303.385 121.477 303.317 121.825L303.932 121.637L304.382 120.104L303.326 120.052L301.636 120.208C301.638 120.349 301.841 120.638 302.647 120.638Z" fill="white"/>
<path d="M279.119 122.45H298.335C298.647 122.45 298.884 122.727 298.829 123.03L298.673 123.892C298.531 124.678 297.837 125.25 297.026 125.25H278.616L279.119 122.45Z" fill="white"/>
<path d="M281.108 122.45H300.323C300.635 122.45 300.872 122.727 300.817 123.03L300.661 123.892C300.519 124.678 299.825 125.25 299.014 125.25H280.604L281.108 122.45Z" fill="white"/>
<path d="M308.821 116.047H291.351C290.8 116.047 290.652 115.298 291.163 115.095L297.613 112.523C297.813 112.443 298.026 112.402 298.241 112.402H309.476L308.821 116.047Z" fill="white"/>
<path d="M280.276 116.047C280.765 113.916 282.689 112.402 284.909 112.402H298.421V116.047H280.276Z" fill="white"/>
<path d="M279.101 122.553L280.276 116.044L284.726 115.985L283.543 122.553H279.101Z" fill="white"/>
<path d="M288.423 116.03C285.675 116.03 284.489 117.479 284.293 118.389L282.861 118.721L282.964 116.277L284.424 115.066H289.424C290.235 115.387 291.171 116.03 288.423 116.03Z" fill="white"/>
<path d="M284.447 122.45C283.641 122.45 283.709 121.61 283.776 121.262L283.162 121.45L282.711 122.983L283.767 123.035L285.458 122.879C285.455 122.738 285.252 122.45 284.447 122.45Z" fill="white"/>
</mask>
<g mask="url(#mask0_1_260)">
<rect x="6.10352e-05" y="-12" width="206" height="187" fill="white"/>
</g>
</svg>
