<svg width="34" height="37" viewBox="0 0 34 37" fill="none" xmlns="http://www.w3.org/2000/svg">
<path d="M14.1605 12.203L14.1605 12.203C13.2383 13.0951 12.3302 14.0029 11.4386 14.9256L11.4386 14.9256C10.9957 15.384 10.8974 15.97 11.196 16.5327L11.2392 16.5098L11.196 16.5327C11.2725 16.6768 11.2807 16.7691 11.2568 16.844C11.2315 16.923 11.1679 16.9931 11.0727 17.0876C9.88777 18.2644 8.70702 19.4453 7.52639 20.6261C7.22109 20.9314 6.91581 21.2367 6.61046 21.5419L6.645 21.5765L6.61046 21.542C6.03527 22.1171 5.7381 22.7455 5.7313 23.3776C5.7245 24.01 6.00833 24.6377 6.5784 25.2112C8.5988 27.2441 10.6269 29.269 12.6602 31.2888C13.1702 31.7955 13.7797 32.049 14.3915 32.048C15.0034 32.0469 15.6133 31.7914 16.1246 31.2878C16.5905 30.8291 17.0522 30.3659 17.5138 29.9029C17.6785 29.7376 17.8432 29.5723 18.0081 29.4073C18.7241 28.6908 19.4397 27.9741 20.1528 27.2599C20.4201 26.9922 20.687 26.7249 20.9535 26.4581C21.4243 26.6912 21.7768 26.795 22.1093 26.74C22.449 26.6838 22.7568 26.4636 23.1425 26.0781C23.3023 25.9184 23.4622 25.7587 23.6221 25.5989C24.2055 25.016 24.7891 24.4329 25.3718 23.8492L25.3372 23.8147L25.3718 23.8492C25.7715 23.4487 25.977 23.0258 25.9777 22.5984C25.9785 22.171 25.7745 21.7491 25.376 21.3508C24.5289 20.5038 23.6813 19.657 22.8338 18.8102C22.349 18.3259 21.8643 17.8416 21.3796 17.3572C20.8906 16.8686 20.4018 16.3797 19.913 15.8908C18.7133 14.6908 17.5135 13.4908 16.3106 12.2938C15.9846 11.9694 15.6059 11.7927 15.2275 11.7749C14.8486 11.7571 14.4748 11.899 14.1605 12.203ZM7.52926 24.2233L7.49473 24.2578L7.52926 24.2233C7.23654 23.9308 7.09759 23.6594 7.09767 23.3942C7.09775 23.129 7.23689 22.8567 7.53089 22.5621C8.60347 21.4874 9.67688 20.4135 10.7523 19.3376C11.2405 18.8491 11.7292 18.3603 12.2183 17.8707C14.7799 20.4315 17.3048 22.9556 19.865 25.5153C19.8523 25.529 19.8391 25.5432 19.8256 25.5579C19.7731 25.6147 19.7148 25.6779 19.6537 25.7395L19.358 26.0375C17.9763 27.43 16.5944 28.8226 15.2112 30.2138C14.9076 30.5191 14.6348 30.663 14.3687 30.663C14.1026 30.6629 13.8291 30.5189 13.5243 30.2144C11.5257 28.2176 9.52737 26.2205 7.52926 24.2233ZM21.9502 25.2835L21.9847 25.3181L21.9502 25.2835C21.904 25.3298 21.8671 25.3504 21.8381 25.3577C21.8106 25.3648 21.7858 25.3609 21.7603 25.3487C21.7334 25.3358 21.7062 25.3138 21.6763 25.2849C21.6616 25.2706 21.647 25.2553 21.6317 25.2393C21.6166 25.2235 21.6008 25.2068 21.5849 25.1909C20.7159 24.324 19.8474 23.4568 18.9791 22.589C18.4591 22.0694 17.9395 21.5495 17.4197 21.0296C15.8182 19.4273 14.2165 17.8249 12.6075 16.2301C12.4823 16.1059 12.4275 16.0178 12.4246 15.9378C12.4217 15.8595 12.4683 15.7712 12.5993 15.6456L12.5993 15.6456C13.387 14.8898 14.155 14.1131 14.9169 13.3322C15.0242 13.2223 15.1031 13.1719 15.1762 13.1675C15.2473 13.1631 15.3296 13.2016 15.4458 13.3181C17.7124 15.5937 19.9842 17.8641 22.2559 20.1345C22.9941 20.8721 23.7322 21.6098 24.4702 22.3477L24.5047 22.3131L24.4702 22.3477C24.5113 22.3888 24.5473 22.433 24.5959 22.4927C24.6158 22.5172 24.6379 22.5443 24.6633 22.5749C24.4263 22.8113 24.191 23.046 23.9569 23.2795C23.2807 23.954 22.6147 24.6182 21.9502 25.2835Z" fill="#2B1A51" stroke="#2B1A51" stroke-width="0.0977011"/>
<path d="M13.5969 3.57876L13.5969 3.57876C13.3 3.70406 13.1456 3.81703 13.0873 3.96077C13.0289 4.10469 13.06 4.29602 13.1853 4.59884C13.5756 5.54177 13.9678 6.48391 14.3601 7.42608C14.5804 7.95526 14.8007 8.48445 15.0207 9.01378C15.1247 9.26396 15.0005 9.54923 14.7537 9.655L14.5846 9.72748C14.2336 9.8779 13.8265 9.71406 13.6791 9.36156L13.6534 9.30024C13.4832 8.89303 13.3127 8.48592 13.1421 8.07879C12.7336 7.10391 12.3251 6.12889 11.9215 5.15202L11.9666 5.13336L11.9215 5.15202C11.6634 4.52737 11.6317 3.96068 11.8254 3.48156C12.0192 3.00236 12.435 2.6194 13.0544 2.35523C14.5838 1.70299 16.1173 1.06027 17.6521 0.420769C18.2592 0.167807 18.8223 0.141575 19.3003 0.335712C19.7783 0.529863 20.1635 0.941264 20.4207 1.54823C21.067 3.07275 21.7073 4.59996 22.3476 6.12702C22.6291 6.79841 22.9105 7.46978 23.1925 8.14088C23.2837 8.35781 23.5687 8.41199 23.7371 8.24499L27.6797 4.3347C28.0044 4.01269 28.5283 4.01378 28.8516 4.33709L33.3877 8.87211C33.7104 9.19484 33.7122 9.71757 33.3917 10.0425L25.2868 18.2595C25.0299 18.52 24.5882 18.4794 24.3492 18.2121C24.1256 17.9621 24.1625 17.6106 24.3928 17.3773C26.8051 14.9333 29.2494 12.4567 31.7232 9.94999C32.0065 9.66292 32.0045 9.20084 31.7188 8.91617C30.6328 7.83416 29.5738 6.77932 28.5146 5.72482C28.4399 5.65052 28.3134 5.65439 28.235 5.73279L20.6092 13.3555C20.3268 13.6377 19.8647 13.6225 19.6014 13.3223C19.3611 13.0483 19.375 12.6347 19.6334 12.3776C19.6987 12.3126 19.7642 12.2474 19.8301 12.1818C20.3748 11.6398 20.9383 11.0791 21.4993 10.5157L13.5969 3.57876ZM13.5969 3.57876C15.0659 2.95875 16.5351 2.33966 18.0053 1.72216C18.2108 1.63582 18.3725 1.57684 18.505 1.54835C18.6371 1.51995 18.7356 1.5229 18.8173 1.55549C18.8989 1.58803 18.9709 1.65296 19.0444 1.76297C19.1182 1.87344 19.1908 2.02543 19.2752 2.22679L19.2752 2.2268C19.5072 2.7798 19.7392 3.33276 19.9712 3.88572C20.614 5.41777 21.2568 6.94984 21.8976 8.48277L21.8976 8.48278C21.939 8.58182 21.9905 8.68292 22.0425 8.783C22.0499 8.79737 22.0574 8.81172 22.0649 8.82604C22.1097 8.91205 22.154 8.99714 22.1931 9.08131C22.2852 9.27954 22.3422 9.4606 22.3112 9.61751L22.3591 9.62695M13.5969 3.57876L22.3591 9.62695M22.3591 9.62695L22.3112 9.61751C22.2801 9.77525 22.1589 9.92216 21.9989 10.0715M22.3591 9.62695L21.9989 10.0715M21.9989 10.0715C21.9304 10.1355 21.8566 10.1983 21.7821 10.2618M21.9989 10.0715L21.7821 10.2618M21.7821 10.2618C21.7704 10.2718 21.7586 10.2818 21.7469 10.2918M21.7821 10.2618L21.7469 10.2918M21.7469 10.2918C21.661 10.3651 21.5752 10.4395 21.4993 10.5157L21.7469 10.2918Z" fill="#2B1A51" stroke="#2B1A51" stroke-width="0.0977011"/>
<path d="M8.489 33.1201L8.489 33.1201C8.2486 33.3596 8.05086 33.4669 7.86164 33.4644C7.67214 33.4619 7.4751 33.3492 7.23659 33.1064C6.38549 32.2403 5.53369 31.3748 4.68053 30.5106C4.43821 30.2652 4.32812 30.0721 4.32878 29.8869C4.32945 29.7016 4.44098 29.5076 4.68759 29.2606L4.68759 29.2606C5.12978 28.8176 5.57323 28.3758 6.01878 27.9319C6.05605 27.8948 6.09333 27.8577 6.13062 27.8205C6.39339 27.5587 6.39385 27.1332 6.13248 26.8702C5.87004 26.6062 5.44355 26.6062 5.18046 26.8694L3.85463 28.1956C3.85463 28.1956 3.85463 28.1957 3.85463 28.1957C3.39483 28.6553 3.11214 29.0638 3.00982 29.4864C2.90706 29.9108 2.9881 30.3413 3.23805 30.8405C3.37823 31.1204 3.37075 31.4542 3.18533 31.6983L2.15916 33.0494C1.90842 33.3796 1.93953 33.844 2.23201 34.1378L3.67463 35.5868C3.9678 35.8813 4.43349 35.9138 4.76468 35.6628L6.12465 34.6323C6.36605 34.4494 6.69518 34.4397 6.97268 34.5758C7.40938 34.7898 7.79887 34.8844 8.16848 34.8446C8.53865 34.8047 8.88245 34.6308 9.22885 34.3201L9.22885 34.3201C9.74893 33.8535 10.2281 33.3413 10.7117 32.8244C10.7922 32.7384 10.8727 32.6522 10.9537 32.5661C11.1961 32.3082 11.2237 31.9224 10.9798 31.6573C10.7214 31.3764 10.2592 31.3436 9.98627 31.6182C9.94295 31.6618 9.89973 31.7053 9.85658 31.7487C9.3955 32.2127 8.94343 32.6676 8.489 33.1201ZM8.52347 33.1547C8.0372 33.6391 7.68371 33.6312 7.20175 33.1407C6.35066 32.2745 5.49889 31.409 4.64577 30.5449C4.15746 30.0504 4.1561 29.7238 4.65302 29.2261L8.52347 33.1547ZM4.67278 33.9646C4.40629 34.1595 4.04606 34.1307 3.82496 33.8887C3.61719 33.6612 3.59129 33.3103 3.77195 33.0635L3.92603 32.853C4.17629 32.5111 4.67047 32.4734 4.96612 32.7759C5.2579 33.0744 5.21976 33.5645 4.88343 33.8105L4.67278 33.9646Z" fill="#2B1A51" stroke="#2B1A51" stroke-width="0.0977011"/>
<path d="M16.508 4.21973C16.1613 4.36218 16.0001 4.75725 16.1426 5.10304L17.9462 9.47893C18.0889 9.82525 18.4908 9.9869 18.836 9.8449C19.1829 9.70225 19.3414 9.30803 19.1989 8.96249L17.3951 4.58676C17.2525 4.24081 16.8534 4.07777 16.508 4.21973Z" fill="#2B1A51" stroke="#2B1A51" stroke-width="0.0977011"/>
</svg>
