<svg width="171" height="49" viewBox="0 0 171 49" fill="none" xmlns="http://www.w3.org/2000/svg">
<g clip-path="url(#clip0_1001_5499)">
<path d="M77.8622 31.6591C77.0381 31.6591 76.3871 31.4403 75.91 31.0026C75.4328 30.5434 75.1943 29.9419 75.1943 29.198C75.1943 29.0886 75.2158 28.8809 75.2593 28.5747L78.7408 8.69092H89.0549C91.5058 8.69092 93.4362 9.28151 94.8463 10.4627C96.2778 11.6439 96.9938 13.2298 96.9938 15.2204C96.9938 15.5048 96.9502 15.9751 96.8635 16.6313L95.7899 23.0624C95.3125 25.8842 94.2606 28.0279 92.6339 29.4935C91.0068 30.9371 88.8597 31.6591 86.1915 31.6591H77.8622ZM86.2565 27.656C89.0549 27.656 90.7359 26.0592 91.2998 22.8655L92.3734 16.8282C92.4169 16.6313 92.4387 16.3469 92.4387 15.9751C92.4387 14.9689 92.1024 14.1705 91.43 13.5798C90.7573 12.9892 89.8572 12.6939 88.7294 12.6939H82.5151L79.9119 27.656H86.2565ZM102.953 31.9215C101.304 31.9215 100.003 31.5716 99.0482 30.8716C98.0939 30.1716 97.6167 29.2311 97.6167 28.0497C97.6167 27.8747 97.6384 27.6122 97.6817 27.2622L97.9094 25.9826C98.1699 24.5608 98.8423 23.4561 99.9269 22.6686C101.033 21.8593 102.443 21.4546 104.157 21.4546H106.109C106.738 21.4546 107.41 21.5312 108.126 21.6843C108.863 21.8374 109.503 22.0452 110.046 22.3077L110.338 20.6015C110.36 20.514 110.371 20.3827 110.371 20.2078C110.371 19.7703 110.219 19.4203 109.915 19.1578C109.633 18.8953 109.232 18.764 108.712 18.764H105.946C105.317 18.764 104.796 18.9063 104.384 19.1906C103.972 19.475 103.723 19.8578 103.636 20.339H99.3412C99.6446 18.6547 100.393 17.3532 101.586 16.4344C102.779 15.4938 104.297 15.0235 106.141 15.0235H108.907C110.729 15.0235 112.171 15.4392 113.234 16.2704C114.319 17.1016 114.861 18.2172 114.861 19.6172C114.861 19.9453 114.829 20.2734 114.763 20.6015L112.811 31.6591H108.712L109.07 29.6904C108.397 30.3904 107.681 30.9371 106.922 31.3309C106.184 31.7246 105.491 31.9215 104.84 31.9215H102.953ZM105.425 28.5091C106.206 28.5091 106.955 28.3013 107.671 27.8857C108.386 27.4701 108.95 26.9123 109.362 26.2123L109.46 25.6545C109.178 25.392 108.733 25.1842 108.126 25.031C107.519 24.8779 106.868 24.8014 106.174 24.8014H104.157C103.614 24.8014 103.17 24.9326 102.822 25.1951C102.476 25.4357 102.259 25.7857 102.172 26.2451L102.009 27.0982C101.922 27.5138 102.031 27.8528 102.335 28.1154C102.66 28.3778 103.115 28.5091 103.701 28.5091H105.425Z" fill="#2B1A51"/>
<path d="M123.84 31.9215C121.693 31.9215 120.001 31.3748 118.765 30.281C117.55 29.1872 116.943 27.7107 116.943 25.8514C116.943 25.3045 116.986 24.7795 117.073 24.2764H121.498C121.454 24.6702 121.433 24.9436 121.433 25.0967C121.433 25.9717 121.671 26.6608 122.149 27.1639C122.626 27.6669 123.276 27.9185 124.101 27.9185H127.68C128.634 27.9185 129.448 27.7217 130.12 27.3279C130.792 26.9123 131.183 26.3654 131.291 25.6873L131.487 24.5389L131.519 24.2436C131.519 23.8061 131.346 23.4452 130.998 23.1608C130.651 22.8546 130.152 22.6468 129.502 22.5374L123.743 21.5203C120.337 20.9296 118.635 19.4531 118.635 17.0907C118.635 16.7626 118.667 16.4345 118.732 16.1063L119.058 14.2689C119.383 12.4315 120.251 10.9987 121.66 9.97061C123.092 8.9425 124.903 8.42847 127.094 8.42847H130.738C132.755 8.42847 134.35 8.9425 135.521 9.97061C136.692 10.9768 137.278 12.344 137.278 14.0721C137.278 14.5751 137.235 15.0455 137.148 15.4829H132.723C132.766 15.1329 132.788 14.8923 132.788 14.7611C132.788 14.0392 132.582 13.4705 132.17 13.0549C131.779 12.6393 131.237 12.4315 130.543 12.4315H126.899C125.988 12.4315 125.218 12.6283 124.589 13.0221C123.96 13.4158 123.591 13.9408 123.483 14.597L123.32 15.5158C123.298 15.6033 123.287 15.7236 123.287 15.8767C123.287 16.7516 123.927 17.3094 125.207 17.5501L130.966 18.6C134.436 19.2344 136.172 20.7109 136.172 23.0296C136.172 23.1827 136.15 23.4562 136.107 23.8499L135.749 26.0155C135.445 27.8748 134.567 29.3294 133.113 30.3793C131.682 31.4076 129.827 31.9215 127.55 31.9215H123.84ZM141.906 8.69096H146.396L144.737 18.1735H155.344L157.003 8.69096H161.493L157.491 31.6591H153.001L154.661 22.1109H144.054L142.394 31.6591H137.904L141.906 8.69096ZM165.84 8.69096H170.33L166.328 31.6591H161.838L165.84 8.69096Z" fill="#F46628"/>
<path d="M79.2712 43.8151H80.2613L79.7662 46.6399H78.8324L79.1719 44.7283H73.4005L73.0607 46.6399H72.1272L72.6223 43.8151H73.4851C74.0699 43.1968 74.4708 42.2981 74.6878 41.119L75.2961 37.5951H80.3603L79.2712 43.8151ZM74.6594 43.8151H78.3374L79.2712 38.5082H76.074L75.6212 41.119C75.4421 42.1935 75.1214 43.0922 74.6594 43.8151ZM85.6697 37.4241C86.7353 37.4241 87.5462 37.795 88.1027 38.5368C88.6687 39.2786 88.8478 40.1632 88.6404 41.1902C88.6121 41.3613 88.5742 41.5088 88.5271 41.6324H82.3453C82.317 42.3552 82.5149 42.9305 82.9393 43.3585C83.3732 43.7769 83.9625 43.9864 84.7076 43.9864C85.7922 43.9864 86.6268 43.5774 87.2115 42.7595L87.9471 43.2446C87.6076 43.7676 87.1266 44.1764 86.5043 44.4713C85.8912 44.7568 85.2498 44.8993 84.5803 44.8993C83.4862 44.8993 82.6469 44.5284 82.0624 43.7866C81.4776 43.0448 81.2794 42.1223 81.4681 41.0189C81.6472 39.9729 82.1331 39.1121 82.9253 38.437C83.7267 37.7616 84.6417 37.4241 85.6697 37.4241ZM82.4865 40.7195H87.7492C87.8056 39.9396 87.636 39.3498 87.2399 38.9504C86.8437 38.5416 86.3016 38.3369 85.6131 38.3369C84.868 38.3369 84.2126 38.5557 83.6466 38.9934C83.0901 39.4214 82.7035 39.9967 82.4865 40.7195ZM95.5641 37.5951L95.4085 38.5082H92.9046L91.8155 44.7283H90.8817L91.9711 38.5082H89.4672L89.6228 37.5951H95.5641ZM102.537 37.5951H103.47L102.226 44.7283H101.292L101.504 43.5154C100.74 44.4382 99.7171 44.8993 98.4343 44.8993C97.4442 44.8993 96.6472 44.5142 96.0437 43.7439C95.4401 42.9735 95.2279 42.0652 95.407 41.0189C95.6052 39.8776 96.0911 38.9934 96.8642 38.3655C97.6469 37.7379 98.51 37.4241 99.4531 37.4241C100.066 37.4241 100.627 37.5714 101.136 37.8662C101.646 38.1515 102.023 38.5653 102.268 39.1073L102.537 37.5951ZM98.6609 43.9864C99.4343 43.9864 100.127 43.7391 100.74 43.2446C101.353 42.7403 101.735 42.1031 101.886 41.333L101.914 41.1617C102.046 40.2867 101.867 39.5972 101.377 39.0931C100.896 38.5891 100.278 38.3369 99.5237 38.3369C98.7881 38.3369 98.1092 38.5795 97.4868 39.0646C96.8737 39.5497 96.4916 40.2248 96.3408 41.0904C96.2088 41.8894 96.3644 42.5741 96.8076 43.1445C97.2508 43.7057 97.8686 43.9864 98.6609 43.9864ZM111.247 37.5951L110.002 44.7283H109.068L110.158 38.5082H106.96L106.409 41.6895C106.192 42.9353 105.829 43.7676 105.319 44.186C104.819 44.6044 104.164 44.7851 103.353 44.7283L103.509 43.8437C104.037 43.9008 104.456 43.7724 104.768 43.4583C105.088 43.1445 105.324 42.5548 105.475 41.6895L106.182 37.5951H111.247ZM118.374 37.5951H119.166L117.921 44.7283H116.987L117.921 39.3072L112.772 44.7283H111.98L113.225 37.5951H114.158L113.21 43.0162L118.374 37.5951ZM129.642 39.5924C129.52 40.2963 129.157 40.7956 128.553 41.0904C128.892 41.2425 129.138 41.4707 129.289 41.7751C129.449 42.0793 129.491 42.4265 129.416 42.8166C129.322 43.3967 129.058 43.8626 128.624 44.2146C128.19 44.5569 127.605 44.7283 126.87 44.7283H123.432L124.677 37.5951H127.831C128.454 37.5951 128.935 37.7902 129.274 38.18C129.623 38.5702 129.746 39.0408 129.642 39.5924ZM128.709 39.5638C128.774 39.2311 128.713 38.9741 128.525 38.7935C128.346 38.6032 128.058 38.5082 127.662 38.5082H125.455L125.073 40.6766H127.209C127.624 40.6766 127.963 40.5816 128.227 40.3913C128.492 40.1917 128.652 39.9158 128.709 39.5638ZM128.51 42.6738C128.567 42.3411 128.501 42.0793 128.312 41.8894C128.124 41.6895 127.822 41.5897 127.407 41.5897H124.917L124.521 43.8151H127.025C127.421 43.8151 127.751 43.7153 128.015 43.5154C128.279 43.3062 128.444 43.0258 128.51 42.6738ZM137.847 37.5951H138.781L137.536 44.7283H136.602L136.815 43.5154C136.051 44.4382 135.028 44.8993 133.745 44.8993C132.755 44.8993 131.958 44.5142 131.354 43.7439C130.75 42.9735 130.538 42.0652 130.718 41.0189C130.916 39.8776 131.401 38.9934 132.175 38.3655C132.958 37.7379 133.82 37.4241 134.763 37.4241C135.377 37.4241 135.937 37.5714 136.447 37.8662C136.956 38.1515 137.333 38.5653 137.579 39.1073L137.847 37.5951ZM133.971 43.9864C134.745 43.9864 135.438 43.7391 136.051 43.2446C136.664 42.7403 137.046 42.1031 137.197 41.333L137.225 41.1617C137.357 40.2867 137.178 39.5972 136.687 39.0931C136.206 38.5891 135.589 38.3369 134.834 38.3369C134.098 38.3369 133.42 38.5795 132.797 39.0646C132.184 39.5497 131.802 40.2248 131.651 41.0904C131.519 41.8894 131.675 42.5741 132.118 43.1445C132.561 43.7057 133.179 43.9864 133.971 43.9864ZM148.849 37.5951L145.256 41.1046L147.745 44.7283H146.727L144.336 41.2473L143.728 44.7283H142.794L143.402 41.2615L139.908 44.7283H138.805L142.61 40.9335L140.163 37.5951H141.224L143.487 40.7622L144.039 37.5951H144.973L144.407 40.8193L147.717 37.5951H148.849ZM155.269 37.5951H156.203L154.958 44.7283H154.025L154.562 41.6182H150.488L149.95 44.7283H149.017L150.262 37.5951H151.195L150.658 40.7051H154.732L155.269 37.5951ZM160.582 40.3056C161.214 40.3056 161.728 40.5293 162.124 40.9762C162.52 41.4232 162.662 41.9654 162.549 42.6026C162.436 43.2491 162.12 43.7676 161.601 44.1575C161.092 44.538 160.493 44.7283 159.804 44.7283H156.933L158.177 37.5951H159.111L158.644 40.3056H160.582ZM164.402 37.5951H165.335L164.091 44.7283H163.157L164.402 37.5951ZM161.035 43.4583C161.356 43.2206 161.549 42.9068 161.615 42.5169C161.681 42.1271 161.596 41.813 161.36 41.5753C161.125 41.3375 160.809 41.2188 160.412 41.2188H158.475L158.022 43.8151H159.96C160.356 43.8151 160.714 43.6961 161.035 43.4583Z" fill="#2B1A51"/>
<path d="M58.9738 24.9238L21.9988 24.9237C21.3976 24.9237 20.9425 24.3758 21.0479 23.779L21.3478 22.0807C21.6214 20.5316 22.9571 19.4033 24.5173 19.4033H59.9422L58.9738 24.9238Z" fill="#F46628"/>
<path d="M55.1481 24.9238L18.1731 24.9237C17.572 24.9237 17.1169 24.3758 17.2223 23.779L17.5222 22.0807C17.7957 20.5316 19.1314 19.4033 20.6916 19.4033H56.1165L55.1481 24.9238Z" fill="#F46628"/>
<path d="M1.82031 37.5444H35.4371C36.4982 37.5444 36.7831 39.0193 35.7995 39.4212L23.3878 44.4903C23.0039 44.6472 22.5936 44.7278 22.1793 44.7278H0.560303L1.82031 37.5444Z" fill="#F46628"/>
<path d="M56.7473 37.5444C55.8052 41.7452 52.1037 44.7278 47.8332 44.7278H21.8311V37.5444H56.7473Z" fill="#F46628"/>
<path d="M59.0098 24.72L56.7476 37.5497L48.1846 37.6663L50.462 24.72H59.0098Z" fill="#F46628"/>
<path d="M41.0726 37.5782C46.3609 37.5782 48.6433 34.7216 49.0195 32.9275L51.7762 32.2734L51.5771 37.091L48.7682 39.4775H39.1475C37.5857 38.8445 35.7843 37.5782 41.0726 37.5782Z" fill="#F46628"/>
<path d="M48.7215 24.9237C50.272 24.9237 50.1414 26.5789 50.0121 27.2651L51.1941 26.893L52.0615 23.8728L50.0285 23.7703L46.7761 24.0777C46.7806 24.3557 47.1713 24.9237 48.7215 24.9237Z" fill="#F46628"/>
<path d="M3.44976 28.4949H40.4248C41.026 28.4949 41.4811 29.0429 41.3756 29.6395L41.0757 31.338C40.8021 32.8869 39.4666 34.0152 37.9063 34.0152H2.48145L3.44976 28.4949Z" fill="#F46628"/>
<path d="M7.27544 28.4949H44.2505C44.8517 28.4949 45.3068 29.0429 45.2013 29.6395L44.9014 31.338C44.6278 32.8869 43.2923 34.0152 41.732 34.0152H6.30713L7.27544 28.4949Z" fill="#F46628"/>
<path d="M60.6033 15.8746H26.9865C25.9254 15.8746 25.6405 14.3995 26.624 13.9979L39.0357 8.92858C39.4196 8.77177 39.83 8.69116 40.2443 8.69116H61.8632L60.6033 15.8746Z" fill="#F46628"/>
<path d="M5.67603 15.8744C6.61822 11.6736 10.3196 8.69092 14.5903 8.69092H40.5925V15.8744H5.67603Z" fill="#F46628"/>
<path d="M3.41382 28.6986L5.67616 15.8688L14.2391 15.7524L11.9616 28.6986H3.41382Z" fill="#F46628"/>
<path d="M21.351 15.8404C16.0627 15.8404 13.7801 18.697 13.4041 20.491L10.6475 21.1451L10.8465 16.3274L13.6553 13.9409H23.2761C24.8379 14.5741 26.6393 15.8404 21.351 15.8404Z" fill="#F46628"/>
<path d="M13.7021 28.4949C12.1518 28.4949 12.2822 26.8397 12.4115 26.1536L11.2296 26.5256L10.3623 29.546L12.3951 29.6485L15.6475 29.341C15.643 29.063 15.2524 28.4949 13.7021 28.4949Z" fill="#F46628"/>
</g>
<defs>
<clipPath id="clip0_1001_5499">
<rect width="169.889" height="49.2937" fill="white" transform="translate(0.555664 -1.23267)"/>
</clipPath>
</defs>
</svg>
