<svg width="43" height="18" viewBox="0 0 43 18" fill="none" xmlns="http://www.w3.org/2000/svg">
<g clip-path="url(#clip0_1001_4352)">
<path d="M26.9738 0.535767H21.7822V10.8215H26.9738V0.535767Z" fill="#F46628"/>
<path d="M22.9108 3.42859H3.61157V7.82145H22.9108V3.42859Z" fill="#F46628"/>
<path d="M19.2992 4.39282H0V6.85711H19.2992V4.39282Z" fill="#F46628"/>
<path d="M29.3438 0H36.2283C39.9681 0 42.9999 2.87817 42.9999 6.42857V9H29.3438V0Z" fill="#F46628"/>
<path d="M9.25455 14.4107C9.25455 16.393 7.56181 18 5.47371 18C3.38562 18 1.69287 16.393 1.69287 14.4107C1.69287 12.4283 3.38562 10.8214 5.47371 10.8214C7.56181 10.8214 9.25455 12.4283 9.25455 14.4107ZM3.96137 14.4107C3.96137 15.2037 4.63847 15.8464 5.47371 15.8464C6.30895 15.8464 6.98605 15.2037 6.98605 14.4107C6.98605 13.6177 6.30895 12.975 5.47371 12.975C4.63847 12.975 3.96137 13.6177 3.96137 14.4107Z" fill="#F46628"/>
<path d="M17.8319 14.4107C17.8319 16.393 16.1393 18 14.0511 18C11.963 18 10.2703 16.393 10.2703 14.4107C10.2703 12.4283 11.963 10.8214 14.0511 10.8214C16.1393 10.8214 17.8319 12.4283 17.8319 14.4107ZM12.5388 14.4107C12.5388 15.2037 13.2158 15.8464 14.0511 15.8464C14.8864 15.8464 15.5634 15.2037 15.5634 14.4107C15.5634 13.6177 14.8864 12.975 14.0511 12.975C13.2158 12.975 12.5388 13.6177 12.5388 14.4107Z" fill="#F46628"/>
<path d="M35.664 14.4107C35.664 16.393 33.9713 18 31.8831 18C29.795 18 28.1023 16.393 28.1023 14.4107C28.1023 12.4283 29.795 10.8214 31.8831 10.8214C33.9713 10.8214 35.664 12.4283 35.664 14.4107ZM30.3708 14.4107C30.3708 15.2037 31.0479 15.8464 31.8831 15.8464C32.7184 15.8464 33.3955 15.2037 33.3955 14.4107C33.3955 13.6177 32.7184 12.975 31.8831 12.975C31.0479 12.975 30.3708 13.6177 30.3708 14.4107Z" fill="#F46628"/>
<path d="M29.3438 10.5535V8.78564H42.9999V16.2321H42.8871H36.3411C36.8377 14.5178 36.548 13.0893 36.3411 12.5892C36.153 12.0178 35.3028 10.7249 33.4067 10.1249C31.5107 9.52493 29.9081 10.1606 29.3438 10.5535Z" fill="#F46628"/>
</g>
<defs>
<clipPath id="clip0_1001_4352">
<rect width="43" height="18" fill="white"/>
</clipPath>
</defs>
</svg>
