<svg width="40" height="29" viewBox="0 0 40 29" fill="none" xmlns="http://www.w3.org/2000/svg">
<path d="M9 13H3V23H9V13Z" fill="#F46628"/>
<path d="M23 13H17V23H23V13Z" fill="#F46628"/>
<path d="M37 13H31V23H37V13Z" fill="#F46628"/>
<path d="M12 23H0V29H12V23Z" fill="#F46628"/>
<path d="M26 23H14V29H26V23Z" fill="#F46628"/>
<path d="M40 23H28V29H40V23Z" fill="#F46628"/>
<path d="M38 4.5C38 6.98528 35.9853 9 33.5 9C31.0147 9 29 6.98528 29 4.5C29 2.01472 31.0147 0 33.5 0C35.9853 0 38 2.01472 38 4.5ZM31.25 4.5C31.25 5.74264 32.2574 6.75 33.5 6.75C34.7426 6.75 35.75 5.74264 35.75 4.5C35.75 3.25736 34.7426 2.25 33.5 2.25C32.2574 2.25 31.25 3.25736 31.25 4.5Z" fill="#F46628"/>
<path d="M24 4.5C24 6.98528 21.9853 9 19.5 9C17.0147 9 15 6.98528 15 4.5C15 2.01472 17.0147 0 19.5 0C21.9853 0 24 2.01472 24 4.5ZM17.25 4.5C17.25 5.74264 18.2574 6.75 19.5 6.75C20.7426 6.75 21.75 5.74264 21.75 4.5C21.75 3.25736 20.7426 2.25 19.5 2.25C18.2574 2.25 17.25 3.25736 17.25 4.5Z" fill="#F46628"/>
<path d="M10 4.5C10 6.98528 7.98528 9 5.5 9C3.01472 9 1 6.98528 1 4.5C1 2.01472 3.01472 0 5.5 0C7.98528 0 10 2.01472 10 4.5ZM3.25 4.5C3.25 5.74264 4.25736 6.75 5.5 6.75C6.74264 6.75 7.75 5.74264 7.75 4.5C7.75 3.25736 6.74264 2.25 5.5 2.25C4.25736 2.25 3.25 3.25736 3.25 4.5Z" fill="#F46628"/>
</svg>
