<svg width="33" height="35" viewBox="0 0 33 35" fill="none" xmlns="http://www.w3.org/2000/svg">
<g clip-path="url(#clip0_1001_4371)">
<path d="M20.625 4.9C20.625 7.6062 18.4704 9.8 15.8125 9.8C13.1546 9.8 11 7.6062 11 4.9C11 2.1938 13.1546 0 15.8125 0C18.4704 0 20.625 2.1938 20.625 4.9ZM13.4062 4.9C13.4062 6.2531 14.4836 7.35 15.8125 7.35C17.1414 7.35 18.2188 6.2531 18.2188 4.9C18.2188 3.5469 17.1414 2.45 15.8125 2.45C14.4836 2.45 13.4062 3.5469 13.4062 4.9Z" fill="#F46628"/>
<path d="M8.25 26.6H0V35H8.25V26.6Z" fill="#F46628"/>
<path d="M20.625 26.6H12.375V35H20.625V26.6Z" fill="#F46628"/>
<path d="M13.75 14H5.5V22.4H13.75V14Z" fill="#F46628"/>
<path d="M33 26.6H24.75V35H33V26.6Z" fill="#F46628"/>
<path d="M26.125 14H17.875V22.4H26.125V14Z" fill="#F46628"/>
</g>
<defs>
<clipPath id="clip0_1001_4371">
<rect width="33" height="35" fill="white"/>
</clipPath>
</defs>
</svg>
