<svg width="26" height="26" viewBox="0 0 26 26" fill="none" xmlns="http://www.w3.org/2000/svg">
<path d="M13 8.45001V2.60001H7.15001C6.63284 2.60001 6.13685 2.80545 5.77115 3.17115C5.40546 3.53684 5.20001 4.03283 5.20001 4.55001V21.45C5.20001 21.9672 5.40546 22.4632 5.77115 22.8289C6.13685 23.1946 6.63284 23.4 7.15001 23.4H18.85C19.3672 23.4 19.8632 23.1946 20.2289 22.8289C20.5946 22.4632 20.8 21.9672 20.8 21.45V10.4H14.95C14.4328 10.4 13.9369 10.1946 13.5712 9.82886C13.2055 9.46317 13 8.96718 13 8.45001ZM7.80001 13.65C7.80001 13.4776 7.86849 13.3123 7.99039 13.1904C8.11229 13.0685 8.27762 13 8.45001 13C8.6224 13 8.78773 13.0685 8.90963 13.1904C9.03153 13.3123 9.10001 13.4776 9.10001 13.65C9.10001 13.8224 9.03153 13.9877 8.90963 14.1096C8.78773 14.2315 8.6224 14.3 8.45001 14.3C8.27762 14.3 8.11229 14.2315 7.99039 14.1096C7.86849 13.9877 7.80001 13.8224 7.80001 13.65ZM7.80001 16.25C7.80001 16.0776 7.86849 15.9123 7.99039 15.7904C8.11229 15.6685 8.27762 15.6 8.45001 15.6C8.6224 15.6 8.78773 15.6685 8.90963 15.7904C9.03153 15.9123 9.10001 16.0776 9.10001 16.25C9.10001 16.4224 9.03153 16.5877 8.90963 16.7096C8.78773 16.8315 8.6224 16.9 8.45001 16.9C8.27762 16.9 8.11229 16.8315 7.99039 16.7096C7.86849 16.5877 7.80001 16.4224 7.80001 16.25ZM7.80001 18.85C7.80001 18.6776 7.86849 18.5123 7.99039 18.3904C8.11229 18.2685 8.27762 18.2 8.45001 18.2C8.6224 18.2 8.78773 18.2685 8.90963 18.3904C9.03153 18.5123 9.10001 18.6776 9.10001 18.85C9.10001 19.0224 9.03153 19.1877 8.90963 19.3096C8.78773 19.4315 8.6224 19.5 8.45001 19.5C8.27762 19.5 8.11229 19.4315 7.99039 19.3096C7.86849 19.1877 7.80001 19.0224 7.80001 18.85ZM10.4 13.65C10.4 13.4776 10.4685 13.3123 10.5904 13.1904C10.7123 13.0685 10.8776 13 11.05 13H17.55C17.7224 13 17.8877 13.0685 18.0096 13.1904C18.1315 13.3123 18.2 13.4776 18.2 13.65C18.2 13.8224 18.1315 13.9877 18.0096 14.1096C17.8877 14.2315 17.7224 14.3 17.55 14.3H11.05C10.8776 14.3 10.7123 14.2315 10.5904 14.1096C10.4685 13.9877 10.4 13.8224 10.4 13.65ZM10.4 16.25C10.4 16.0776 10.4685 15.9123 10.5904 15.7904C10.7123 15.6685 10.8776 15.6 11.05 15.6H17.55C17.7224 15.6 17.8877 15.6685 18.0096 15.7904C18.1315 15.9123 18.2 16.0776 18.2 16.25C18.2 16.4224 18.1315 16.5877 18.0096 16.7096C17.8877 16.8315 17.7224 16.9 17.55 16.9H11.05C10.8776 16.9 10.7123 16.8315 10.5904 16.7096C10.4685 16.5877 10.4 16.4224 10.4 16.25ZM10.4 18.85C10.4 18.6776 10.4685 18.5123 10.5904 18.3904C10.7123 18.2685 10.8776 18.2 11.05 18.2H17.55C17.7224 18.2 17.8877 18.2685 18.0096 18.3904C18.1315 18.5123 18.2 18.6776 18.2 18.85C18.2 19.0224 18.1315 19.1877 18.0096 19.3096C17.8877 19.4315 17.7224 19.5 17.55 19.5H11.05C10.8776 19.5 10.7123 19.4315 10.5904 19.3096C10.4685 19.1877 10.4 19.0224 10.4 18.85ZM14.3 8.45001V2.92501L20.475 9.10001H14.95C14.7776 9.10001 14.6123 9.03152 14.4904 8.90963C14.3685 8.78773 14.3 8.6224 14.3 8.45001Z" fill="#F46628"/>
</svg>
