<svg width="84" height="84" viewBox="0 0 84 84" fill="none" xmlns="http://www.w3.org/2000/svg">
<path d="M42.0001 24.2813C38.4957 24.2813 35.07 25.3205 32.1561 27.2674C29.2423 29.2144 26.9712 31.9817 25.6302 35.2194C24.2891 38.457 23.9382 42.0197 24.6219 45.4568C25.3055 48.8939 26.9931 52.0511 29.4711 54.5291C31.9491 57.0071 35.1063 58.6946 38.5434 59.3783C41.9805 60.062 45.5431 59.7111 48.7808 58.37C52.0185 57.0289 54.7858 54.7579 56.7327 51.844C58.6797 48.9302 59.7189 45.5045 59.7189 42C59.7189 37.3007 57.8521 32.7939 54.5292 29.471C51.2063 26.1481 46.6994 24.2813 42.0001 24.2813ZM42.0001 55.7813C39.2745 55.7813 36.61 54.973 34.3437 53.4587C32.0774 51.9444 30.311 49.7921 29.2679 47.2739C28.2249 44.7557 27.9519 41.9847 28.4837 39.3114C29.0154 36.6381 30.328 34.1825 32.2553 32.2552C34.1827 30.3279 36.6383 29.0153 39.3116 28.4836C41.9849 27.9518 44.7558 28.2247 47.274 29.2678C49.7922 30.3109 51.9445 32.0773 53.4588 34.3436C54.9731 36.6099 55.7814 39.2743 55.7814 42C55.7814 45.655 54.3294 49.1604 51.745 51.7448C49.1605 54.3293 45.6552 55.7813 42.0001 55.7813ZM76.5189 49.7438L71.4986 43.05C71.5314 42.3281 71.4986 41.5078 71.4986 40.95L76.5189 34.2563C76.7005 34.0159 76.8245 33.7371 76.8814 33.4413C76.9383 33.1455 76.9265 32.8406 76.847 32.55C76.0365 29.5765 74.8454 26.72 73.3033 24.0516C73.1561 23.7929 72.953 23.5704 72.709 23.4001C72.4649 23.2298 72.1859 23.1161 71.8923 23.0672L63.6236 21.886C63.1314 21.361 62.6392 20.8688 62.1142 20.3766L60.933 12.1078C60.89 11.8165 60.7822 11.5384 60.6175 11.2942C60.4528 11.05 60.2354 10.8459 59.9814 10.6969C57.2959 9.16585 54.4301 7.97543 51.4501 7.15315C51.1596 7.07366 50.8547 7.06191 50.5589 7.1188C50.2631 7.17569 49.9842 7.29969 49.7439 7.48127L43.083 12.5016C42.3611 12.4797 41.6392 12.4797 40.9173 12.5016L34.2564 7.48127C34.016 7.29969 33.7372 7.17569 33.4414 7.1188C33.1456 7.06191 32.8407 7.07366 32.5501 7.15315C29.5766 7.96364 26.7202 9.15474 24.0517 10.6969C23.7931 10.8441 23.5705 11.0471 23.4002 11.2912C23.2299 11.5353 23.1162 11.8143 23.0673 12.1078L21.8861 20.3766C21.3611 20.8688 20.8689 21.361 20.3767 21.886L12.108 23.0672C11.8166 23.1102 11.5385 23.218 11.2944 23.3827C11.0502 23.5473 10.846 23.7647 10.697 24.0188C9.16598 26.7043 7.97555 29.5701 7.15327 32.55C7.07379 32.8406 7.06203 33.1455 7.11892 33.4413C7.17581 33.7371 7.29981 34.0159 7.4814 34.2563L12.5017 40.95C12.4689 41.6719 12.5017 42.4922 12.5017 43.05L7.4814 49.7438C7.29981 49.9841 7.17581 50.2629 7.11892 50.5587C7.06203 50.8545 7.07379 51.1595 7.15327 51.45C7.96376 54.4236 9.15486 57.28 10.697 59.9485C10.8384 60.2118 11.0398 60.4382 11.2849 60.6092C11.53 60.7802 11.812 60.8911 12.108 60.9328L20.3767 62.1141L21.8861 63.6235L23.0673 71.8922C23.1162 72.1858 23.2299 72.4648 23.4002 72.7088C23.5705 72.9529 23.7931 73.1559 24.0517 73.3031C26.723 74.8395 29.5787 76.0303 32.5501 76.8469L33.0751 76.9125C33.5011 76.9125 33.9156 76.7744 34.2564 76.5188L40.9173 71.4985H43.083L49.7439 76.5188C49.9842 76.7004 50.2631 76.8244 50.5589 76.8812C50.8547 76.9381 51.1596 76.9264 51.4501 76.8469C54.4321 76.0305 57.2986 74.8398 59.9814 73.3031C60.2354 73.1541 60.4528 72.95 60.6175 72.7058C60.7822 72.4616 60.89 72.1836 60.933 71.8922L62.1142 63.6235C62.6392 63.1313 63.197 62.5406 63.5908 62.1141L71.8923 60.9328C72.1837 60.8899 72.4617 60.7821 72.7059 60.6174C72.9501 60.4527 73.1542 60.2353 73.3033 59.9813C74.8343 57.2958 76.0247 54.4299 76.847 51.45C76.9265 51.1595 76.9383 50.8545 76.8814 50.5587C76.8245 50.2629 76.7005 49.9841 76.5189 49.7438ZM70.3501 57.1594L62.3767 58.3078C61.933 58.3829 61.5218 58.5886 61.1955 58.8985C60.8017 59.3578 59.5876 60.6047 58.9642 61.1625C58.6107 61.4784 58.3786 61.9078 58.308 62.3766L57.1595 70.35C55.3022 71.36 53.3448 72.1737 51.3189 72.7782L44.8548 67.9219C44.483 67.6568 44.0307 67.5292 43.5751 67.561H40.4251C39.9696 67.5292 39.5173 67.6568 39.1455 67.9219L32.6814 72.7782C30.6504 72.1881 28.6915 71.3737 26.8408 70.35L25.6923 62.3766C25.6217 61.9078 25.3896 61.4784 25.0361 61.1625C24.2549 60.4798 23.5204 59.7453 22.8376 58.9641C22.5218 58.6106 22.0924 58.3784 21.6236 58.3078L13.6501 57.1594C12.6402 55.3021 11.8264 53.3447 11.222 51.3188L16.0783 44.8547C16.3389 44.4916 16.4768 44.0548 16.472 43.6078C16.4392 43.0172 16.4064 41.2781 16.4392 40.425C16.4709 39.9695 16.3433 39.5171 16.0783 39.1453L11.222 32.6813C11.812 30.6503 12.6264 28.6913 13.6501 26.8407L21.6236 25.6922C22.0924 25.6216 22.5218 25.3895 22.8376 25.036C23.5204 24.2547 24.2549 23.5203 25.0361 22.8375C25.3896 22.5217 25.6217 22.0923 25.6923 21.6235L26.8408 13.65C28.6981 12.6401 30.6555 11.8263 32.6814 11.2219L39.1455 16.0781C39.5173 16.3432 39.9696 16.4708 40.4251 16.4391C41.4751 16.4172 42.5251 16.4172 43.5751 16.4391C44.0307 16.4708 44.483 16.3432 44.8548 16.0781L51.3189 11.2219C53.3499 11.8119 55.3088 12.6263 57.1595 13.65L58.308 21.6235C58.3786 22.0923 58.6107 22.5217 58.9642 22.8375C59.7454 23.5203 60.4799 24.2547 61.1626 25.036C61.4785 25.3895 61.9079 25.6216 62.3767 25.6922L70.3501 26.8407C71.3601 28.698 72.1738 30.6554 72.7783 32.6813L67.922 39.1453C67.6614 39.5085 67.5235 39.9453 67.5283 40.3922C67.5611 40.9828 67.5939 42.7219 67.5611 43.575C67.5294 44.0305 67.6569 44.4829 67.922 44.8547L72.7783 51.3188C72.1883 53.3498 71.3739 55.3087 70.3501 57.1594Z" fill="#F46628"/>
</svg>
