<svg width="25" height="24" viewBox="0 0 25 24" fill="none" xmlns="http://www.w3.org/2000/svg">
<circle cx="12.0618" cy="12" r="12" fill="white"/>
<path d="M8.97363 9.50925C8.97209 9.54558 8.978 9.58184 8.99099 9.61581C9.00398 9.64977 9.02378 9.68072 9.04918 9.70674C9.07457 9.73277 9.10502 9.75333 9.13866 9.76715C9.17229 9.78097 9.20839 9.78777 9.24475 9.78713H10.1729C10.3281 9.78713 10.4519 9.66 10.4721 9.50588C10.5734 8.76787 11.0796 8.23013 11.9819 8.23013C12.7536 8.23013 13.4601 8.616 13.4601 9.54412C13.4601 10.2585 13.0394 10.587 12.3745 11.0865C11.6174 11.6366 11.0178 12.279 11.0605 13.3219L11.0639 13.566C11.0651 13.6398 11.0952 13.7102 11.1478 13.762C11.2004 13.8137 11.2713 13.8428 11.3451 13.8427H12.2575C12.3321 13.8427 12.4036 13.8131 12.4564 13.7604C12.5091 13.7076 12.5388 13.6361 12.5388 13.5615V13.4434C12.5388 12.6356 12.8459 12.4005 13.675 11.7716C14.3601 11.2508 15.0745 10.6725 15.0745 9.45863C15.0745 7.75875 13.639 6.9375 12.0674 6.9375C10.642 6.9375 9.0805 7.60125 8.97363 9.50925ZM10.7253 15.9926C10.7253 16.5922 11.2034 17.0355 11.8615 17.0355C12.5466 17.0355 13.018 16.5922 13.018 15.9926C13.018 15.3716 12.5455 14.9351 11.8604 14.9351C11.2034 14.9351 10.7253 15.3716 10.7253 15.9926Z" fill="#9F9F9F"/>
</svg>
