<svg width="26" height="26" viewBox="0 0 26 26" fill="none" xmlns="http://www.w3.org/2000/svg">
<path d="M13.0001 22.7501C11.6318 21.583 10.3635 20.3034 9.20842 18.9249C7.47508 16.8546 5.41675 13.7714 5.41675 10.8334C5.41521 7.76496 7.26302 4.99796 10.0979 3.82363C12.9328 2.6493 16.196 3.29913 18.3647 5.46987C19.7909 6.88969 20.5898 8.82104 20.5835 10.8334C20.5835 13.7714 18.5251 16.8546 16.7917 18.9249C15.6367 20.3034 14.3684 21.583 13.0001 22.7501ZM13.0001 5.41678C10.01 5.42036 7.587 7.84339 7.58342 10.8334C7.58342 12.0966 8.15433 14.2839 10.8713 17.5349C11.541 18.3345 12.2515 19.0989 13.0001 19.8251C13.7487 19.0998 14.4596 18.3365 15.1299 17.5382C17.8458 14.2828 18.4168 12.0955 18.4168 10.8334C18.4132 7.84339 15.9901 5.42036 13.0001 5.41678ZM13.0001 14.0834C11.2052 14.0834 9.75008 12.6284 9.75008 10.8334C9.75008 9.03852 11.2052 7.58345 13.0001 7.58345C14.795 7.58345 16.2501 9.03852 16.2501 10.8334C16.2501 11.6954 15.9077 12.5221 15.2982 13.1315C14.6887 13.741 13.862 14.0834 13.0001 14.0834Z" fill="#F46628"/>
</svg>
