<svg width="139" height="39" viewBox="0 0 139 39" fill="none" xmlns="http://www.w3.org/2000/svg">
<path d="M63.2509 25.6858C62.5766 25.6858 62.044 25.5083 61.6536 25.1532C61.2632 24.7806 61.0681 24.2927 61.0681 23.6891C61.0681 23.6003 61.0857 23.4318 61.1213 23.1834L63.9698 7.05127H72.4086C74.4138 7.05127 75.9933 7.53043 77.147 8.48877C78.3183 9.44712 78.904 10.7338 78.904 12.3488C78.904 12.5795 78.8684 12.9611 78.7974 13.4935L77.9191 18.7111C77.5284 21.0005 76.6678 22.7397 75.3368 23.9288C74.0056 25.1001 72.2488 25.6858 70.0658 25.6858H63.2509ZM70.119 22.438C72.4086 22.438 73.7839 21.1425 74.2453 18.5514L75.1237 13.6532C75.1593 13.4935 75.1771 13.2628 75.1771 12.9611C75.1771 12.1447 74.902 11.4969 74.3519 11.0177C73.8015 10.5386 73.065 10.299 72.1423 10.299H67.0578L64.9279 22.438H70.119ZM83.7795 25.8987C82.4307 25.8987 81.3658 25.6149 80.5849 25.0469C79.8041 24.479 79.4137 23.7159 79.4137 22.7575C79.4137 22.6155 79.4315 22.4025 79.4668 22.1186L79.6531 21.0804C79.8663 19.9268 80.4164 19.0306 81.3038 18.3917C82.2088 17.735 83.3625 17.4067 84.7644 17.4067H86.3617C86.8763 17.4067 87.4264 17.4688 88.0122 17.5931C88.6155 17.7173 89.139 17.8859 89.5829 18.0988L89.8223 16.7146C89.8401 16.6436 89.8489 16.5371 89.8489 16.3951C89.8489 16.0402 89.7248 15.7562 89.4763 15.5433C89.2456 15.3303 88.9171 15.2238 88.4914 15.2238H86.2286C85.7138 15.2238 85.288 15.3392 84.9508 15.5699C84.6135 15.8006 84.4094 16.1112 84.3384 16.5016H80.8246C81.0729 15.1351 81.6852 14.0791 82.6614 13.3338C83.6376 12.5706 84.8798 12.1891 86.3883 12.1891H88.6511C90.1418 12.1891 91.3221 12.5263 92.1917 13.2007C93.0788 13.875 93.5227 14.7801 93.5227 15.916C93.5227 16.1822 93.4961 16.4484 93.4427 16.7146L91.8454 25.6858H88.4914L88.7842 24.0885C88.2341 24.6565 87.6483 25.1001 87.0272 25.4195C86.4237 25.739 85.856 25.8987 85.3234 25.8987H83.7795ZM85.8026 23.1302C86.4415 23.1302 87.0538 22.9616 87.6396 22.6244C88.2251 22.2872 88.6864 21.8346 89.0237 21.2667L89.1037 20.8142C88.873 20.6012 88.5092 20.4326 88.0122 20.3084C87.5152 20.1841 86.9828 20.122 86.4149 20.122H84.7644C84.3206 20.122 83.957 20.2285 83.6729 20.4415C83.3891 20.6367 83.2115 20.9206 83.1406 21.2933L83.0074 21.9855C82.9365 22.3227 83.0252 22.5977 83.2737 22.8107C83.5398 23.0237 83.9126 23.1302 84.3918 23.1302H85.8026Z" fill="#2B1A51"/>
<path d="M100.869 25.8988C99.1127 25.8988 97.7283 25.4552 96.7168 24.5678C95.7228 23.6804 95.2261 22.4825 95.2261 20.9739C95.2261 20.5303 95.2614 20.1043 95.3324 19.6962H98.953C98.9174 20.0156 98.8996 20.2374 98.8996 20.3617C98.8996 21.0716 99.0949 21.6306 99.4853 22.0388C99.8757 22.447 100.408 22.6511 101.083 22.6511H104.011C104.792 22.6511 105.457 22.4913 106.007 22.1719C106.557 21.8347 106.877 21.391 106.966 20.8408L107.125 19.9091L107.152 19.6695C107.152 19.3146 107.01 19.0218 106.726 18.7911C106.442 18.5426 106.034 18.374 105.502 18.2853L100.79 17.46C98.0034 16.9808 96.6102 15.7829 96.6102 13.8662C96.6102 13.6 96.6368 13.3338 96.6902 13.0676L96.9563 11.5769C97.2226 10.0861 97.9324 8.92365 99.0859 8.08955C100.257 7.25543 101.739 6.83838 103.532 6.83838H106.513C108.164 6.83838 109.468 7.25543 110.426 8.08955C111.385 8.90592 111.864 10.0151 111.864 11.4171C111.864 11.8253 111.829 12.2069 111.757 12.5618H108.137C108.173 12.2779 108.19 12.0827 108.19 11.9762C108.19 11.3905 108.022 10.9291 107.684 10.5919C107.365 10.2547 106.921 10.0861 106.353 10.0861H103.372C102.626 10.0861 101.997 10.2458 101.482 10.5653C100.967 10.8847 100.665 11.3106 100.577 11.8431L100.444 12.5884C100.426 12.6594 100.417 12.757 100.417 12.8813C100.417 13.5911 100.94 14.0437 101.988 14.2389L106.699 15.0908C109.539 15.6054 110.959 16.8034 110.959 18.6846C110.959 18.8088 110.941 19.0307 110.906 19.3501L110.613 21.1071C110.364 22.6156 109.645 23.7957 108.456 24.6475C107.285 25.4818 105.768 25.8988 103.904 25.8988H100.869ZM115.651 7.05134H119.324L117.967 14.7447H126.645L128.003 7.05134H131.676L128.402 25.6859H124.728L126.086 17.9392H117.408L116.05 25.6859H112.376L115.651 7.05134ZM135.232 7.05134H138.906L135.632 25.6859H131.958L135.232 7.05134Z" fill="#F46628"/>
<path d="M64.4037 35.548H65.2138L64.8087 37.8398H64.0447L64.3225 36.2888H59.6004L59.3224 37.8398H58.5586L58.9636 35.548H59.6696C60.1481 35.0464 60.4761 34.3172 60.6536 33.3606L61.1513 30.5015H65.2947L64.4037 35.548ZM60.6304 35.548H63.6396L64.4037 31.2424H61.7878L61.4174 33.3606C61.2708 34.2324 61.0084 34.9615 60.6304 35.548ZM69.6388 30.3628C70.5106 30.3628 71.1742 30.6637 71.6295 31.2656C72.0926 31.8674 72.2391 32.5851 72.0694 33.4184C72.0462 33.5571 72.0153 33.6768 71.9767 33.7771H66.9188C66.8957 34.3636 67.0576 34.8303 67.4048 35.1776C67.7599 35.517 68.242 35.687 68.8517 35.687C69.7391 35.687 70.4219 35.3551 70.9003 34.6915L71.5022 35.0851C71.2244 35.5095 70.8308 35.8411 70.3216 36.0803C69.82 36.312 69.2952 36.4276 68.7475 36.4276C67.8523 36.4276 67.1656 36.1267 66.6874 35.5248C66.209 34.923 66.0468 34.1746 66.2011 33.2794C66.3477 32.4307 66.7452 31.7323 67.3934 31.1846C68.0491 30.6366 68.7978 30.3628 69.6388 30.3628ZM67.0344 33.0365H71.3402C71.3863 32.4037 71.2476 31.9252 70.9235 31.6011C70.5994 31.2695 70.1558 31.1034 69.5925 31.1034C68.9829 31.1034 68.4466 31.2809 67.9835 31.636C67.5282 31.9832 67.212 32.45 67.0344 33.0365ZM77.7342 30.5015L77.607 31.2424H75.5583L74.6672 36.2888H73.9032L74.7945 31.2424H72.7459L72.8732 30.5015H77.7342ZM83.4394 30.5015H84.2031L83.1845 36.2888H82.4207L82.5944 35.3049C81.9694 36.0535 81.1322 36.4276 80.0826 36.4276C79.2725 36.4276 78.6204 36.1152 78.1266 35.4902C77.6328 34.8652 77.4592 34.1282 77.6057 33.2794C77.7679 32.3534 78.1654 31.636 78.798 31.1266C79.4383 30.6174 80.1446 30.3628 80.9161 30.3628C81.4177 30.3628 81.8767 30.4823 82.2935 30.7215C82.7102 30.9529 83.0187 31.2887 83.2194 31.7284L83.4394 30.5015ZM80.268 35.687C80.9008 35.687 81.4677 35.4863 81.9694 35.0851C82.471 34.6759 82.7834 34.159 82.9068 33.5342L82.9299 33.3952C83.038 32.6853 82.8914 32.1259 82.4902 31.7169C82.0967 31.308 81.5911 31.1034 80.9739 31.1034C80.3721 31.1034 79.8166 31.3002 79.3074 31.6938C78.8058 32.0874 78.4931 32.6351 78.3698 33.3374C78.2617 33.9856 78.389 34.5411 78.7516 35.0039C79.1143 35.4592 79.6198 35.687 80.268 35.687ZM90.5654 30.5015L89.5468 36.2888H88.783L89.6744 31.2424H87.0585L86.6071 33.8234C86.4296 34.8342 86.1325 35.5095 85.7158 35.8489C85.3068 36.1884 84.7706 36.3349 84.107 36.2888L84.2343 35.5711C84.6664 35.6175 85.0098 35.5134 85.2644 35.2585C85.5268 35.0039 85.7197 34.5255 85.8431 33.8234L86.422 30.5015H90.5654ZM96.3966 30.5015H97.0448L96.0262 36.2888H95.2624L96.0262 31.8906L91.8132 36.2888H91.1651L92.1837 30.5015H92.9474L92.172 34.8998L96.3966 30.5015ZM105.616 32.122C105.516 32.6931 105.219 33.0982 104.725 33.3374C105.003 33.4608 105.204 33.6459 105.327 33.8929C105.458 34.1397 105.493 34.4214 105.431 34.7379C105.354 35.2085 105.138 35.5865 104.783 35.8721C104.428 36.1498 103.95 36.2888 103.348 36.2888H100.535L101.554 30.5015H104.135C104.644 30.5015 105.038 30.6598 105.315 30.9761C105.601 31.2926 105.701 31.6745 105.616 32.122ZM104.852 32.0988C104.906 31.8289 104.856 31.6204 104.702 31.4738C104.555 31.3195 104.32 31.2424 103.996 31.2424H102.19L101.878 33.0016H103.626C103.965 33.0016 104.243 32.9245 104.459 32.7702C104.675 32.6083 104.806 32.3844 104.852 32.0988ZM104.69 34.622C104.737 34.3521 104.683 34.1397 104.528 33.9856C104.374 33.8234 104.127 33.7424 103.787 33.7424H101.751L101.426 35.548H103.475C103.799 35.548 104.069 35.467 104.285 35.3049C104.501 35.1351 104.636 34.9076 104.69 34.622ZM112.33 30.5015H113.093L112.075 36.2888H111.311L111.485 35.3049C110.86 36.0535 110.022 36.4276 108.973 36.4276C108.163 36.4276 107.511 36.1152 107.017 35.4902C106.523 34.8652 106.349 34.1282 106.496 33.2794C106.658 32.3534 107.056 31.636 107.688 31.1266C108.329 30.6174 109.035 30.3628 109.806 30.3628C110.308 30.3628 110.767 30.4823 111.184 30.7215C111.601 30.9529 111.909 31.2887 112.11 31.7284L112.33 30.5015ZM109.158 35.687C109.791 35.687 110.358 35.4863 110.86 35.0851C111.361 34.6759 111.674 34.159 111.797 33.5342L111.82 33.3952C111.928 32.6853 111.782 32.1259 111.381 31.7169C110.987 31.308 110.482 31.1034 109.864 31.1034C109.262 31.1034 108.707 31.3002 108.198 31.6938C107.696 32.0874 107.383 32.6351 107.26 33.3374C107.152 33.9856 107.279 34.5411 107.642 35.0039C108.005 35.4592 108.51 35.687 109.158 35.687ZM121.331 30.5015L118.391 33.3489L120.428 36.2888H119.595L117.639 33.4647L117.141 36.2888H116.377L116.875 33.4762L114.016 36.2888H113.113L116.227 33.2101L114.224 30.5015H115.092L116.944 33.0711L117.396 30.5015H118.16L117.697 33.1174L120.405 30.5015H121.331ZM126.584 30.5015H127.348L126.329 36.2888H125.566L126.005 33.7656H122.672L122.232 36.2888H121.468L122.487 30.5015H123.251L122.811 33.0248H126.144L126.584 30.5015ZM130.931 32.7007C131.448 32.7007 131.868 32.8821 132.192 33.2447C132.517 33.6073 132.632 34.0473 132.54 34.5643C132.447 35.0888 132.189 35.5095 131.764 35.8257C131.348 36.1345 130.858 36.2888 130.294 36.2888H127.945L128.963 30.5015H129.727L129.345 32.7007H130.931ZM134.056 30.5015H134.82L133.801 36.2888H133.037L134.056 30.5015ZM131.301 35.2585C131.564 35.0656 131.722 34.811 131.776 34.4948C131.83 34.1785 131.76 33.9236 131.567 33.7307C131.375 33.5378 131.116 33.4415 130.792 33.4415H129.206L128.836 35.548H130.422C130.746 35.548 131.039 35.4514 131.301 35.2585Z" fill="#2B1A51"/>
<path d="M47.7969 20.221L17.5446 20.221C17.0527 20.221 16.6804 19.7765 16.7666 19.2923L17.012 17.9144C17.2358 16.6576 18.3286 15.7422 19.6052 15.7422H48.5892L47.7969 20.221Z" fill="#F46628"/>
<path d="M44.6665 20.221L14.4142 20.221C13.9224 20.221 13.55 19.7765 13.6362 19.2923L13.8816 17.9144C14.1054 16.6576 15.1983 15.7422 16.4748 15.7422H45.4588L44.6665 20.221Z" fill="#F46628"/>
<path d="M1.03483 30.4604H28.5395C29.4076 30.4604 29.6408 31.6571 28.836 31.9831L18.681 36.0958C18.3669 36.2231 18.0311 36.2885 17.6922 36.2885H0.00390625L1.03483 30.4604Z" fill="#F46628"/>
<path d="M45.9751 30.4604C45.2043 33.8686 42.1758 36.2885 38.6817 36.2885H17.4072V30.4604H45.9751Z" fill="#F46628"/>
<path d="M47.826 20.0562L45.9751 30.4652L38.969 30.5598L40.8323 20.0562H47.826Z" fill="#F46628"/>
<path d="M33.1502 30.488C37.477 30.488 39.3445 28.1703 39.6522 26.7147L41.9077 26.1841L41.7448 30.0927L39.4466 32.0289H31.5751C30.2973 31.5153 28.8234 30.488 33.1502 30.488Z" fill="#F46628"/>
<path d="M39.4086 20.221C40.6771 20.221 40.5703 21.5639 40.4645 22.1206L41.4316 21.8187L42.1413 19.3683L40.4779 19.2852L37.8169 19.5346C37.8206 19.7601 38.1403 20.221 39.4086 20.221Z" fill="#F46628"/>
<path d="M2.36769 23.1187H32.62C33.1119 23.1187 33.4842 23.5633 33.3979 24.0473L33.1526 25.4254C32.9287 26.682 31.836 27.5974 30.5594 27.5974H1.57544L2.36769 23.1187Z" fill="#F46628"/>
<path d="M5.49806 23.1187H35.7504C36.2423 23.1187 36.6146 23.5633 36.5283 24.0473L36.283 25.4254C36.0591 26.682 34.9664 27.5974 33.6898 27.5974H4.70581L5.49806 23.1187Z" fill="#F46628"/>
<path d="M49.13 12.8793H21.6254C20.7572 12.8793 20.5241 11.6826 21.3288 11.3567L31.4839 7.24389C31.7979 7.11667 32.1337 7.05127 32.4727 7.05127H50.1608L49.13 12.8793Z" fill="#F46628"/>
<path d="M4.18945 12.8793C4.96034 9.47119 7.98874 7.05127 11.483 7.05127H32.7574V12.8793H4.18945Z" fill="#F46628"/>
<path d="M2.33862 23.2838L4.18963 12.8747L11.1957 12.7803L9.33226 23.2838H2.33862Z" fill="#F46628"/>
<path d="M17.0143 12.8517C12.6875 12.8517 10.8199 15.1693 10.5123 16.6248L8.25684 17.1554L8.41968 13.2468L10.7178 11.3105H18.5894C19.8672 11.8243 21.341 12.8517 17.0143 12.8517Z" fill="#F46628"/>
<path d="M10.756 23.1188C9.48755 23.1188 9.59423 21.7759 9.70002 21.2192L8.73307 21.5211L8.02344 23.9716L9.68663 24.0548L12.3477 23.8053C12.344 23.5797 12.0244 23.1188 10.756 23.1188Z" fill="#F46628"/>
</svg>
