<svg width="31" height="31" viewBox="0 0 31 31" fill="none" xmlns="http://www.w3.org/2000/svg">
<path d="M16.7917 27.125H6.45833C5.0316 27.125 3.875 25.9684 3.875 24.5417V6.45833C3.875 5.0316 5.0316 3.875 6.45833 3.875H24.5417C25.9684 3.875 27.125 5.0316 27.125 6.45833V16.7917C27.1244 16.8066 27.1218 16.8214 27.1172 16.8356C27.1135 16.8474 27.111 16.8595 27.1095 16.8717C27.1022 16.9857 27.0801 17.0981 27.0436 17.2063L27.032 17.2412C27.0233 17.2703 27.0125 17.2988 26.9997 17.3264C26.9372 17.4671 26.8496 17.5954 26.7414 17.7049L17.6997 26.7465C17.4588 26.9875 17.1324 27.1236 16.7917 27.125ZM6.45833 6.45833V24.5417H15.5V16.7917C15.5 16.0783 16.0783 15.5 16.7917 15.5H24.5417V6.45833H6.45833ZM18.0833 18.0833V22.7165L22.7153 18.0833H18.0833Z" fill="#F46628"/>
</svg>
