<svg width="77" height="84" viewBox="0 0 77 84" fill="none" xmlns="http://www.w3.org/2000/svg">
<path d="M17.1512 55.2926L17.1512 55.2926C21.6763 59.8596 26.2019 64.426 30.7281 68.9918C31.4077 69.6773 31.9933 69.9762 32.5412 69.9763C33.0888 69.9763 33.6729 69.6778 34.3495 68.9909C37.4792 65.8126 40.6059 62.6312 43.7325 59.4499L44.4103 58.7601L17.1512 55.2926ZM17.1512 55.2926C16.501 54.6366 16.2136 54.0492 16.2138 53.4939M17.1512 55.2926L16.2138 53.4939M16.2138 53.4939C16.2139 52.9386 16.5019 52.3487 17.155 51.6879M16.2138 53.4939L17.155 51.6879M17.155 51.6879C19.585 49.2296 22.0169 46.7731 24.4533 44.3119M17.155 51.6879L24.4533 44.3119M24.4533 44.3119C25.525 43.2294 26.5976 42.146 27.6712 41.0611M24.4533 44.3119L27.6712 41.0611M27.6712 41.0611C33.4075 46.8511 39.0635 52.5601 44.7969 58.3476C44.7958 58.3487 44.7948 58.3498 44.7938 58.351C44.6759 58.4799 44.5471 58.6207 44.4105 58.76L27.6712 41.0611ZM31.9718 27.8053L31.9718 27.8053C29.8823 29.8463 27.8245 31.9231 25.8042 34.0341L25.8042 34.0342C24.7622 35.1233 24.5272 36.5267 25.2324 37.8681L25.2325 37.8681C25.3966 38.1803 25.3995 38.3518 25.3606 38.4745C25.3151 38.6183 25.197 38.7558 24.9775 38.9759C22.2939 41.6668 19.6197 44.3673 16.9459 47.0672C16.2545 47.7654 15.5631 48.4635 14.8716 49.1615L14.8716 49.1615C13.5504 50.4954 12.8565 51.9647 12.8406 53.4544C12.8247 54.9451 13.4882 56.414 14.7987 57.7452C19.3746 62.3939 23.9678 67.0244 28.5728 71.6429C29.7512 72.8249 31.1661 73.4223 32.5931 73.4199C34.0198 73.4174 35.4355 72.8154 36.6164 71.641C37.6721 70.5916 38.7185 69.5316 39.764 68.4727C40.1369 68.095 40.5098 67.7173 40.8828 67.3404C42.5044 65.7019 44.1253 64.0629 45.7402 62.4298C46.3217 61.8418 46.9024 61.2545 47.4822 60.6684C48.5104 61.1732 49.3184 61.4104 50.0944 61.2808C50.9103 61.1445 51.634 60.6123 52.5106 59.7279C52.8714 59.3638 53.2324 58.9997 53.5933 58.6356C54.9158 57.3014 56.2386 55.967 57.5594 54.6311L57.3816 54.4553L57.5594 54.631C58.4818 53.6979 58.9698 52.6981 58.9716 51.6744C58.9734 50.6504 58.4887 49.6528 57.5689 48.7244C55.6487 46.786 53.7276 44.848 51.8065 42.9101C50.7103 41.8043 49.6142 40.6985 48.5181 39.5926C47.411 38.4755 46.3043 37.3579 45.1976 36.2402C42.4802 33.4961 39.7626 30.7516 37.0382 28.0144C36.2798 27.2525 35.3905 26.8294 34.4927 26.7869C33.5922 26.7442 32.7087 27.0857 31.9718 27.8053ZM49.6115 57.7171L49.6115 57.7171C49.5173 57.8124 49.4548 57.8414 49.4223 57.8498C49.397 57.8563 49.375 57.8546 49.3419 57.8387C49.3017 57.8192 49.2531 57.7817 49.1887 57.7187C49.1576 57.6881 49.126 57.6549 49.0914 57.6182L49.0805 57.6067C49.0499 57.5742 49.0166 57.539 48.9829 57.505C47.015 55.5229 45.048 53.5399 43.0816 51.5557C41.9042 50.3675 40.7272 49.1787 39.5501 47.9897C35.9231 44.326 32.2955 40.6618 28.6516 37.0149L28.4748 37.1916L28.6516 37.0148C28.3691 36.7321 28.282 36.5643 28.2775 36.439C28.2733 36.3224 28.3395 36.1572 28.6312 35.8747L28.6312 35.8747C30.417 34.145 32.1573 32.3677 33.8832 30.5817C34.1247 30.3319 34.2707 30.254 34.3786 30.2473C34.4759 30.2413 34.6242 30.2906 34.8807 30.5504C40.0138 35.7535 45.1586 40.945 50.3032 46.1361C51.9752 47.8232 53.6471 49.5103 55.3186 51.1977L55.3186 51.1978C55.407 51.2869 55.4818 51.3799 55.5878 51.5114C55.6128 51.5425 55.6395 51.5756 55.6686 51.6114C55.1613 52.1225 54.6572 52.6302 54.1556 53.1353C52.6243 54.6775 51.1163 56.196 49.6115 57.7171Z" fill="#F46628" stroke="#F46628" stroke-width="0.5"/>
<path d="M50.6371 22.0129C50.7478 21.4459 50.4065 20.7845 50.0686 20.1296C49.9334 19.8678 49.7988 19.6069 49.6939 19.3536L50.6371 22.0129ZM50.6371 22.0129C50.5257 22.5836 49.9607 23.0693 49.4016 23.5499C49.18 23.7404 48.9593 23.9301 48.7681 24.124L50.6371 22.0129ZM30.8482 8.31017L30.8482 8.31016C34.175 6.89248 37.5023 5.4769 40.8315 4.06495C41.296 3.86801 41.652 3.73763 41.9384 3.67545C42.2227 3.61375 42.4143 3.62473 42.5635 3.68482C42.7123 3.74475 42.8557 3.86834 43.0136 4.10698C43.1729 4.34786 43.3334 4.68501 43.5241 5.14436L43.5241 5.14439C44.0496 6.4095 44.5752 7.67451 45.1009 8.93951C46.5564 12.4421 48.0118 15.9446 49.4629 19.4492L49.4629 19.4492C49.5591 19.6815 49.678 19.9172 49.7958 20.146C49.8128 20.1792 49.8299 20.2122 49.8468 20.2451C49.9484 20.4419 50.0471 20.6333 50.1343 20.8227C50.3419 21.274 50.4527 21.6526 50.3917 21.965L50.3917 21.9651C50.3303 22.2795 50.0858 22.5894 49.7253 22.9293C49.5726 23.0732 49.4082 23.2145 49.2392 23.3598C49.2126 23.3827 49.1859 23.4056 49.1591 23.4287C48.9646 23.5962 48.7663 23.7697 48.5901 23.9485C47.3198 25.2366 46.0438 26.5185 44.8102 27.758C44.658 27.9109 44.5065 28.0631 44.3556 28.2147C43.7232 28.8502 43.6893 29.8659 44.277 30.5426C44.9297 31.294 46.0834 31.3318 46.7839 30.6249L64.0437 13.2053C64.1718 13.076 64.3699 13.0787 64.4781 13.1874C66.3766 15.0957 68.2746 17.0044 70.203 18.944C71.6483 20.3978 71.6582 22.7429 70.2252 24.209C65.1377 29.4139 60.1059 34.5615 55.1342 39.6472C54.5731 40.2212 54.4733 41.096 55.0309 41.7257C55.6219 42.393 56.7277 42.5034 57.3767 41.839L74.2076 24.6103C75.8288 22.9508 75.8196 20.2978 74.1868 18.6495L67.0238 11.4189C65.3656 9.74504 62.6622 9.73952 60.9973 11.4067L53.6617 18.7526C53.349 19.0658 52.8198 18.962 52.6532 18.5621C52.0147 17.0277 51.3772 15.4926 50.7398 13.9574C49.2898 10.4656 47.8396 6.97308 46.3758 3.48688C45.7828 2.0745 44.888 1.10107 43.7629 0.639703C42.6377 0.178288 41.3227 0.245631 39.9227 0.83468C36.4467 2.29704 32.9734 3.76684 29.5091 5.25848L29.509 5.25849C28.0822 5.87291 27.1077 6.77137 26.6518 7.90976C26.1962 9.04748 26.276 10.3814 26.8697 11.8325L26.8697 11.8325C27.784 14.0666 28.7093 16.2966 29.6344 18.526C30.0207 19.4568 30.4069 20.3875 30.7923 21.3184L30.8503 21.4587C31.2135 22.3352 32.225 22.742 33.0947 22.3657L33.4625 22.2065C34.0922 21.9341 34.4125 21.2043 34.1466 20.5586C33.6484 19.348 33.1494 18.1378 32.6504 16.9277C31.7622 14.7735 30.874 12.6195 29.9901 10.4635C29.7067 9.77198 29.6585 9.38149 29.7685 9.10783C29.8778 8.83586 30.1772 8.59605 30.8482 8.31017Z" fill="#F46628" stroke="#F46628" stroke-width="0.5"/>
<path d="M19.1262 75.6358L19.1262 75.6358C18.5892 76.1759 18.1764 76.3869 17.8064 76.382C17.435 76.3771 17.0227 76.1537 16.4893 75.6057C14.5617 73.625 12.6326 71.6459 10.7003 69.6698L10.7003 69.6698C10.157 69.1142 9.94177 68.7069 9.94307 68.3404C9.94437 67.9736 10.1628 67.5639 10.7158 67.0047L10.7158 67.0047C11.7173 65.9916 12.7216 64.9814 13.7308 63.9662C13.8182 63.8783 13.9057 63.7904 13.9931 63.7024C14.638 63.0537 14.6388 62.0062 13.9977 61.3549C13.3449 60.6917 12.2776 60.6921 11.6234 61.3528C10.62 62.3664 9.62542 63.3711 8.6305 64.3757C7.00043 66.0212 6.31706 67.4135 6.66894 69.0929C7.00994 70.7203 7.11562 72.3817 6.18536 73.6184L5.92025 73.9709L6.12003 74.1211L5.92025 73.9709C4.65413 75.6541 4.81157 78.0107 6.2904 79.5105L6.83674 80.0646C8.34056 81.5897 10.7443 81.7574 12.4454 80.456L12.7178 80.2476C13.9512 79.304 15.6213 79.3903 17.2494 79.7387C18.6258 80.0333 19.8102 79.652 20.9949 78.5791L20.9949 78.5791C22.1776 77.5076 23.2673 76.3315 24.3624 75.1496C24.5475 74.9499 24.7327 74.75 24.9186 74.5503C25.5066 73.9188 25.5816 72.967 24.9788 72.3053C24.3418 71.6061 23.1901 71.5179 22.5066 72.2123C22.412 72.3084 22.3175 72.4044 22.2232 72.5002C21.1788 73.5612 20.1551 74.6012 19.1262 75.6358ZM10.512 77.5438C9.95803 77.9529 9.21186 77.8904 8.75795 77.3886C8.33294 76.9188 8.28228 76.1995 8.64747 75.6958L8.99539 75.2158C9.51478 74.4994 10.5465 74.4219 11.1593 75.0549C11.7582 75.6735 11.6787 76.6823 10.9891 77.1915L10.512 77.5438Z" fill="#F46628" stroke="#F46628" stroke-width="0.5"/>
<path d="M37.3233 9.5248C36.4703 9.87873 36.0742 10.851 36.4218 11.7024C37.1471 13.4794 37.8665 15.2415 38.585 17.0015C39.2274 18.5752 39.8692 20.1472 40.5138 21.7265C40.8663 22.5899 41.8656 22.9904 42.7208 22.6352C43.5749 22.2806 43.9637 21.3099 43.6166 20.4597L39.5241 10.436C39.1722 9.57414 38.1797 9.16944 37.3233 9.5248Z" fill="#F46628" stroke="#F46628" stroke-width="0.5"/>
</svg>
