<svg width="412" height="242" viewBox="0 0 412 242" fill="none" xmlns="http://www.w3.org/2000/svg">
<path d="M392.583 109.114L144.083 109.114C140.043 109.114 136.984 105.463 137.693 101.485L139.708 90.1666C141.547 79.8431 150.523 72.3237 161.009 72.3237H399.091L392.583 109.114Z" fill="white"/>
<path d="M366.873 109.114L118.373 109.114C114.333 109.114 111.274 105.463 111.983 101.485L113.998 90.1666C115.837 79.8431 124.814 72.3237 135.299 72.3237H373.381L366.873 109.114Z" fill="white"/>
<path d="M8.46823 193.224H234.398C241.529 193.224 243.444 203.053 236.834 205.731L153.418 239.514C150.838 240.559 148.08 241.096 145.296 241.096H0L8.46823 193.224Z" fill="white"/>
<path d="M377.617 193.224C371.285 221.219 346.408 241.096 317.707 241.096H142.953V193.224H377.617Z" fill="white"/>
<path d="M392.82 107.761L377.617 193.263L320.067 194.04L335.373 107.761H392.82Z" fill="white"/>
<path d="M272.273 193.451C307.815 193.451 323.155 174.413 325.683 162.456L344.209 158.098L342.871 190.204L323.994 206.109H259.335C248.839 201.89 236.732 193.451 272.273 193.451Z" fill="white"/>
<path d="M323.679 109.114C334.099 109.114 333.222 120.145 332.352 124.717L340.297 122.238L346.126 102.11L332.463 101.427L310.604 103.476C310.635 105.328 313.261 109.114 323.679 109.114Z" fill="white"/>
<path d="M19.416 132.917H267.916C271.956 132.917 275.015 136.569 274.306 140.545L272.291 151.865C270.452 162.187 261.476 169.707 250.99 169.707H12.9082L19.416 132.917Z" fill="white"/>
<path d="M45.1323 132.917H293.632C297.673 132.917 300.732 136.569 300.022 140.545L298.007 151.865C296.168 162.187 287.192 169.707 276.706 169.707H38.6245L45.1323 132.917Z" fill="white"/>
<path d="M403.533 48.8081H177.603C170.471 48.8081 168.556 38.978 175.166 36.301L258.583 2.51732C261.163 1.47229 263.921 0.935059 266.705 0.935059H412L403.533 48.8081Z" fill="white"/>
<path d="M34.3789 48.8083C40.7112 20.8129 65.5872 0.935059 94.2898 0.935059H269.044V48.8083H34.3789Z" fill="white"/>
<path d="M19.1797 134.272L34.3843 48.7688L91.9339 47.9934L76.6272 134.272H19.1797Z" fill="white"/>
<path d="M139.726 48.5787C104.185 48.5787 88.844 67.6162 86.3174 79.5718L67.7905 83.9308L69.1282 51.8242L88.0057 35.9196H152.665C163.161 40.1393 175.267 48.5787 139.726 48.5787Z" fill="white"/>
<path d="M88.3189 132.92C77.8996 132.92 78.776 121.889 79.6449 117.316L71.7021 119.796L65.873 139.925L79.5349 140.608L101.394 138.559C101.363 136.706 98.7383 132.92 88.3189 132.92Z" fill="white"/>
</svg>
