<svg width="25" height="25" viewBox="0 0 25 25" fill="none" xmlns="http://www.w3.org/2000/svg">
<g clip-path="url(#clip0_1001_3114)">
<path d="M11.0805 19.5289C10.1059 20.4295 8.7579 20.6313 7.5623 20.0556C7.13007 19.8474 6.76532 19.56 6.47978 19.2158L4.8518 22.8166C4.77773 22.9804 4.86044 23.1039 4.89941 23.1493C4.93837 23.1947 5.04779 23.2953 5.22094 23.2471L6.40609 22.9172C6.54115 22.8797 6.67768 22.8616 6.8123 22.8616C7.38022 22.8616 7.91474 23.183 8.17211 23.7157L8.70736 24.8233C8.78554 24.9852 8.93217 25.0014 8.9932 25.0001C9.05307 24.9994 9.20033 24.9799 9.27436 24.8161L11.8639 19.0884C11.5793 19.1703 11.3099 19.3169 11.0805 19.5289Z" fill="#F46628"/>
<path d="M20.1479 22.8166L18.5199 19.2158C18.2344 19.5601 17.8696 19.8475 17.4374 20.0556C16.2417 20.6313 14.8938 20.4295 13.9192 19.5289C13.6898 19.3169 13.4204 19.1703 13.1357 19.0884L15.7252 24.8161C15.7993 24.98 15.9466 24.9994 16.0064 25.0001C16.0674 25.0014 16.2141 24.9852 16.2922 24.8233L16.8275 23.7157C17.0848 23.183 17.6194 22.8616 18.1873 22.8616C18.3219 22.8616 18.4585 22.8797 18.5935 22.9172L19.7787 23.2471C19.9518 23.2953 20.0613 23.1948 20.1002 23.1493C20.1393 23.1038 20.222 22.9803 20.1479 22.8166Z" fill="#F46628"/>
<path d="M21.4267 10.146C20.0747 9.22026 19.6552 7.38213 20.4717 5.96138C20.9624 5.10732 20.707 4.26338 20.3043 3.75835C19.9016 3.25347 19.1356 2.8167 18.1938 3.10503C16.6272 3.58486 14.9284 2.76689 14.3266 1.24268C13.9649 0.326465 13.1458 0 12.4999 0C11.8541 0 11.035 0.326465 10.6733 1.24272C10.0715 2.76699 8.37279 3.58486 6.80604 3.10508C5.86419 2.8168 5.09832 3.25347 4.69554 3.7584C4.29285 4.26343 4.03743 5.10728 4.5282 5.96143C5.34471 7.38213 4.92518 9.22031 3.57313 10.1461C2.76033 10.7027 2.62435 11.5738 2.768 12.2035C2.91165 12.8332 3.41224 13.559 4.38602 13.7078C6.00584 13.9553 7.18133 15.4293 7.06224 17.0636C6.99056 18.0461 7.5869 18.6956 8.16878 18.9759C8.75071 19.2561 9.6303 19.3174 10.3537 18.6488C10.9554 18.0928 11.7278 17.8147 12.4999 17.8147C13.2722 17.8147 14.0442 18.0927 14.646 18.6488C15.3695 19.3175 16.2492 19.2562 16.831 18.9759C17.4129 18.6957 18.0092 18.0461 17.9376 17.0637C17.8185 15.4293 18.994 13.9553 20.6138 13.7078C21.5876 13.559 22.0881 12.8332 22.2318 12.2035C22.3755 11.5737 22.2394 10.7026 21.4267 10.146ZM12.4999 16.4025C8.95623 16.4025 6.07322 13.5195 6.07322 9.97578C6.07322 6.43208 8.95618 3.54902 12.4999 3.54902C16.0437 3.54902 18.9266 6.43203 18.9266 9.97573C18.9266 13.5194 16.0436 16.4025 12.4999 16.4025Z" fill="#F46628"/>
<path d="M12.5 4.74756C9.61694 4.74756 7.27148 7.09307 7.27148 9.97603C7.27148 12.859 9.61689 15.2045 12.5 15.2045C15.383 15.2045 17.7284 12.859 17.7284 9.97603C17.7284 7.09307 15.383 4.74756 12.5 4.74756ZM15.1794 9.46909L11.9254 11.8458C11.8221 11.9212 11.6982 11.9611 11.572 11.9611C11.5395 11.9611 11.5068 11.9585 11.4743 11.9531C11.3157 11.9269 11.1742 11.838 11.0817 11.7063L10.1083 10.3205C9.91816 10.0497 9.98354 9.67598 10.2543 9.48579C10.5251 9.29561 10.8987 9.36094 11.089 9.63174L11.7115 10.5182L14.4727 8.50147C14.7399 8.3064 15.1147 8.3646 15.3099 8.63189C15.505 8.89907 15.4466 9.27388 15.1794 9.46909Z" fill="#F46628"/>
</g>
<defs>
<clipPath id="clip0_1001_3114">
<rect width="25" height="25" fill="white"/>
</clipPath>
</defs>
</svg>
