<svg width="31" height="31" viewBox="0 0 31 31" fill="none" xmlns="http://www.w3.org/2000/svg">
<path d="M6.45833 28.4166H24.5417C25.9664 28.4166 27.125 27.258 27.125 25.8333V11.6249C27.125 11.2823 26.9889 10.9538 26.7467 10.7116C26.5044 10.4693 26.1759 10.3333 25.8333 10.3333H21.9583V9.04159C21.9583 5.48046 19.0611 2.58325 15.5 2.58325C11.9389 2.58325 9.04167 5.48046 9.04167 9.04159V10.3333H5.16667C4.8241 10.3333 4.49555 10.4693 4.25332 10.7116C4.01109 10.9538 3.875 11.2823 3.875 11.6249V25.8333C3.875 27.258 5.03362 28.4166 6.45833 28.4166ZM11.625 9.04159C11.625 6.90517 13.3636 5.16659 15.5 5.16659C17.6364 5.16659 19.375 6.90517 19.375 9.04159V10.3333H11.625V9.04159ZM6.45833 12.9166H9.04167V15.4999H11.625V12.9166H19.375V15.4999H21.9583V12.9166H24.5417L24.5443 25.8333H6.45833V12.9166Z" fill="#F46628" stroke="#F46628" stroke-width="0.2"/>
</svg>
