<svg width="24" height="24" viewBox="0 0 24 24" fill="none" xmlns="http://www.w3.org/2000/svg">
<path d="M9.02265 9.9H9.112H14.888H14.9773L14.9874 9.98874C15.1388 11.3253 15.1388 12.6747 14.9874 14.0113L14.9773 14.1H14.888H9.112H9.02282L9.01265 14.0114C8.93821 13.3625 8.9 12.6887 8.9 12L9.02265 9.9ZM9.02265 9.9L9.01263 9.98879M9.02265 9.9L9.01263 9.98879M9.01263 9.98879C8.93729 10.6565 8.89968 11.328 8.9 12L9.01263 9.98879ZM4.252 9.9H4.17444L4 12H3.9C3.9 12 3.9 12.0001 3.9 12.0001C3.90001 12.6986 3.9891 13.3769 4.15513 14.0248L4.17439 14.1H4.252H7.1H7.21065L7.19949 13.9899C7.06535 12.6667 7.06535 11.3333 7.19949 10.0101L7.21065 9.9H7.1H4.252ZM4.98345 7.94991L4.89659 8.1H5.07H7.416H7.4965L7.51369 8.02135C7.77813 6.81149 8.15944 5.73005 8.62575 4.83209L8.76415 4.56557L8.4936 4.69591C7.02371 5.40403 5.80071 6.53779 4.98345 7.94991ZM19.8449 9.97515L19.8256 9.9H19.748H16.9H16.7894L16.8005 10.0101C16.9347 11.3333 16.9347 12.6667 16.8005 13.9899L16.7894 14.1H16.9H19.748H19.8256L19.8449 14.0249C20.1857 12.6965 20.1857 11.3035 19.8449 9.97515ZM18.93 8.1H19.1034L19.0166 7.94991C18.1993 6.53779 16.9763 5.40403 15.5064 4.69591L15.2355 4.56538L15.3743 4.83216C15.8415 5.73003 16.2219 6.81143 16.4863 8.02135L16.5035 8.1H16.584H18.93ZM9.373 7.97569L9.34185 8.1H9.47H14.53H14.6571L14.6272 7.97647C14.4435 7.21778 14.1786 6.48111 13.8369 5.77923L13.8364 5.77825C13.5191 5.14412 13.1882 4.67845 12.8759 4.36975C12.5667 4.06411 12.2628 3.9 12 3.9C11.7367 3.9 11.4328 4.06409 11.1237 4.36977C10.8115 4.67847 10.4809 5.14414 10.1636 5.77825L10.1635 5.77839C9.84479 6.41785 9.57747 7.15982 9.373 7.97569ZM5.07 15.9H4.89659L4.98345 16.0501C5.80071 17.4622 7.02371 18.596 8.4936 19.3041L8.76454 19.4346L8.62571 19.1678C8.15846 18.27 7.77815 17.1886 7.51369 15.9787L7.4965 15.9H7.416H5.07ZM19.0166 16.0501L19.1034 15.9H18.93H16.584H16.5035L16.4863 15.9787C16.2219 17.1885 15.8406 18.27 15.3743 19.1679L15.2359 19.4344L15.5064 19.3041C16.9763 18.596 18.1993 17.4622 19.0166 16.0501ZM9.47 15.9H9.34185L9.373 16.0243C9.57747 16.8402 9.84479 17.5822 10.1635 18.2216L10.1636 18.2218C10.4809 18.8559 10.8118 19.3216 11.1241 19.6303C11.4333 19.9359 11.7372 20.1 12 20.1C12.2633 20.1 12.5672 19.9359 12.8763 19.6302C13.1885 19.3215 13.5191 18.8559 13.8364 18.2218L13.8365 18.2216C14.1552 17.5822 14.4225 16.8402 14.627 16.0243L14.6582 15.9H14.53H9.47ZM12 21.9C6.53223 21.9 2.1 17.4678 2.1 12C2.1 6.53223 6.53223 2.1 12 2.1C17.4678 2.1 21.9 6.53223 21.9 12C21.9 17.4678 17.4678 21.9 12 21.9Z" fill="#F46628" stroke="#F6F6F6" stroke-width="0.2"/>
</svg>
