<svg width="20" height="20" viewBox="0 0 20 20" fill="none" xmlns="http://www.w3.org/2000/svg">
<path d="M9.99175 1.6665C5.39175 1.6665 1.66675 5.39984 1.66675 9.99984C1.66675 14.5998 5.39175 18.3332 9.99175 18.3332C14.6001 18.3332 18.3334 14.5998 18.3334 9.99984C18.3334 5.39984 14.6001 1.6665 9.99175 1.6665ZM13.3334 13.3332C13.2563 13.4104 13.1647 13.4717 13.0639 13.5135C12.9631 13.5553 12.8551 13.5769 12.7459 13.5769C12.6368 13.5769 12.5287 13.5553 12.4279 13.5135C12.3271 13.4717 12.2355 13.4104 12.1584 13.3332L9.41675 10.5915C9.33801 10.5143 9.27537 10.4223 9.23245 10.3207C9.18954 10.2192 9.16721 10.1101 9.16675 9.99984V6.6665C9.16675 6.20817 9.54175 5.83317 10.0001 5.83317C10.4584 5.83317 10.8334 6.20817 10.8334 6.6665V9.65817L13.3334 12.1582C13.6584 12.4832 13.6584 13.0082 13.3334 13.3332Z" fill="#F46628"/>
</svg>
