<svg width="30" height="30" viewBox="0 0 30 30" fill="none" xmlns="http://www.w3.org/2000/svg">
<path d="M5.315 12.5C5.10519 13.3168 4.99936 14.1567 5 15C5 15.8625 5.11 16.7 5.315 17.5H8.875C8.70648 15.8376 8.70648 14.1624 8.875 12.5H5.315ZM6.3375 10H9.27C9.6025 8.47875 10.0825 7.11625 10.6713 5.9825C8.85647 6.85677 7.34652 8.25654 6.3375 10ZM24.685 12.5H21.125C21.2935 14.1624 21.2935 15.8376 21.125 17.5H24.685C25.1058 15.8599 25.1058 14.1401 24.685 12.5ZM23.6625 10C22.6535 8.25654 21.1435 6.85677 19.3288 5.9825C19.9188 7.11625 20.3975 8.47875 20.73 10H23.6625ZM11.39 12.5C11.2963 13.33 11.2496 14.1647 11.25 15C11.25 15.8563 11.2975 16.6938 11.39 17.5H18.61C18.7983 15.8387 18.7983 14.1614 18.61 12.5H11.39ZM11.8375 10H18.1625C17.935 9.06037 17.6069 8.14802 17.1838 7.27875C16.3988 5.71 15.5588 5 15 5C14.44 5 13.6013 5.71 12.8163 7.27875C12.4225 8.06875 12.0913 8.9875 11.8375 10ZM6.3375 20C7.34652 21.7435 8.85647 23.1432 10.6713 24.0175C10.0813 22.8838 9.6025 21.5213 9.27 20H6.3375ZM23.6625 20H20.73C20.3975 21.5213 19.9175 22.8838 19.3288 24.0175C21.1435 23.1432 22.6535 21.7435 23.6625 20ZM11.8375 20C12.0913 21.0125 12.4225 21.9313 12.8163 22.7213C13.6013 24.29 14.4413 25 15 25C15.56 25 16.3988 24.29 17.1838 22.7213C17.5775 21.9313 17.9088 21.0125 18.1625 20H11.8375ZM15 27.5C8.09625 27.5 2.5 21.9038 2.5 15C2.5 8.09625 8.09625 2.5 15 2.5C21.9038 2.5 27.5 8.09625 27.5 15C27.5 21.9038 21.9038 27.5 15 27.5Z" fill="#F46628"/>
<path fill-rule="evenodd" clip-rule="evenodd" d="M5.15988 12.3H9.0963L9.07398 12.5202C8.90682 14.1692 8.90682 15.8308 9.07398 17.4798L9.0963 17.7H5.15979L5.12126 17.5496C4.9122 16.7338 4.80001 15.8797 4.8 15.0002M5.15988 12.3L5.12129 12.4502L5.15988 12.3ZM5.315 17.5C5.11 16.7 5 15.8625 5 15C4.99936 14.1567 5.10519 13.3168 5.315 12.5H8.875C8.86824 12.5666 8.86176 12.6333 8.85554 12.7C8.71296 14.23 8.71296 15.77 8.85554 17.3C8.86176 17.3667 8.86824 17.4334 8.875 17.5H5.315ZM5.99067 10.2L6.1644 9.89982C7.19351 8.12164 8.73353 6.694 10.5844 5.80232L11.1255 5.54164L10.8487 6.07467C10.2694 7.19034 9.79477 8.53574 9.46539 10.0427L9.43101 10.2H5.99067ZM24.8402 12.3L24.8787 12.4503C25.3079 14.123 25.3079 15.877 24.8787 17.5497L24.8402 17.7H20.9037L20.926 17.4798C21.0932 15.8308 21.0932 14.1692 20.926 12.5202L20.9037 12.3H24.8402ZM24.0093 10.2H20.569L20.5346 10.0427C20.2052 8.53561 19.7318 7.19031 19.1513 6.07483L18.8737 5.54127L19.4156 5.80232C21.2665 6.694 22.8065 8.12164 23.8356 9.89982L24.0093 10.2ZM11.2113 12.3H18.7886L18.8087 12.4775C18.9987 14.1538 18.9987 15.8462 18.8087 17.5225L18.7886 17.7H11.2116L11.1913 17.5228C11.0979 16.7087 11.05 15.8637 11.05 15.0001M11.2113 12.3L11.1913 12.4776L11.2113 12.3ZM11.39 17.5C11.2975 16.6938 11.25 15.8563 11.25 15C11.2496 14.1647 11.2963 13.33 11.39 12.5H18.61C18.7983 14.1614 18.7983 15.8387 18.61 17.5H11.39ZM11.1913 12.4776C11.0968 13.3151 11.0496 14.1573 11.05 15.0001L11.1913 12.4776ZM11.5812 10.2L11.6435 9.95138C11.9002 8.92715 12.2361 7.99445 12.6373 7.18953C13.0364 6.39195 13.4542 5.80213 13.8519 5.40888C14.2435 5.02167 14.6415 4.8 15 4.8C15.3579 4.8 15.756 5.02172 16.1476 5.40885C16.5455 5.80209 16.9635 6.39162 17.3626 7.18925L17.3636 7.19121C17.793 8.07341 18.126 8.99934 18.3569 9.95294L18.4167 10.2H11.5812ZM5.99067 19.8H9.43101L9.46539 19.9573C9.79479 21.4644 10.2682 22.8097 10.8487 23.9252L11.1263 24.4587L10.5844 24.1977C8.73353 23.306 7.19351 21.8784 6.1644 20.1002L5.99067 19.8ZM24.0093 19.8L23.8356 20.1002C22.8065 21.8784 21.2665 23.306 19.4156 24.1977L18.8745 24.4584L19.1513 23.9253C19.7306 22.8097 20.2052 21.4643 20.5346 19.9573L20.569 19.8H24.0093ZM11.5812 19.8H18.4188L18.3565 20.0486C18.0998 21.0729 17.7639 22.0056 17.3628 22.8105C16.9636 23.6081 16.5458 24.1979 16.1481 24.5911C15.7565 24.9783 15.3585 25.2 15 25.2C14.6421 25.2 14.244 24.9783 13.8524 24.5912C13.4545 24.1979 13.0365 23.6084 12.6374 22.8108C12.2362 22.0058 11.9002 21.0729 11.6435 20.0486L11.5812 19.8ZM5.12129 12.4502C4.90731 13.2833 4.79936 14.1401 4.8 15.0002L5.12129 12.4502ZM10.5215 6.28056C10.0009 7.35218 9.57386 8.6098 9.27 10H6.3375C6.37638 9.93282 6.41601 9.86615 6.45636 9.8C7.40499 8.24508 8.75839 6.97787 10.3708 6.13347C10.47 6.08154 10.5702 6.0312 10.6713 5.9825C10.6205 6.08017 10.5706 6.17954 10.5215 6.28056ZM21.125 12.5C21.1318 12.5666 21.1382 12.6333 21.1445 12.7C21.287 14.23 21.287 15.77 21.1445 17.3C21.1382 17.3667 21.1318 17.4334 21.125 17.5H24.685C25.1058 15.8599 25.1058 14.1401 24.685 12.5H21.125ZM19.3288 5.9825C19.3796 6.08023 19.4296 6.17966 19.4788 6.28075C20.0002 7.35233 20.4262 8.60988 20.73 10H23.6625C23.6236 9.93282 23.584 9.86615 23.5436 9.8C22.5951 8.24518 21.2418 6.97804 19.6295 6.13363C19.5302 6.08164 19.43 6.03125 19.3288 5.9825ZM18.1625 10C18.1463 9.9332 18.1296 9.86653 18.1125 9.8C17.8879 8.93086 17.5768 8.08621 17.1838 7.27875C16.3988 5.71 15.5588 5 15 5C14.44 5 13.6013 5.71 12.8163 7.27875C12.4486 8.01641 12.1354 8.86633 11.889 9.8C11.8715 9.86625 11.8543 9.93292 11.8375 10H18.1625ZM10.3705 23.8664C10.4698 23.9184 10.5701 23.9688 10.6713 24.0175C10.6204 23.9198 10.5704 23.8203 10.5212 23.7193C9.9998 22.6477 9.57384 21.3901 9.27 20H6.3375C6.37638 20.0672 6.41601 20.1339 6.45636 20.2C7.40494 21.7548 8.75822 23.022 10.3705 23.8664ZM19.4785 23.7194C19.9991 22.6478 20.4261 21.3902 20.73 20H23.6625C23.6236 20.0672 23.584 20.1339 23.5436 20.2C22.595 21.7549 21.2416 23.0221 19.6292 23.8665C19.53 23.9185 19.4298 23.9688 19.3288 24.0175C19.3795 23.9198 19.4294 23.8205 19.4785 23.7194ZM11.8375 20C11.8543 20.0671 11.8715 20.1338 11.889 20.2C12.1354 21.1337 12.4486 21.9836 12.8163 22.7213C13.6013 24.29 14.4413 25 15 25C15.56 25 16.3988 24.29 17.1838 22.7213C17.5514 21.9836 17.8646 21.1337 18.111 20.2C18.1285 20.1338 18.1457 20.0671 18.1625 20H11.8375ZM2.7 15C2.7 21.7933 8.20671 27.3 15 27.3C21.7933 27.3 27.3 21.7933 27.3 15C27.3 8.20671 21.7933 2.7 15 2.7C8.20671 2.7 2.7 8.20671 2.7 15ZM2.5 15C2.5 21.9038 8.09625 27.5 15 27.5C21.9038 27.5 27.5 21.9038 27.5 15C27.5 8.09625 21.9038 2.5 15 2.5C8.09625 2.5 2.5 8.09625 2.5 15Z" fill="#F6F6F6"/>
</svg>
