<svg width="33" height="37" viewBox="0 0 33 37" fill="none" xmlns="http://www.w3.org/2000/svg">
<path d="M13.1605 12.203L13.1605 12.203C12.2383 13.0951 11.3302 14.0029 10.4386 14.9256L10.4386 14.9256C9.99574 15.384 9.89737 15.97 10.196 16.5327L10.2392 16.5098L10.196 16.5327C10.2725 16.6768 10.2807 16.7691 10.2568 16.844C10.2315 16.923 10.1679 16.9931 10.0727 17.0876C8.88777 18.2644 7.70702 19.4453 6.52639 20.6261C6.22109 20.9314 5.91581 21.2367 5.61046 21.5419L5.645 21.5765L5.61046 21.542C5.03527 22.1171 4.7381 22.7455 4.7313 23.3776C4.7245 24.01 5.00833 24.6377 5.5784 25.2112C7.5988 27.2441 9.62689 29.269 11.6602 31.2888C12.1702 31.7955 12.7797 32.049 13.3915 32.048C14.0034 32.0469 14.6133 31.7914 15.1246 31.2878C15.5905 30.8291 16.0522 30.3659 16.5138 29.9029C16.6785 29.7376 16.8432 29.5723 17.0081 29.4073C17.7241 28.6908 18.4397 27.9741 19.1528 27.2599C19.4201 26.9922 19.687 26.7249 19.9535 26.4581C20.4243 26.6912 20.7768 26.795 21.1093 26.74C21.449 26.6838 21.7568 26.4636 22.1425 26.0781C22.3023 25.9184 22.4622 25.7587 22.6221 25.5989C23.2055 25.016 23.7891 24.4329 24.3718 23.8492L24.3372 23.8147L24.3718 23.8492C24.7715 23.4487 24.977 23.0258 24.9777 22.5984C24.9785 22.171 24.7745 21.7491 24.376 21.3508C23.5289 20.5038 22.6813 19.657 21.8338 18.8102C21.349 18.3259 20.8643 17.8416 20.3796 17.3572C19.8906 16.8686 19.4018 16.3797 18.913 15.8908C17.7133 14.6908 16.5135 13.4908 15.3106 12.2938C14.9846 11.9694 14.6059 11.7927 14.2275 11.7749C13.8486 11.7571 13.4748 11.899 13.1605 12.203ZM6.52926 24.2233L6.49473 24.2578L6.52926 24.2233C6.23654 23.9308 6.09759 23.6594 6.09767 23.3942C6.09775 23.129 6.23689 22.8567 6.53089 22.5621C7.60347 21.4874 8.67688 20.4135 9.75231 19.3376C10.2405 18.8491 10.7292 18.3603 11.2183 17.8707C13.7799 20.4315 16.3048 22.9556 18.865 25.5153C18.8523 25.529 18.8391 25.5432 18.8256 25.5579C18.7731 25.6147 18.7148 25.6779 18.6537 25.7395L18.358 26.0375C16.9763 27.43 15.5944 28.8226 14.2112 30.2138C13.9076 30.5191 13.6348 30.663 13.3687 30.663C13.1026 30.6629 12.8291 30.5189 12.5243 30.2144C10.5257 28.2176 8.52737 26.2205 6.52926 24.2233ZM20.9502 25.2835L20.9847 25.3181L20.9502 25.2835C20.904 25.3298 20.8671 25.3504 20.8381 25.3577C20.8106 25.3648 20.7858 25.3609 20.7603 25.3487C20.7334 25.3358 20.7062 25.3138 20.6763 25.2849C20.6616 25.2706 20.647 25.2553 20.6317 25.2393C20.6166 25.2235 20.6008 25.2068 20.5849 25.1909C19.7159 24.324 18.8474 23.4568 17.9791 22.589C17.4591 22.0694 16.9395 21.5495 16.4197 21.0296C14.8182 19.4273 13.2165 17.8249 11.6075 16.2301C11.4823 16.1059 11.4275 16.0178 11.4246 15.9378C11.4217 15.8595 11.4683 15.7712 11.5993 15.6456L11.5993 15.6456C12.387 14.8898 13.155 14.1131 13.9169 13.3322C14.0242 13.2223 14.1031 13.1719 14.1762 13.1675C14.2473 13.1631 14.3296 13.2016 14.4458 13.3181C16.7124 15.5937 18.9842 17.8641 21.2559 20.1345C21.9941 20.8721 22.7322 21.6098 23.4702 22.3477L23.5047 22.3131L23.4702 22.3477C23.5113 22.3888 23.5473 22.433 23.5959 22.4927C23.6158 22.5172 23.6379 22.5443 23.6633 22.5749C23.4263 22.8113 23.191 23.046 22.9569 23.2795C22.2807 23.954 21.6147 24.6182 20.9502 25.2835Z" fill="#2B1A51" stroke="#2B1A51" stroke-width="0.0977011"/>
<path d="M12.5969 3.57876L12.5969 3.57876C12.3 3.70406 12.1456 3.81703 12.0873 3.96077C12.0289 4.10469 12.06 4.29602 12.1853 4.59884C12.5756 5.54177 12.9678 6.48391 13.3601 7.42608C13.5804 7.95526 13.8007 8.48445 14.0207 9.01378C14.1247 9.26396 14.0005 9.54923 13.7537 9.655L13.5846 9.72748C13.2336 9.8779 12.8265 9.71406 12.6791 9.36156L12.6534 9.30024C12.4832 8.89303 12.3127 8.48592 12.1421 8.07879C11.7336 7.10391 11.3251 6.12889 10.9215 5.15202L10.9666 5.13336L10.9215 5.15202C10.6634 4.52737 10.6317 3.96068 10.8254 3.48156C11.0192 3.00236 11.435 2.6194 12.0544 2.35523C13.5838 1.70299 15.1173 1.06027 16.6521 0.420769C17.2592 0.167807 17.8223 0.141575 18.3003 0.335712C18.7783 0.529863 19.1635 0.941264 19.4207 1.54823C20.067 3.07275 20.7073 4.59996 21.3476 6.12702C21.6291 6.79841 21.9105 7.46978 22.1925 8.14088C22.2837 8.35781 22.5687 8.41199 22.7371 8.24499L26.6797 4.3347C27.0044 4.01269 27.5283 4.01378 27.8516 4.33709L32.3877 8.87211C32.7104 9.19484 32.7122 9.71757 32.3917 10.0425L24.2868 18.2595C24.0299 18.52 23.5882 18.4794 23.3492 18.2121C23.1256 17.9621 23.1625 17.6106 23.3928 17.3773C25.8051 14.9333 28.2494 12.4567 30.7232 9.94999C31.0065 9.66292 31.0045 9.20084 30.7188 8.91617C29.6328 7.83416 28.5738 6.77932 27.5146 5.72482C27.4399 5.65052 27.3134 5.65439 27.235 5.73279L19.6092 13.3555C19.3268 13.6377 18.8647 13.6225 18.6014 13.3223C18.3611 13.0483 18.375 12.6347 18.6334 12.3776C18.6987 12.3126 18.7642 12.2474 18.8301 12.1818C19.3748 11.6398 19.9383 11.0791 20.4993 10.5157L12.5969 3.57876ZM12.5969 3.57876C14.0659 2.95875 15.5351 2.33966 17.0053 1.72216C17.2108 1.63582 17.3725 1.57684 17.505 1.54835C17.6371 1.51995 17.7356 1.5229 17.8173 1.55549C17.8989 1.58803 17.9709 1.65296 18.0444 1.76297C18.1182 1.87344 18.1908 2.02543 18.2752 2.22679L18.2752 2.2268C18.5072 2.7798 18.7392 3.33276 18.9712 3.88572C19.614 5.41777 20.2568 6.94984 20.8976 8.48277L20.8976 8.48278C20.939 8.58182 20.9905 8.68292 21.0425 8.783C21.0499 8.79737 21.0574 8.81172 21.0649 8.82604C21.1097 8.91205 21.154 8.99714 21.1931 9.08131C21.2852 9.27954 21.3422 9.4606 21.3112 9.61751L21.3591 9.62695M12.5969 3.57876L21.3591 9.62695M21.3591 9.62695L21.3112 9.61751C21.2801 9.77525 21.1589 9.92216 20.9989 10.0715M21.3591 9.62695L20.9989 10.0715M20.9989 10.0715C20.9304 10.1355 20.8566 10.1983 20.7821 10.2618M20.9989 10.0715L20.7821 10.2618M20.7821 10.2618C20.7704 10.2718 20.7586 10.2818 20.7469 10.2918M20.7821 10.2618L20.7469 10.2918M20.7469 10.2918C20.661 10.3651 20.5752 10.4395 20.4993 10.5157L20.7469 10.2918Z" fill="#2B1A51" stroke="#2B1A51" stroke-width="0.0977011"/>
<path d="M7.489 33.1201L7.489 33.1201C7.2486 33.3596 7.05086 33.4669 6.86164 33.4644C6.67214 33.4619 6.4751 33.3492 6.23659 33.1064C5.38549 32.2403 4.53369 31.3748 3.68053 30.5106C3.43821 30.2652 3.32812 30.0721 3.32878 29.8869C3.32945 29.7016 3.44098 29.5076 3.68759 29.2606L3.68759 29.2606C4.12978 28.8176 4.57323 28.3758 5.01878 27.9319C5.05605 27.8948 5.09333 27.8577 5.13062 27.8205C5.39339 27.5587 5.39385 27.1332 5.13248 26.8702C4.87004 26.6062 4.44355 26.6062 4.18046 26.8694L2.85463 28.1956C2.85463 28.1956 2.85463 28.1957 2.85463 28.1957C2.39483 28.6553 2.11214 29.0638 2.00982 29.4864C1.90706 29.9108 1.9881 30.3413 2.23805 30.8405C2.37823 31.1204 2.37075 31.4542 2.18533 31.6983L1.15916 33.0494C0.908422 33.3796 0.93953 33.844 1.23201 34.1378L2.67463 35.5868C2.9678 35.8813 3.43349 35.9138 3.76468 35.6628L5.12465 34.6323C5.36605 34.4494 5.69518 34.4397 5.97268 34.5758C6.40938 34.7898 6.79887 34.8844 7.16848 34.8446C7.53865 34.8047 7.88245 34.6308 8.22885 34.3201L8.22885 34.3201C8.74893 33.8535 9.22806 33.3413 9.71168 32.8244C9.79215 32.7384 9.87274 32.6522 9.95367 32.5661C10.1961 32.3082 10.2237 31.9224 9.97982 31.6573C9.72141 31.3764 9.25923 31.3436 8.98627 31.6182C8.94295 31.6618 8.89973 31.7053 8.85658 31.7487C8.3955 32.2127 7.94343 32.6676 7.489 33.1201ZM7.52347 33.1547C7.0372 33.6391 6.68371 33.6312 6.20175 33.1407C5.35066 32.2745 4.49889 31.409 3.64577 30.5449C3.15746 30.0504 3.1561 29.7238 3.65302 29.2261L7.52347 33.1547ZM3.67278 33.9646C3.40629 34.1595 3.04606 34.1307 2.82496 33.8887C2.61719 33.6612 2.59129 33.3103 2.77195 33.0635L2.92603 32.853C3.17629 32.5111 3.67047 32.4734 3.96612 32.7759C4.2579 33.0744 4.21976 33.5645 3.88343 33.8105L3.67278 33.9646Z" fill="#2B1A51" stroke="#2B1A51" stroke-width="0.0977011"/>
<path d="M15.508 4.21973C15.1613 4.36218 15.0001 4.75725 15.1426 5.10304L16.9462 9.47893C17.0889 9.82525 17.4908 9.9869 17.836 9.8449C18.1829 9.70225 18.3414 9.30803 18.1989 8.96249L16.3951 4.58676C16.2525 4.24081 15.8534 4.07777 15.508 4.21973Z" fill="#2B1A51" stroke="#2B1A51" stroke-width="0.0977011"/>
</svg>
